{
.appVersion = "1346";
DisplayStrings = (
"Hello/space There"
);
classes = (
{
code = "zero one two three four five six seven eight nine parenleft parenright";
name = standard;
},
{
code = "zerosuperior onesuperior twosuperior threesuperior foursuperior fivesuperior sixsuperior sevensuperior eightsuperior ninesuperior parenleftsuperior parenrightsuperior";
name = sups;
},
{
code = "zeroinferior oneinferior twoinferior threeinferior fourinferior fiveinferior sixinferior seveninferior eightinferior nineinferior parenleftinferior parenrightinferior";
name = subs;
},
{
code = "zero.numerator one.numerator two.numerator three.numerator four.numerator five.numerator six.numerator seven.numerator eight.numerator nine.numerator parenleft.numerator parenright.numerator";
name = numerator;
},
{
code = "zero.denominator one.denominator two.denominator three.denominator four.denominator five.denominator six.denominator seven.denominator eight.denominator nine.denominator parenleft.denominator parenright.denominator";
name = denominator;
},
{
code = "zero.otlf one.otlf two.otlf three.otlf four.otlf five.otlf six.otlf seven.otlf eight.otlf nine.otlf parenleft.otlf parenright.otlf";
name = tnum1;
},
{
code = "alef-hb bet-hb gimel-hb dalet-hb he-hb vav-hb zayin-hb het-hb tet-hb yod-hb finalkaf-hb kaf-hb lamed-hb finalmem-hb mem-hb finalnun-hb nun-hb samekh-hb ayin-hb finalpe-hb pe-hb finaltsadi-hb tsadi-hb qof-hb resh-hb shin-hb tav-hb ";
name = HebrewLetters;
}
);
copyright = "Copyright 2015 The Rubik Project Authors (https://github.com/googlefonts/rubik)";
customParameters = (
{
name = license;
value = "This Font Software is licensed under the SIL Open Font License, Version 1.1. This license is available with a FAQ at: http://scripts.sil.org/OFL";
},
{
name = licenseURL;
value = "http://scripts.sil.org/OFL";
},
{
name = fsType;
value = (
);
},
{
name = "Use Typo Metrics";
value = 1;
},
{
name = "Disable Last Change";
value = 1;
},
{
name = "Use Line Breaks";
value = 1;
}
);

glyphs = (
{
color = 1;
glyphname = A;
layers = (
{
anchors = (
{
name = bottom;
position = "{378, 0}";
},
{
name = ogonek;
position = "{679, 10}";
},
{
name = top;
position = "{378, 700}";
}
);
layerId = "EC64484B-0978-4CB1-9EE9-C40A2D8C4059";
paths = (
{
closed = 1;
nodes = (
"22 -25 OFFCURVE",
"136.149 -25 OFFCURVE",
"136.149 40 CURVE",
"142.097 -29.747 OFFCURVE",
"216.669 -23.387 OFFCURVE",
"210.72 46.36 CURVE",
"269.814 24.521 OFFCURVE",
"291.574 83.401 OFFCURVE",
"232.48 105.24 CURVE",
"246.962 32.671 OFFCURVE",
"376.041 58.431 OFFCURVE",
"361.559 131 CURVE",
"361.559 61 OFFCURVE",
"453.221 61 OFFCURVE",
"453.221 131 CURVE",
"448.955 60.128 OFFCURVE",
"510.094 56.448 OFFCURVE",
"514.36 127.32 CURVE",
"445.886 102.015 OFFCURVE",
"459.486 65.215 OFFCURVE",
"527.96 90.52 CURVE",
"468.186 38.866 OFFCURVE",
"511.843 -11.654 OFFCURVE",
"571.617 40 CURVE",
"571.617 -28 OFFCURVE",
"618.851 -28 OFFCURVE",
"618.851 40 CURVE",
"618.851 -29 OFFCURVE",
"713.319 -29 OFFCURVE",
"713.319 40 CURVE",
"774.837 75.449 OFFCURVE",
"760.464 100.39 OFFCURVE",
"698.947 64.941 CURVE",
"756.55 85.012 OFFCURVE",
"736.874 141.483 OFFCURVE",
"679.271 121.412 CURVE",
"748.206 145.431 OFFCURVE",
"729.841 198.137 OFFCURVE",
"660.906 174.118 CURVE",
"722.287 195.505 OFFCURVE",
"672.439 338.564 OFFCURVE",
"611.059 317.176 CURVE",
"685.66 343.17 OFFCURVE",
"668.607 392.111 OFFCURVE",
"594.006 366.118 CURVE",
"661.997 389.808 OFFCURVE",
"618.709 514.044 OFFCURVE",
"550.718 490.353 CURVE",
"612.098 511.74 OFFCURVE",
"576.681 613.387 OFFCURVE",
"515.3 592 CURVE",
"583.26 621.283 OFFCURVE",
"553.96 689.283 OFFCURVE",
"486 660 CURVE",
"486 734 OFFCURVE",
"411.036 734 OFFCURVE",
"411.036 660 CURVE",
"409.427 719.978 OFFCURVE",
"260.39 715.978 OFFCURVE",
"262 656 CURVE",
"194.953 679.362 OFFCURVE",
"179.212 634.185 OFFCURVE",
"246.259 610.824 CURVE",
"189.6 630.566 OFFCURVE",
"152.87 525.154 OFFCURVE",
"209.529 505.412 CURVE",
"142.483 528.773 OFFCURVE",
"97.883 400.773 OFFCURVE",
"164.929 377.412 CURVE",
"95.05 401.76 OFFCURVE",
"64.879 315.172 OFFCURVE",
"134.759 290.824 CURVE",
"70.545 313.198 OFFCURVE",
"24.633 181.433 OFFCURVE",
"88.847 159.059 CURVE",
"18.023 183.736 OFFCURVE",
"-10.836 100.913 OFFCURVE",
"59.988 76.235 CURVE"
);
},
{
closed = 1;
nodes = (
"339 447 OFFCURVE",
"391 447 OFFCURVE",
"391 484 CURVE",
"372.98 459.393 OFFCURVE",
"403.932 436.726 OFFCURVE",
"421.952 461.333 CURVE",
"390.403 451.656 OFFCURVE",
"408.943 391.212 OFFCURVE",
"440.492 400.889 CURVE",
"404.163 389.746 OFFCURVE",
"420.385 336.857 OFFCURVE",
"456.714 348 CURVE",
"421.819 337.297 OFFCURVE",
"442.676 269.297 OFFCURVE",
"477.571 280 CURVE",
"449.055 304.353 OFFCURVE",
"420.019 270.353 OFFCURVE",
"448.536 246 CURVE",
"448.536 285 OFFCURVE",
"401.179 285 OFFCURVE",
"401.179 246 CURVE",
"401.179 281.5 OFFCURVE",
"357.768 281.5 OFFCURVE",
"357.768 246 CURVE",
"357.768 276.5 OFFCURVE",
"286.732 276.5 OFFCURVE",
"286.732 246 CURVE",
"321.404 253.621 OFFCURVE",
"313.101 291.399 OFFCURVE",
"278.429 283.778 CURVE",
"307.622 274.946 OFFCURVE",
"327.051 339.168 OFFCURVE",
"297.857 348 CURVE",
"328.965 338.589 OFFCURVE",
"347.251 399.034 OFFCURVE",
"316.143 408.444 CURVE",
"353.472 397.152 OFFCURVE",
"366.044 438.707 OFFCURVE",
"328.714 450 CURVE"
);
}
);
width = 755;
},
{
anchors = (
{
name = bottom;
position = "{378, 0}";
},
{
name = ogonek;
position = "{679, 10}";
},
{
name = top;
position = "{378, 700}";
}
);
associatedMasterId = "EC64484B-0978-4CB1-9EE9-C40A2D8C4059";
layerId = "7C9BB914-2F15-4425-86D7-FA9F60741A13";
name = tempoutline;
paths = (
{
closed = 1;
nodes = (
"207 40 LINE SMOOTH",
"211 40 OFFCURVE",
"206 32 OFFCURVE",
"208 39 CURVE SMOOTH",
"242 131 LINE",
"513 131 LINE",
"547 39 LINE SMOOTH",
"549 32 OFFCURVE",
"544 40 OFFCURVE",
"548 40 CURVE SMOOTH",
"733 40 LINE SMOOTH",
"722 40 OFFCURVE",
"715 31 OFFCURVE",
"715 22 CURVE SMOOTH",
"715 24 OFFCURVE",
"715 20 OFFCURVE",
"716 16 CURVE SMOOTH",
"493 656 LINE SMOOTH",
"492 660 OFFCURVE",
"489 660 OFFCURVE",
"486 660 CURVE SMOOTH",
"269 660 LINE SMOOTH",
"266 660 OFFCURVE",
"263 660 OFFCURVE",
"262 656 CURVE SMOOTH",
"39 16 LINE SMOOTH",
"40 20 OFFCURVE",
"40 24 OFFCURVE",
"40 22 CURVE SMOOTH",
"40 33 OFFCURVE",
"31 40 OFFCURVE",
"22 40 CURVE SMOOTH"
);
},
{
closed = 1;
nodes = (
"415 484 LINE",
"488 246 LINE",
"267 246 LINE",
"339 484 LINE"
);
}
);
width = 755;
}
);
leftKerningGroup = A;
rightKerningGroup = A;
unicode = 0041;
userData = {
com.typemytype.robofont.guides = (
{
angle = 0;
isGlobal = 0;
magnetic = 5;
x = 0;
y = 680;
},
{
angle = 90;
isGlobal = 0;
magnetic = 5;
x = 35;
y = 0;
},
{
angle = 90;
isGlobal = 0;
magnetic = 5;
x = 637;
y = 0;
},
{
angle = 90;
isGlobal = 0;
magnetic = 5;
x = 336;
y = 0;
}
);
};
},
{
color = 1;
glyphname = Aogonek;
layers = (
{
guideLines = (
{
position = "{0, -220}";
}
);
hints = (
{
horizontal = 1;
place = "{-2147483648, 0}";
type = Tag;
name = hr01;
}
);
layerId = "EC64484B-0978-4CB1-9EE9-C40A2D8C4059";
paths = (
{
closed = 1;
nodes = (
"763.943 -182.606 OFFCURVE",
"764.943 -159.606 OFFCURVE",
"705 -157 CURVE",
"742.752 -101.649 OFFCURVE",
"695.34 -69.311 OFFCURVE",
"657.588 -124.663 CURVE",
"714.539 -83.962 OFFCURVE",
"677.732 -32.458 OFFCURVE",
"620.78 -73.159 CURVE",
"688.384 -112.066 OFFCURVE",
"752.333 -0.95 OFFCURVE",
"684.73 37.957 CURVE",
"751.968 2.531 OFFCURVE",
"766.185 29.515 OFFCURVE",
"698.947 64.941 CURVE",
"755.606 84.683 OFFCURVE",
"739.865 129.86 OFFCURVE",
"683.206 110.118 CURVE",
"743.642 131.176 OFFCURVE",
"721.342 195.176 OFFCURVE",
"660.906 174.118 CURVE",
"726.064 196.821 OFFCURVE",
"701.14 268.351 OFFCURVE",
"635.982 245.647 CURVE",
"698.307 267.363 OFFCURVE",
"657.643 384.069 OFFCURVE",
"595.318 362.353 CURVE",
"651.977 382.095 OFFCURVE",
"612.624 495.036 OFFCURVE",
"555.965 475.294 CURVE",
"619.234 497.34 OFFCURVE",
"578.569 614.045 OFFCURVE",
"515.3 592 CURVE",
"581.144 635.653 OFFCURVE",
"536.062 703.653 OFFCURVE",
"470.218 660 CURVE",
"470.218 731 OFFCURVE",
"367.636 731 OFFCURVE",
"367.636 660 CURVE",
"356.287 726.032 OFFCURVE",
"245.403 706.973 OFFCURVE",
"256.753 640.941 CURVE",
"200.094 660.683 OFFCURVE",
"172.547 581.624 OFFCURVE",
"229.206 561.882 CURVE",
"157.438 586.889 OFFCURVE",
"141.697 541.713 OFFCURVE",
"213.465 516.706 CURVE",
"149.251 539.08 OFFCURVE",
"128.263 478.845 OFFCURVE",
"192.476 456.471 CURVE",
"117.875 482.464 OFFCURVE",
"90.328 403.406 OFFCURVE",
"164.929 377.412 CURVE",
"95.994 401.431 OFFCURVE",
"46.147 258.373 OFFCURVE",
"115.082 234.353 CURVE",
"55.59 255.082 OFFCURVE",
"25.42 168.494 OFFCURVE",
"84.912 147.765 CURVE",
"21.642 169.81 OFFCURVE",
"5.901 124.634 OFFCURVE",
"69.171 102.588 CURVE",
"9.967 136.038 OFFCURVE",
"-25.395 73.45 OFFCURVE",
"33.809 40 CURVE",
"33.809 -33 OFFCURVE",
"84.979 -33 OFFCURVE",
"84.979 40 CURVE",
"84.979 -23 OFFCURVE",
"140.085 -23 OFFCURVE",
"140.085 40 CURVE",
"173.201 -29.515 OFFCURVE",
"256.076 9.965 OFFCURVE",
"222.96 79.48 CURVE",
"251.23 18.736 OFFCURVE",
"361.932 70.256 OFFCURVE",
"333.662 131 CURVE",
"333.662 68 OFFCURVE",
"473.147 68 OFFCURVE",
"473.147 131 CURVE",
"418.211 79.94 OFFCURVE",
"483.904 9.26 OFFCURVE",
"538.84 60.32 CURVE",
"477.332 39.302 OFFCURVE",
"486.759 11.715 OFFCURVE",
"548.267 32.733 CURVE",
"481.158 16.691 OFFCURVE",
"515.728 -127.92 OFFCURVE",
"582.837 -111.877 CURVE"
);
},
{
closed = 1;
nodes = (
"339 449 OFFCURVE",
"391 449 OFFCURVE",
"391 484 CURVE",
"374.198 452.161 OFFCURVE",
"402.833 437.05 OFFCURVE",
"419.635 468.889 CURVE",
"384.261 458.039 OFFCURVE",
"402.801 397.595 OFFCURVE",
"438.175 408.444 CURVE",
"404.235 398.034 OFFCURVE",
"416.981 356.479 OFFCURVE",
"450.921 366.889 CURVE",
"421.283 357.798 OFFCURVE",
"442.141 289.798 OFFCURVE",
"471.778 298.889 CURVE",
"432.911 295.668 OFFCURVE",
"437.294 242.779 OFFCURVE",
"476.161 246 CURVE",
"476.161 284.5 OFFCURVE",
"416.964 284.5 OFFCURVE",
"416.964 246 CURVE",
"416.964 285.5 OFFCURVE",
"353.821 285.5 OFFCURVE",
"353.821 246 CURVE",
"353.821 278 OFFCURVE",
"282.786 278 OFFCURVE",
"282.786 246 CURVE",
"322.168 249.046 OFFCURVE",
"318.954 290.602 OFFCURVE",
"279.571 287.556 CURVE",
"315.465 276.697 OFFCURVE",
"326.893 314.475 OFFCURVE",
"291 325.333 CURVE",
"328.808 313.896 OFFCURVE",
"345.951 370.562 OFFCURVE",
"308.143 382 CURVE",
"336.858 373.313 OFFCURVE",
"354 429.98 OFFCURVE",
"325.286 438.667 CURVE"
);
}
);
width = 755;
},
{
associatedMasterId = "EC64484B-0978-4CB1-9EE9-C40A2D8C4059";
guideLines = (
{
position = "{0, -220}";
}
);
hints = (
{
horizontal = 1;
place = "{-2147483648, 0}";
type = Tag;
name = hr01;
}
);
layerId = "3E43D004-880A-4540-BFD6-C5C6A1741D82";
name = tempoutline;
paths = (
{
closed = 1;
nodes = (
"718 -180 LINE SMOOTH",
"711 -180 OFFCURVE",
"705 -186 OFFCURVE",
"705 -193 CURVE SMOOTH",
"705 -125 LINE SMOOTH",
"705 -132 OFFCURVE",
"711 -138 OFFCURVE",
"718 -138 CURVE SMOOTH",
"708 -138 LINE SMOOTH",
"655 -138 OFFCURVE",
"618 -102 OFFCURVE",
"618 -49 CURVE SMOOTH",
"618 1 OFFCURVE",
"652 38 OFFCURVE",
"701 40 CURVE SMOOTH",
"733 40 LINE SMOOTH",
"722 40 OFFCURVE",
"715 31 OFFCURVE",
"715 22 CURVE SMOOTH",
"715 24 OFFCURVE",
"715 20 OFFCURVE",
"716 16 CURVE SMOOTH",
"493 656 LINE SMOOTH",
"492 660 OFFCURVE",
"489 660 OFFCURVE",
"486 660 CURVE SMOOTH",
"269 660 LINE SMOOTH",
"266 660 OFFCURVE",
"263 660 OFFCURVE",
"262 656 CURVE SMOOTH",
"39 16 LINE SMOOTH",
"40 20 OFFCURVE",
"40 24 OFFCURVE",
"40 22 CURVE SMOOTH",
"40 33 OFFCURVE",
"31 40 OFFCURVE",
"22 40 CURVE SMOOTH",
"207 40 LINE SMOOTH",
"211 40 OFFCURVE",
"206 32 OFFCURVE",
"208 39 CURVE SMOOTH",
"242 131 LINE",
"513 131 LINE",
"547 38 LINE SMOOTH",
"550 29 OFFCURVE",
"547 39 OFFCURVE",
"544 39 CURVE",
"576 -8 LINE",
"573 -22 OFFCURVE",
"572 -35 OFFCURVE",
"572 -49 CURVE SMOOTH",
"572 -135 OFFCURVE",
"618 -180 OFFCURVE",
"704 -180 CURVE SMOOTH"
);
},
{
closed = 1;
nodes = (
"415 484 LINE",
"488 246 LINE",
"267 246 LINE",
"339 484 LINE"
);
}
);
width = 755;
}
);
leftKerningGroup = A;
rightKerningGroup = A;
unicode = 0104;
},
{
color = 1;
glyphname = AE;
layers = (
{
anchors = (
{
name = bottom;
position = "{503, 0}";
},
{
name = top;
position = "{503, 700}";
}
);
guideLines = (
{
position = "{0, 505}";
}
);
layerId = "EC64484B-0978-4CB1-9EE9-C40A2D8C4059";
paths = (
{
closed = 1;
nodes = (
"26 -38 OFFCURVE",
"85.043 -38 OFFCURVE",
"85.043 40 CURVE",
"85.043 -30 OFFCURVE",
"167.702 -30 OFFCURVE",
"167.702 40 CURVE",
"209.481 -12.379 OFFCURVE",
"272.819 38.141 OFFCURVE",
"231.04 90.52 CURVE",
"257.571 28.997 OFFCURVE",
"351.44 69.477 OFFCURVE",
"324.909 131 CURVE",
"323.114 69.026 OFFCURVE",
"461.205 65.026 OFFCURVE",
"463 127 CURVE",
"388 127 OFFCURVE",
"388 79 OFFCURVE",
"463 79 CURVE",
"393.104 66.527 OFFCURVE",
"400.063 27.527 OFFCURVE",
"469.959 40 CURVE",
"469.959 -34 OFFCURVE",
"509.878 -34 OFFCURVE",
"509.878 40 CURVE",
"509.878 -28 OFFCURVE",
"653.585 -28 OFFCURVE",
"653.585 40 CURVE",
"653.585 -24 OFFCURVE",
"793.301 -24 OFFCURVE",
"793.301 40 CURVE",
"793.301 -30 OFFCURVE",
"841.203 -30 OFFCURVE",
"841.203 40 CURVE",
"856.703 -33.381 OFFCURVE",
"943.5 -15.048 OFFCURVE",
"928 58.333 CURVE",
"996 58.333 OFFCURVE",
"996 132.75 OFFCURVE",
"928 132.75 CURVE",
"947.106 200.092 OFFCURVE",
"868.681 222.342 OFFCURVE",
"849.575 155 CURVE",
"849.575 217 OFFCURVE",
"738.275 217 OFFCURVE",
"738.275 155 CURVE",
"738.275 224 OFFCURVE",
"634.925 224 OFFCURVE",
"634.925 155 CURVE",
"695.689 160.365 OFFCURVE",
"683.764 295.421 OFFCURVE",
"623 290.056 CURVE",
"627.558 221.206 OFFCURVE",
"747.558 229.151 OFFCURVE",
"743 298 CURVE",
"743 231 OFFCURVE",
"855 231 OFFCURVE",
"855 298 CURVE",
"854.194 235.005 OFFCURVE",
"906.198 234.34 OFFCURVE",
"907.004 297.335 CURVE",
"965.843 324.957 OFFCURVE",
"956.839 344.137 OFFCURVE",
"898 316.515 CURVE",
"962 316.515 OFFCURVE",
"962 367.727 OFFCURVE",
"898 367.727 CURVE",
"958.938 387.286 OFFCURVE",
"947.938 421.558 OFFCURVE",
"887 402 CURVE",
"887 475 OFFCURVE",
"731 475 OFFCURVE",
"731 402 CURVE",
"731 463 OFFCURVE",
"671 463 OFFCURVE",
"671 402 CURVE",
"712.736 447.849 OFFCURVE",
"664.736 491.543 OFFCURVE",
"623 445.694 CURVE",
"687 445.694 OFFCURVE",
"687 489.389 OFFCURVE",
"623 489.389 CURVE",
"669.644 429.386 OFFCURVE",
"741.182 484.997 OFFCURVE",
"694.538 545 CURVE",
"694.538 476 OFFCURVE",
"750.179 476 OFFCURVE",
"750.179 545 CURVE",
"750.179 476 OFFCURVE",
"881.333 476 OFFCURVE",
"881.333 545 CURVE",
"898.105 483.237 OFFCURVE",
"936.772 493.737 OFFCURVE",
"920 555.5 CURVE",
"989 555.5 OFFCURVE",
"989 661.25 OFFCURVE",
"920 661.25 CURVE",
"918.717 738.239 OFFCURVE",
"843.717 736.989 OFFCURVE",
"845 660 CURVE",
"845 722 OFFCURVE",
"709 722 OFFCURVE",
"709 660 CURVE",
"709 735 OFFCURVE",
"609 735 OFFCURVE",
"609 660 CURVE",
"609 728 OFFCURVE",
"493 728 OFFCURVE",
"493 660 CURVE",
"493 729 OFFCURVE",
"337 729 OFFCURVE",
"337 660 CURVE",
"297.73 715.514 OFFCURVE",
"205.56 650.314 OFFCURVE",
"244.83 594.8 CURVE",
"170.206 620.726 OFFCURVE",
"123.717 486.914 OFFCURVE",
"198.342 460.988 CURVE",
"134.18 483.51 OFFCURVE",
"103.347 395.675 OFFCURVE",
"167.509 373.153 CURVE",
"105.213 394.952 OFFCURVE",
"58.642 261.868 OFFCURVE",
"120.938 240.069 CURVE",
"62.374 260.422 OFFCURVE",
"46.534 214.845 OFFCURVE",
"105.098 194.491 CURVE",
"38.032 217.795 OFFCURVE",
"10.316 138.034 OFFCURVE",
"77.382 114.729 CURVE",
"18.594 144.727 OFFCURVE",
"-21.537 66.08 OFFCURVE",
"37.252 36.082 CURVE"
);
},
{
closed = 1;
nodes = (
"361 514.5 OFFCURVE",
"415.923 514.5 OFFCURVE",
"415.923 545 CURVE",
"410.913 515.421 OFFCURVE",
"457.99 507.448 OFFCURVE",
"463 537.027 CURVE",
"429.5 537.027 OFFCURVE",
"429.5 469.253 OFFCURVE",
"463 469.253 CURVE",
"428.5 469.253 OFFCURVE",
"428.5 393.507 OFFCURVE",
"463 393.507 CURVE",
"432.5 393.507 OFFCURVE",
"432.5 333.707 OFFCURVE",
"463 333.707 CURVE",
"427.5 333.707 OFFCURVE",
"427.5 281.88 OFFCURVE",
"463 281.88 CURVE",
"435.144 294.302 OFFCURVE",
"419.144 258.422 OFFCURVE",
"447 246 CURVE",
"447 279 OFFCURVE",
"383 279 OFFCURVE",
"383 246 CURVE",
"383 281 OFFCURVE",
"311 281 OFFCURVE",
"311 246 CURVE",
"314.635 283.323 OFFCURVE",
"275.774 287.108 OFFCURVE",
"272.139 249.785 CURVE",
"305.175 239.841 OFFCURVE",
"322.264 296.613 OFFCURVE",
"289.228 306.557 CURVE",
"324.658 295.892 OFFCURVE",
"336.05 333.741 OFFCURVE",
"300.62 344.405 CURVE",
"337.008 333.452 OFFCURVE",
"357.514 401.579 OFFCURVE",
"321.127 412.532 CURVE",
"357.035 401.723 OFFCURVE",
"376.402 466.065 OFFCURVE",
"340.494 476.873 CURVE",
"376.402 466.065 OFFCURVE",
"390.073 511.483 OFFCURVE",
"354.165 522.291 CURVE"
);
}
);
width = 1005;
},
{
anchors = (
{
name = bottom;
position = "{503, 0}";
},
{
name = top;
position = "{503, 700}";
}
);
associatedMasterId = "EC64484B-0978-4CB1-9EE9-C40A2D8C4059";
guideLines = (
{
position = "{0, 505}";
}
);
layerId = "F1D1190F-0E8E-4889-B26D-8FB01B7C3633";
name = tempoutline;
paths = (
{
closed = 1;
nodes = (
"211 40 LINE SMOOTH",
"215 40 OFFCURVE",
"210 32 OFFCURVE",
"212 39 CURVE SMOOTH",
"246 131 LINE",
"463 131 LINE",
"463 27 LINE SMOOTH",
"463 34 OFFCURVE",
"457 40 OFFCURVE",
"450 40 CURVE SMOOTH",
"941 40 LINE SMOOTH",
"934 40 OFFCURVE",
"928 34 OFFCURVE",
"928 27 CURVE SMOOTH",
"928 168 LINE SMOOTH",
"928 161 OFFCURVE",
"934 155 OFFCURVE",
"941 155 CURVE SMOOTH",
"623 155 LINE",
"623 298 LINE",
"911 298 LINE SMOOTH",
"904 298 OFFCURVE",
"898 292 OFFCURVE",
"898 285 CURVE SMOOTH",
"898 415 LINE SMOOTH",
"898 408 OFFCURVE",
"904 402 OFFCURVE",
"911 402 CURVE SMOOTH",
"623 402 LINE",
"623 545 LINE",
"933 545 LINE SMOOTH",
"926 545 OFFCURVE",
"920 539 OFFCURVE",
"920 532 CURVE SMOOTH",
"920 673 LINE SMOOTH",
"920 666 OFFCURVE",
"926 660 OFFCURVE",
"933 660 CURVE SMOOTH",
"273 660 LINE SMOOTH",
"270 660 OFFCURVE",
"267 660 OFFCURVE",
"266 656 CURVE SMOOTH",
"229 549 OFFCURVE",
"192 442 OFFCURVE",
"154 335 CURVE SMOOTH",
"117 229 OFFCURVE",
"80 122 OFFCURVE",
"43 16 CURVE SMOOTH",
"44 20 OFFCURVE",
"44 24 OFFCURVE",
"44 22 CURVE SMOOTH",
"44 33 OFFCURVE",
"35 40 OFFCURVE",
"26 40 CURVE SMOOTH"
);
},
{
closed = 1;
nodes = (
"463 545 LINE",
"463 246 LINE",
"271 246 LINE",
"361 545 LINE"
);
}
);
width = 1005;
}
);
leftKerningGroup = AE;
rightKerningGroup = E;
unicode = 00C6;
userData = {
com.typemytype.robofont.guides = (
{
angle = 0;
isGlobal = 0;
magnetic = 5;
x = 0;
y = 505;
},
{
angle = 90;
isGlobal = 0;
magnetic = 5;
x = 431;
y = 0;
}
);
};
},
{
color = 1;
glyphname = B;
layers = (
{
guideLines = (
{
position = "{0, 221}";
},
{
position = "{0, 482}";
},
{
angle = 90;
position = "{399, 0}";
},
{
angle = 90;
position = "{716, 0}";
}
);
hints = (
{
horizontal = 1;
place = "{-2147483648, 0}";
type = Tag;
name = hr00;
}
);
layerId = "EC64484B-0978-4CB1-9EE9-C40A2D8C4059";
paths = (
{
closed = 1;
nodes = (
"82 -35 OFFCURVE",
"213.233 -35 OFFCURVE",
"213.233 40 CURVE",
"213.233 -30 OFFCURVE",
"340.488 -30 OFFCURVE",
"340.488 40 CURVE",
"340.488 -29 OFFCURVE",
"388.209 -29 OFFCURVE",
"388.209 40 CURVE",
"388.912 -34.997 OFFCURVE",
"452.799 -34.398 OFFCURVE",
"452.097 40.598 CURVE",
"462.196 -27.658 OFFCURVE",
"553.326 -14.175 OFFCURVE",
"543.227 54.082 CURVE",
"567.287 -7.376 OFFCURVE",
"608.339 8.695 OFFCURVE",
"584.279 70.153 CURVE",
"621.75 17.041 OFFCURVE",
"657.712 42.412 OFFCURVE",
"620.242 95.525 CURVE",
"691.481 72.074 OFFCURVE",
"736.507 208.856 OFFCURVE",
"665.267 232.307 CURVE",
"731.179 270.144 OFFCURVE",
"660.806 392.732 OFFCURVE",
"594.895 354.895 CURVE",
"653.751 327.31 OFFCURVE",
"691.776 408.442 OFFCURVE",
"632.92 436.027 CURVE",
"702.288 407.512 OFFCURVE",
"719.405 449.152 OFFCURVE",
"650.037 477.667 CURVE",
"725.631 485.51 OFFCURVE",
"717.737 561.591 OFFCURVE",
"642.143 553.748 CURVE",
"688.697 596.195 OFFCURVE",
"614.86 677.175 OFFCURVE",
"568.306 634.728 CURVE",
"583.841 700.93 OFFCURVE",
"486.012 723.887 OFFCURVE",
"470.477 657.685 CURVE",
"471.769 722.672 OFFCURVE",
"355.292 724.987 OFFCURVE",
"354 660 CURVE",
"354 729 OFFCURVE",
"206 729 OFFCURVE",
"206 660 CURVE",
"206 736 OFFCURVE",
"102 736 OFFCURVE",
"102 660 CURVE",
"34.351 673.587 OFFCURVE",
"27.351 638.735 OFFCURVE",
"95 625.148 CURVE",
"30 625.148 OFFCURVE",
"30 557.358 OFFCURVE",
"95 557.358 CURVE",
"24 557.358 OFFCURVE",
"24 405.827 OFFCURVE",
"95 405.827 CURVE",
"28 405.827 OFFCURVE",
"28 350 OFFCURVE",
"95 350 CURVE",
"19 350 OFFCURVE",
"19 254.296 OFFCURVE",
"95 254.296 CURVE",
"25 254.296 OFFCURVE",
"25 174.543 OFFCURVE",
"95 174.543 CURVE",
"19 174.543 OFFCURVE",
"19 58.901 OFFCURVE",
"95 58.901 CURVE"
);
},
{
closed = 1;
nodes = (
"265 530 OFFCURVE",
"329 530 OFFCURVE",
"329 568 CURVE",
"329 531.5 OFFCURVE",
"369 531.5 OFFCURVE",
"369 568 CURVE",
"360.609 529.913 OFFCURVE",
"426.988 515.29 OFFCURVE",
"435.379 553.377 CURVE",
"409.528 532.069 OFFCURVE",
"435.45 500.62 OFFCURVE",
"461.301 521.927 CURVE",
"426.462 515.108 OFFCURVE",
"435.08 471.076 OFFCURVE",
"469.919 477.895 CURVE",
"439.447 485.876 OFFCURVE",
"429.132 446.493 OFFCURVE",
"459.604 438.512 CURVE",
"431.389 466.155 OFFCURVE",
"400.232 434.353 OFFCURVE",
"428.448 406.71 CURVE",
"423.834 436.859 OFFCURVE",
"360.386 427.149 OFFCURVE",
"365 397 CURVE",
"365 433 OFFCURVE",
"293 433 OFFCURVE",
"293 397 CURVE",
"312.017 430.475 OFFCURVE",
"284.017 446.382 OFFCURVE",
"265 412.907 CURVE",
"297 412.907 OFFCURVE",
"297 460.628 OFFCURVE",
"265 460.628 CURVE",
"303 460.628 OFFCURVE",
"303 504.372 OFFCURVE",
"265 504.372 CURVE",
"295.5 504.372 OFFCURVE",
"295.5 548.116 OFFCURVE",
"265 548.116 CURVE"
);
},
{
closed = 1;
nodes = (
"265 272 OFFCURVE",
"311.941 272 OFFCURVE",
"311.941 310 CURVE",
"311.941 277 OFFCURVE",
"370.618 277 OFFCURVE",
"370.618 310 CURVE",
"365.9 280.373 OFFCURVE",
"435.986 269.213 OFFCURVE",
"440.704 298.84 CURVE",
"416.879 278.233 OFFCURVE",
"453.365 236.05 OFFCURVE",
"477.19 256.657 CURVE",
"444.654 251.144 OFFCURVE",
"451.384 211.423 OFFCURVE",
"483.92 216.935 CURVE",
"455.777 229.933 OFFCURVE",
"425.948 165.348 OFFCURVE",
"454.092 152.35 CURVE",
"442.115 183.1 OFFCURVE",
"390.088 162.837 OFFCURVE",
"402.065 132.087 CURVE",
"402.001 163.587 OFFCURVE",
"358.819 163.5 OFFCURVE",
"358.882 132 CURVE",
"358.882 171 OFFCURVE",
"319.765 171 OFFCURVE",
"319.765 132 CURVE",
"319.765 171.5 OFFCURVE",
"280.647 171.5 OFFCURVE",
"280.647 132 CURVE",
"316.734 142.196 OFFCURVE",
"301.087 197.574 OFFCURVE",
"265 187.378 CURVE",
"295.5 187.378 OFFCURVE",
"295.5 226.933 OFFCURVE",
"265 226.933 CURVE",
"297.5 226.933 OFFCURVE",
"297.5 266.489 OFFCURVE",
"265 266.489 CURVE"
);
}
);
width = 734;
},
{
associatedMasterId = "EC64484B-0978-4CB1-9EE9-C40A2D8C4059";
guideLines = (
{
position = "{0, 221}";
},
{
position = "{0, 482}";
},
{
angle = 90;
position = "{399, 0}";
},
{
angle = 90;
position = "{716, 0}";
}
);
hints = (
{
horizontal = 1;
place = "{-2147483648, 0}";
type = Tag;
name = hr00;
}
);
layerId = "C8661A60-250B-4546-9DD9-B81FEB4FFE9A";
name = tempoutline;
paths = (
{
closed = 1;
nodes = (
"424 40 LINE SMOOTH",
"589 40 OFFCURVE",
"666 98 OFFCURVE",
"666 220 CURVE SMOOTH",
"666 265 OFFCURVE",
"636 311 OFFCURVE",
"596 328 CURVE",
"593 401 LINE",
"627 418 OFFCURVE",
"651 455 OFFCURVE",
"651 490 CURVE SMOOTH",
"651 608 OFFCURVE",
"581 660 OFFCURVE",
"414 660 CURVE SMOOTH",
"82 660 LINE SMOOTH",
"89 660 OFFCURVE",
"95 666 OFFCURVE",
"95 673 CURVE SMOOTH",
"95 27 LINE SMOOTH",
"95 34 OFFCURVE",
"89 40 OFFCURVE",
"82 40 CURVE SMOOTH"
);
},
{
closed = 1;
nodes = (
"389 568 LINE SMOOTH",
"436 568 OFFCURVE",
"470 530 OFFCURVE",
"470 482 CURVE SMOOTH",
"470 434 OFFCURVE",
"437 397 OFFCURVE",
"389 397 CURVE SMOOTH",
"265 397 LINE",
"265 568 LINE"
);
},
{
closed = 1;
nodes = (
"398 310 LINE SMOOTH",
"447 310 OFFCURVE",
"484 271 OFFCURVE",
"484 221 CURVE SMOOTH",
"484 171 OFFCURVE",
"448 132 OFFCURVE",
"398 132 CURVE SMOOTH",
"265 132 LINE",
"265 310 LINE"
);
}
);
width = 734;
}
);
leftKerningGroup = I;
unicode = 0042;
userData = {
com.typemytype.robofont.guides = (
{
angle = 0;
isGlobal = 0;
magnetic = 5;
x = 0;
y = 271;
},
{
angle = 0;
isGlobal = 0;
magnetic = 5;
x = 0;
y = 437;
},
{
angle = 0;
isGlobal = 0;
magnetic = 5;
x = 0;
y = 521;
},
{
angle = 0;
isGlobal = 0;
magnetic = 5;
x = 0;
y = 198;
},
{
angle = 0;
isGlobal = 0;
magnetic = 5;
x = 0;
y = 9;
},
{
angle = 90;
isGlobal = 0;
magnetic = 5;
x = 355;
y = 0;
},
{
angle = 90;
isGlobal = 0;
magnetic = 5;
x = 583;
y = 0;
},
{
angle = 90;
isGlobal = 0;
magnetic = 5;
x = 94;
y = 0;
}
);
};
},
{
color = 1;
glyphname = C;
layers = (
{
anchors = (
{
name = bottom;
position = "{367, 0}";
},
{
name = top;
position = "{367, 700}";
}
);
guideLines = (
{
position = "{0, 434}";
},
{
position = "{0, 266}";
},
{
position = "{0, 710}";
},
{
position = "{0, -10}";
},
{
angle = 90;
position = "{383, 0}";
}
);
layerId = "EC64484B-0978-4CB1-9EE9-C40A2D8C4059";
paths = (
{
closed = 1;
nodes = (
"375.58 -31.897 OFFCURVE",
"440.055 -28.167 OFFCURVE",
"436.475 33.729 CURVE",
"449.485 -31.995 OFFCURVE",
"512.809 -19.46 OFFCURVE",
"499.799 46.264 CURVE",
"537.249 -14.056 OFFCURVE",
"665.522 65.583 OFFCURVE",
"628.072 125.903 CURVE",
"693.729 98.88 OFFCURVE",
"738.529 207.726 OFFCURVE",
"672.873 234.75 CURVE",
"666.14 308.443 OFFCURVE",
"592.267 301.693 OFFCURVE",
"599 228 CURVE",
"599 307 OFFCURVE",
"547 307 OFFCURVE",
"547 228 CURVE",
"547 292 OFFCURVE",
"483 292 OFFCURVE",
"483 228 CURVE",
"440.95 278.87 OFFCURVE",
"341.136 196.362 OFFCURVE",
"383.187 145.492 CURVE",
"417.891 200.452 OFFCURVE",
"298.488 275.847 OFFCURVE",
"263.784 220.887 CURVE",
"323.603 225.539 OFFCURVE",
"315.452 330.362 OFFCURVE",
"255.633 325.71 CURVE",
"333.633 325.545 OFFCURVE",
"333.761 386.27 OFFCURVE",
"255.761 386.435 CURVE",
"322.698 383.533 OFFCURVE",
"325.683 452.353 OFFCURVE",
"258.745 455.256 CURVE",
"331.118 432.055 OFFCURVE",
"347.161 482.102 OFFCURVE",
"274.789 505.303 CURVE",
"297.181 443.217 OFFCURVE",
"425.546 489.512 OFFCURVE",
"403.155 551.598 CURVE",
"357.021 507.239 OFFCURVE",
"436.707 424.365 OFFCURVE",
"482.841 468.724 CURVE",
"485.324 389.763 OFFCURVE",
"589.484 393.039 OFFCURVE",
"587 472 CURVE",
"587 411 OFFCURVE",
"671 411 OFFCURVE",
"671 472 CURVE",
"715.386 537.352 OFFCURVE",
"712.213 539.507 OFFCURVE",
"667.827 474.155 CURVE",
"736.585 504.11 OFFCURVE",
"689.014 613.306 OFFCURVE",
"620.255 583.351 CURVE",
"660.174 642.066 OFFCURVE",
"574.065 700.61 OFFCURVE",
"534.146 641.895 CURVE",
"552.366 706.37 OFFCURVE",
"478.665 727.198 OFFCURVE",
"460.445 662.723 CURVE",
"468.237 731.281 OFFCURVE",
"412.087 737.663 OFFCURVE",
"404.295 669.105 CURVE",
"399.792 731.943 OFFCURVE",
"263.386 722.169 OFFCURVE",
"267.888 659.33 CURVE",
"247.028 715.587 OFFCURVE",
"167.875 686.236 OFFCURVE",
"188.735 629.979 CURVE",
"148.516 687.272 OFFCURVE",
"108.979 659.517 OFFCURVE",
"149.197 602.224 CURVE",
"79.767 639.913 OFFCURVE",
"11.834 514.768 OFFCURVE",
"81.264 477.079 CURVE",
"11.388 481.252 OFFCURVE",
"5.854 388.574 OFFCURVE",
"75.73 384.401 CURVE",
"1.731 383.948 OFFCURVE",
"2.351 282.773 OFFCURVE",
"76.349 283.226 CURVE",
"15.317 272.313 OFFCURVE",
"36.412 154.338 OFFCURVE",
"97.444 165.251 CURVE",
"50.133 123.649 OFFCURVE",
"130.99 31.695 OFFCURVE",
"178.301 73.296 CURVE",
"150.139 12.502 OFFCURVE",
"197.443 -9.411 OFFCURVE",
"225.605 51.383 CURVE",
"212.932 -24.567 OFFCURVE",
"339.241 -45.642 OFFCURVE",
"351.914 30.308 CURVE"
);
}
);
width = 733;
},
{
anchors = (
{
name = bottom;
position = "{367, 0}";
},
{
name = top;
position = "{367, 700}";
}
);
associatedMasterId = "EC64484B-0978-4CB1-9EE9-C40A2D8C4059";
guideLines = (
{
position = "{0, 434}";
},
{
position = "{0, 266}";
},
{
position = "{0, 710}";
},
{
position = "{0, -10}";
},
{
angle = 90;
position = "{383, 0}";
}
);
layerId = "F171227A-F18A-4346-B021-3D6288E418E9";
name = tempoutline;
paths = (
{
closed = 1;
nodes = (
"554 30 OFFCURVE",
"667 112 OFFCURVE",
"669 246 CURVE SMOOTH",
"669 235 OFFCURVE",
"678 228 OFFCURVE",
"687 228 CURVE SMOOTH",
"483 228 LINE SMOOTH",
"474 228 OFFCURVE",
"487 238 OFFCURVE",
"484 227 CURVE SMOOTH",
"467 174 OFFCURVE",
"426 145 OFFCURVE",
"371 145 CURVE SMOOTH",
"300 145 OFFCURVE",
"260 188 OFFCURVE",
"257 265 CURVE SMOOTH",
"255 323 OFFCURVE",
"255 380 OFFCURVE",
"257 435 CURVE SMOOTH",
"260 512 OFFCURVE",
"300 555 OFFCURVE",
"371 555 CURVE SMOOTH",
"427 555 OFFCURVE",
"465 528 OFFCURVE",
"484 474 CURVE SMOOTH",
"489 461 OFFCURVE",
"478 472 OFFCURVE",
"483 472 CURVE SMOOTH",
"687 472 LINE SMOOTH",
"676 472 OFFCURVE",
"669 463 OFFCURVE",
"669 454 CURVE SMOOTH",
"667 588 OFFCURVE",
"554 670 OFFCURVE",
"372 670 CURVE SMOOTH",
"188 670 OFFCURVE",
"83 586 OFFCURVE",
"77 437 CURVE SMOOTH",
"75 382 OFFCURVE",
"75 316 OFFCURVE",
"77 263 CURVE SMOOTH",
"83 109 OFFCURVE",
"183 30 OFFCURVE",
"372 30 CURVE SMOOTH"
);
}
);
width = 733;
}
);
leftKerningGroup = O;
rightKerningGroup = C;
unicode = 0043;
userData = {
com.typemytype.robofont.guides = (
{
angle = 0;
isGlobal = 0;
magnetic = 5;
x = 0;
y = 434;
},
{
angle = 0;
isGlobal = 0;
magnetic = 5;
x = 0;
y = 266;
},
{
angle = 0;
isGlobal = 0;
magnetic = 5;
x = 0;
y = 710;
},
{
angle = 0;
isGlobal = 0;
magnetic = 5;
x = 0;
y = "-10";
},
{
angle = 90;
isGlobal = 0;
magnetic = 5;
x = 599;
y = 0;
},
{
angle = 90;
isGlobal = 0;
magnetic = 5;
x = 209;
y = 0;
},
{
angle = 90;
isGlobal = 0;
magnetic = 5;
x = 149;
y = 0;
},
{
angle = 90;
isGlobal = 0;
magnetic = 5;
x = 332;
y = 0;
}
);
};
},
{
color = 1;
glyphname = Ccedilla;
layers = (
{
guideLines = (
{
position = "{0, -220}";
},
{
angle = 90;
position = "{719, 0}";
}
);
hints = (
{
horizontal = 1;
place = "{-2147483648, 0}";
type = Tag;
name = hr00;
}
);
layerId = "EC64484B-0978-4CB1-9EE9-C40A2D8C4059";
paths = (
{
closed = 1;
nodes = (
"429.248 -204.973 OFFCURVE",
"467.04 -109.26 OFFCURVE",
"403.791 -84.287 CURVE",
"454.483 -23.696 OFFCURVE",
"373.986 43.65 OFFCURVE",
"323.294 -16.941 CURVE",
"366.458 -69.485 OFFCURVE",
"423.185 -22.885 OFFCURVE",
"380.022 29.659 CURVE",
"386.056 -48.107 OFFCURVE",
"453.857 -42.846 OFFCURVE",
"447.823 34.92 CURVE",
"468.046 -40.412 OFFCURVE",
"556.733 -16.604 OFFCURVE",
"536.51 58.729 CURVE",
"566.191 6.584 OFFCURVE",
"621.706 38.184 OFFCURVE",
"592.025 90.328 CURVE",
"644.504 57.313 OFFCURVE",
"717.419 173.213 OFFCURVE",
"664.941 206.229 CURVE",
"734.579 199.122 OFFCURVE",
"738.638 238.893 OFFCURVE",
"669 246 CURVE",
"624.673 300.177 OFFCURVE",
"602.673 282.177 OFFCURVE",
"647 228 CURVE",
"647 307 OFFCURVE",
"571 307 OFFCURVE",
"571 228 CURVE",
"571 302 OFFCURVE",
"507 302 OFFCURVE",
"507 228 CURVE",
"455.413 287.832 OFFCURVE",
"370.91 214.973 OFFCURVE",
"422.497 155.142 CURVE",
"432.195 228.503 OFFCURVE",
"301.972 245.718 OFFCURVE",
"292.274 172.357 CURVE",
"349.788 210.475 OFFCURVE",
"325.269 247.472 OFFCURVE",
"267.754 209.353 CURVE",
"344.283 217.852 OFFCURVE",
"332.26 326.113 OFFCURVE",
"255.73 317.614 CURVE",
"320.73 317.804 OFFCURVE",
"320.576 370.433 OFFCURVE",
"255.576 370.243 CURVE",
"325.312 356.905 OFFCURVE",
"353.708 505.375 OFFCURVE",
"283.971 518.712 CURVE",
"304.757 447.691 OFFCURVE",
"419.977 481.412 OFFCURVE",
"399.192 552.433 CURVE",
"367.448 498.014 OFFCURVE",
"429.12 462.04 OFFCURVE",
"460.863 516.458 CURVE",
"433.325 453.192 OFFCURVE",
"535.461 408.734 OFFCURVE",
"563 472 CURVE",
"563 397 OFFCURVE",
"679 397 OFFCURVE",
"679 472 CURVE",
"733.713 507.092 OFFCURVE",
"719.529 529.207 OFFCURVE",
"664.816 494.115 CURVE",
"721.083 514.949 OFFCURVE",
"700.137 571.518 OFFCURVE",
"643.87 550.684 CURVE",
"700.02 601.901 OFFCURVE",
"643.308 664.076 OFFCURVE",
"587.158 612.859 CURVE",
"616.691 682.886 OFFCURVE",
"505.828 729.641 OFFCURVE",
"476.295 659.614 CURVE",
"482.063 722.349 OFFCURVE",
"369.701 732.681 OFFCURVE",
"363.932 669.946 CURVE",
"357.541 746.68 OFFCURVE",
"285.253 740.659 OFFCURVE",
"291.643 663.925 CURVE",
"272.258 727.014 OFFCURVE",
"180.066 698.687 OFFCURVE",
"199.451 635.598 CURVE",
"146.649 690.261 OFFCURVE",
"49.752 596.662 OFFCURVE",
"102.554 542 CURVE",
"30.748 555.148 OFFCURVE",
"4.112 409.691 OFFCURVE",
"75.918 396.542 CURVE",
"-1.081 396.796 OFFCURVE",
"-1.335 319.899 OFFCURVE",
"75.664 319.645 CURVE",
"5.756 316.062 OFFCURVE",
"10.508 223.362 OFFCURVE",
"80.416 226.946 CURVE",
"18.534 196.424 OFFCURVE",
"81.394 68.978 OFFCURVE",
"143.276 99.5 CURVE",
"110.028 31.158 OFFCURVE",
"228.073 -26.271 OFFCURVE",
"261.321 42.071 CURVE",
"251.169 -21.119 OFFCURVE",
"298.842 -28.778 OFFCURVE",
"308.994 34.411 CURVE",
"259.152 1.008 OFFCURVE",
"290.334 -45.521 OFFCURVE",
"340.176 -12.118 CURVE",
"270.211 -14.305 OFFCURVE",
"271.994 -71.357 OFFCURVE",
"341.96 -69.17 CURVE",
"343.101 -145.162 OFFCURVE",
"387.007 -144.503 OFFCURVE",
"385.866 -68.511 CURVE",
"337.034 -121.421 OFFCURVE",
"382.223 -163.127 OFFCURVE",
"431.055 -110.216 CURVE",
"370.464 -66.014 OFFCURVE",
"309.415 -149.697 OFFCURVE",
"370.006 -193.899 CURVE",
"411.306 -146.325 OFFCURVE",
"386.255 -124.578 OFFCURVE",
"344.955 -172.152 CURVE",
"410.362 -212.783 OFFCURVE",
"448.205 -151.862 OFFCURVE",
"382.798 -111.231 CURVE",
"350.791 -50.104 OFFCURVE",
"304.924 -74.121 OFFCURVE",
"336.931 -135.248 CURVE",
"268.758 -101.655 OFFCURVE",
"252.38 -134.892 OFFCURVE",
"320.552 -168.486 CURVE"
);
}
);
width = 733;
},
{
associatedMasterId = "EC64484B-0978-4CB1-9EE9-C40A2D8C4059";
guideLines = (
{
position = "{0, -220}";
},
{
angle = 90;
position = "{719, 0}";
}
);
hints = (
{
horizontal = 1;
place = "{-2147483648, 0}";
type = Tag;
name = hr00;
}
);
layerId = "BD0C7B04-34E0-456D-8BD7-8DC7D8C960B6";
name = tempoutline;
paths = (
{
closed = 1;
nodes = (
"403 -180 OFFCURVE",
"425 -161 OFFCURVE",
"425 -130 CURVE SMOOTH",
"425 -97 OFFCURVE",
"410 -80 OFFCURVE",
"384 -80 CURVE SMOOTH",
"381 -80 OFFCURVE",
"370 -82 OFFCURVE",
"368 -82 CURVE",
"318 -27 LINE",
"348 30 LINE",
"545 23 OFFCURVE",
"667 106 OFFCURVE",
"669 246 CURVE SMOOTH",
"669 235 OFFCURVE",
"678 228 OFFCURVE",
"687 228 CURVE SMOOTH",
"483 228 LINE SMOOTH",
"474 228 OFFCURVE",
"487 238 OFFCURVE",
"484 227 CURVE SMOOTH",
"467 174 OFFCURVE",
"426 145 OFFCURVE",
"371 145 CURVE SMOOTH",
"300 145 OFFCURVE",
"260 188 OFFCURVE",
"257 265 CURVE SMOOTH",
"255 323 OFFCURVE",
"255 380 OFFCURVE",
"257 435 CURVE SMOOTH",
"260 512 OFFCURVE",
"300 555 OFFCURVE",
"371 555 CURVE SMOOTH",
"427 555 OFFCURVE",
"465 528 OFFCURVE",
"484 474 CURVE SMOOTH",
"489 461 OFFCURVE",
"478 472 OFFCURVE",
"483 472 CURVE SMOOTH",
"687 472 LINE SMOOTH",
"676 472 OFFCURVE",
"669 463 OFFCURVE",
"669 454 CURVE SMOOTH",
"667 588 OFFCURVE",
"554 670 OFFCURVE",
"372 670 CURVE SMOOTH",
"188 670 OFFCURVE",
"83 586 OFFCURVE",
"77 437 CURVE SMOOTH",
"75 382 OFFCURVE",
"75 316 OFFCURVE",
"77 263 CURVE SMOOTH",
"83 125 OFFCURVE",
"161 49 OFFCURVE",
"313 34 CURVE",
"346 -22 LINE",
"326 -67 LINE",
"323 -61 OFFCURVE",
"321 -58 OFFCURVE",
"319 -57 CURVE",
"340 -78 LINE SMOOTH",
"330 -68 OFFCURVE",
"320 -74 OFFCURVE",
"338 -70 CURVE SMOOTH",
"347 -68 OFFCURVE",
"360 -66 OFFCURVE",
"366 -66 CURVE SMOOTH",
"404 -66 OFFCURVE",
"434 -92 OFFCURVE",
"434 -130 CURVE SMOOTH",
"434 -167 OFFCURVE",
"404 -194 OFFCURVE",
"366 -194 CURVE SMOOTH",
"352 -194 OFFCURVE",
"335 -191 OFFCURVE",
"321 -186 CURVE SMOOTH",
"311 -182 OFFCURVE",
"328 -189 OFFCURVE",
"336 -181 CURVE",
"315 -199 LINE SMOOTH",
"530 -13 OFFCURVE",
"203 -180 OFFCURVE",
"366 -180 CURVE SMOOTH"
);
}
);
width = 733;
}
);
leftKerningGroup = O;
rightKerningGroup = C;
unicode = 00C7;
userData = {
com.typemytype.robofont.guides = (
{
angle = 0;
isGlobal = 0;
magnetic = 5;
x = 0;
y = "-174";
},
{
angle = 0;
isGlobal = 0;
magnetic = 5;
x = 0;
y = "-220";
},
{
angle = 0;
isGlobal = 0;
magnetic = 5;
x = 0;
y = "-96";
},
{
angle = 0;
isGlobal = 0;
magnetic = 5;
x = 0;
y = "-50";
},
{
angle = 0;
isGlobal = 0;
magnetic = 5;
x = 0;
y = "-135";
},
{
angle = 90;
isGlobal = 0;
magnetic = 5;
x = 331;
y = 0;
},
{
angle = 90;
isGlobal = 0;
magnetic = 5;
x = 342;
y = 0;
}
);
};
},
{
color = 1;
glyphname = D;
layers = (
{
guideLines = (
{
angle = 90;
position = "{380, 0}";
}
);
hints = (
{
horizontal = 1;
place = "{-2147483648, 0}";
type = Tag;
name = hr00;
}
);
layerId = "EC64484B-0978-4CB1-9EE9-C40A2D8C4059";
paths = (
{
closed = 1;
nodes = (
"82 -29 OFFCURVE",
"177.027 -29 OFFCURVE",
"177.027 40 CURVE",
"177.027 -27 OFFCURVE",
"240.378 -27 OFFCURVE",
"240.378 40 CURVE",
"240.48 -31 OFFCURVE",
"391.244 -30.784 OFFCURVE",
"391.142 40.216 CURVE",
"405.342 -27.307 OFFCURVE",
"554.331 4.024 OFFCURVE",
"540.132 71.548 CURVE",
"579.324 19.692 OFFCURVE",
"649.627 72.826 OFFCURVE",
"610.436 124.682 CURVE",
"674.09 98.051 OFFCURVE",
"724.783 219.222 OFFCURVE",
"661.129 245.852 CURVE",
"725.074 243.194 OFFCURVE",
"729.444 348.342 OFFCURVE",
"665.5 351 CURVE",
"739.478 352.769 OFFCURVE",
"737.54 433.81 OFFCURVE",
"663.561 432.04 CURVE",
"723.077 445.411 OFFCURVE",
"705.508 523.619 OFFCURVE",
"645.991 510.249 CURVE",
"702.555 553.161 OFFCURVE",
"635.215 641.925 OFFCURVE",
"578.651 599.012 CURVE",
"605.041 663.847 OFFCURVE",
"468.567 719.398 OFFCURVE",
"442.176 654.564 CURVE",
"447.438 717.344 OFFCURVE",
"383.312 722.718 OFFCURVE",
"378.05 659.938 CURVE",
"378.106 720.938 OFFCURVE",
"310.056 721 OFFCURVE",
"310 660 CURVE",
"310 721 OFFCURVE",
"222 721 OFFCURVE",
"222 660 CURVE",
"222 732 OFFCURVE",
"94 732 OFFCURVE",
"94 660 CURVE",
"28.01 658.877 OFFCURVE",
"29.01 600.1 OFFCURVE",
"95 601.222 CURVE",
"16 601.222 OFFCURVE",
"16 481.593 OFFCURVE",
"95 481.593 CURVE",
"20 481.593 OFFCURVE",
"20 377.914 OFFCURVE",
"95 377.914 CURVE",
"23 377.914 OFFCURVE",
"23 242.333 OFFCURVE",
"95 242.333 CURVE",
"19 242.333 OFFCURVE",
"19 182.519 OFFCURVE",
"95 182.519 CURVE",
"21 182.519 OFFCURVE",
"21 46.938 OFFCURVE",
"95 46.938 CURVE"
);
},
{
closed = 1;
nodes = (
"265 513 OFFCURVE",
"305 513 OFFCURVE",
"305 545 CURVE",
"305 512.5 OFFCURVE",
"357 512.5 OFFCURVE",
"357 545 CURVE",
"351.723 507.368 OFFCURVE",
"407.842 499.499 OFFCURVE",
"413.119 537.131 CURVE",
"393.869 513.473 OFFCURVE",
"452.823 465.504 OFFCURVE",
"472.072 489.162 CURVE",
"440.246 480.441 OFFCURVE",
"458.382 414.256 OFFCURVE",
"490.208 422.977 CURVE",
"453.723 421.949 OFFCURVE",
"455.764 349.473 OFFCURVE",
"492.25 350.5 CURVE",
"454.755 351.144 OFFCURVE",
"454.064 310.866 OFFCURVE",
"491.559 310.223 CURVE",
"459.106 311.988 OFFCURVE",
"456.483 263.752 OFFCURVE",
"488.935 261.987 CURVE",
"457.003 270.314 OFFCURVE",
"446.89 231.533 OFFCURVE",
"478.822 223.206 CURVE",
"453.261 243.278 OFFCURVE",
"416.485 196.447 OFFCURVE",
"442.046 176.374 CURVE",
"428.964 212.052 OFFCURVE",
"372.972 191.521 OFFCURVE",
"386.053 155.843 CURVE",
"385.576 191.34 OFFCURVE",
"322.856 190.497 OFFCURVE",
"323.333 155 CURVE",
"323.333 185 OFFCURVE",
"268.889 185 OFFCURVE",
"268.889 155 CURVE",
"303.187 158.724 OFFCURVE",
"299.298 194.54 OFFCURVE",
"265 190.816 CURVE",
"301 190.816 OFFCURVE",
"301 246.531 OFFCURVE",
"265 246.531 CURVE",
"296.5 246.531 OFFCURVE",
"296.5 286.327 OFFCURVE",
"265 286.327 CURVE",
"295 286.327 OFFCURVE",
"295 361.939 OFFCURVE",
"265 361.939 CURVE",
"300.5 361.939 OFFCURVE",
"300.5 433.571 OFFCURVE",
"265 433.571 CURVE",
"296.5 433.571 OFFCURVE",
"296.5 493.265 OFFCURVE",
"265 493.265 CURVE",
"302 493.265 OFFCURVE",
"302 537.041 OFFCURVE",
"265 537.041 CURVE"
);
}
);
width = 740;
},
{
associatedMasterId = "EC64484B-0978-4CB1-9EE9-C40A2D8C4059";
guideLines = (
{
angle = 90;
position = "{380, 0}";
}
);
hints = (
{
horizontal = 1;
place = "{-2147483648, 0}";
type = Tag;
name = hr00;
}
);
layerId = "EBAC9C9A-9A29-4861-A6EA-7C427B4FDC8C";
name = tempoutline;
paths = (
{
closed = 1;
nodes = (
"375 40 LINE SMOOTH",
"559 40 OFFCURVE",
"657 122 OFFCURVE",
"664 278 CURVE SMOOTH",
"666 331 OFFCURVE",
"666 368 OFFCURVE",
"664 424 CURVE SMOOTH",
"658 570 OFFCURVE",
"548 660 OFFCURVE",
"370 660 CURVE SMOOTH",
"82 660 LINE SMOOTH",
"89 660 OFFCURVE",
"95 666 OFFCURVE",
"95 673 CURVE SMOOTH",
"95 27 LINE SMOOTH",
"95 34 OFFCURVE",
"89 40 OFFCURVE",
"82 40 CURVE SMOOTH"
);
},
{
closed = 1;
nodes = (
"365 545 LINE SMOOTH",
"437 545 OFFCURVE",
"486 499 OFFCURVE",
"490 427 CURVE SMOOTH",
"493 370 OFFCURVE",
"493 332 OFFCURVE",
"490 274 CURVE SMOOTH",
"486 201 OFFCURVE",
"440 155 OFFCURVE",
"370 155 CURVE SMOOTH",
"265 155 LINE",
"265 545 LINE"
);
}
);
width = 740;
}
);
leftKerningGroup = I;
rightKerningGroup = D;
unicode = 0044;
userData = {
com.typemytype.robofont.guides = (
{
angle = 0;
isGlobal = 0;
magnetic = 5;
x = 0;
y = 425;
},
{
angle = 0;
isGlobal = 0;
magnetic = 5;
x = 0;
y = 276;
},
{
angle = 0;
isGlobal = 0;
magnetic = 5;
x = 0;
y = 9;
},
{
angle = 90;
isGlobal = 0;
magnetic = 5;
x = 320;
y = 0;
},
{
angle = 90;
isGlobal = 0;
magnetic = 5;
x = 603;
y = 0;
},
{
angle = 90;
isGlobal = 0;
magnetic = 5;
x = 94;
y = 0;
}
);
};
},
{
color = 1;
glyphname = Eth;
layers = (
{
guideLines = (
{
position = "{0, 350}";
}
);
hints = (
{
horizontal = 1;
place = "{-2147483648, 0}";
type = Tag;
name = hr00;
}
);
layerId = "EC64484B-0978-4CB1-9EE9-C40A2D8C4059";
paths = (
{
closed = 1;
nodes = (
"106 -22 OFFCURVE",
"240.603 -22 OFFCURVE",
"240.603 40 CURVE",
"240.603 -39 OFFCURVE",
"299.986 -39 OFFCURVE",
"299.986 40 CURVE",
"300.191 -30 OFFCURVE",
"415.384 -29.664 OFFCURVE",
"415.18 40.336 CURVE",
"427.495 -23.486 OFFCURVE",
"565.48 3.139 OFFCURVE",
"553.165 66.962 CURVE",
"591.007 17.85 OFFCURVE",
"688.743 93.159 OFFCURVE",
"650.901 142.271 CURVE",
"720.253 106.574 OFFCURVE",
"744.196 153.09 OFFCURVE",
"674.844 188.788 CURVE",
"747.402 169.805 OFFCURVE",
"757.604 208.802 OFFCURVE",
"685.046 227.784 CURVE",
"762.786 221.41 OFFCURVE",
"766.739 269.626 OFFCURVE",
"689 276 CURVE",
"756 276 OFFCURVE",
"756 334.816 OFFCURVE",
"689 334.816 CURVE",
"752.987 336.098 OFFCURVE",
"750.461 462.203 OFFCURVE",
"686.474 460.921 CURVE",
"746.029 484.356 OFFCURVE",
"709.719 576.629 OFFCURVE",
"650.164 553.194 CURVE",
"699.352 611.13 OFFCURVE",
"617.713 680.441 OFFCURVE",
"568.526 622.505 CURVE",
"586.166 679.853 OFFCURVE",
"479.495 712.664 OFFCURVE",
"461.855 655.316 CURVE",
"465.125 722.236 OFFCURVE",
"369.27 726.92 OFFCURVE",
"366 660 CURVE",
"366 735 OFFCURVE",
"282 735 OFFCURVE",
"282 660 CURVE",
"282 737 OFFCURVE",
"174 737 OFFCURVE",
"174 660 CURVE",
"129.461 722.811 OFFCURVE",
"74.461 683.811 OFFCURVE",
"119 621 CURVE",
"58 621 OFFCURVE",
"58 565 OFFCURVE",
"119 565 CURVE",
"42 565 OFFCURVE",
"42 469 OFFCURVE",
"119 469 CURVE",
"60.718 505.936 OFFCURVE",
"10.018 425.936 OFFCURVE",
"68.3 389 CURVE",
"10.133 407.374 OFFCURVE",
"-4.167 362.105 OFFCURVE",
"54 343.731 CURVE",
"15.516 274.738 OFFCURVE",
"68.816 245.007 OFFCURVE",
"107.3 314 CURVE",
"44.968 304.852 OFFCURVE",
"56.668 225.13 OFFCURVE",
"119 234.278 CURVE",
"41 234.278 OFFCURVE",
"41 86.792 OFFCURVE",
"119 86.792 CURVE"
);
},
{
closed = 1;
nodes = (
"289 283.5 OFFCURVE",
"329 283.5 OFFCURVE",
"329 314 CURVE",
"329 279.5 OFFCURVE",
"385 279.5 OFFCURVE",
"385 314 CURVE",
"417.069 337.062 OFFCURVE",
"404.069 355.139 OFFCURVE",
"372 332.077 CURVE",
"402.5 332.077 OFFCURVE",
"402.5 378.692 OFFCURVE",
"372 378.692 CURVE",
"389.557 404.241 OFFCURVE",
"374.557 414.549 OFFCURVE",
"357 389 CURVE",
"358.791 419.447 OFFCURVE",
"290.791 423.447 OFFCURVE",
"289 393 CURVE",
"322 393 OFFCURVE",
"322 461 OFFCURVE",
"289 461 CURVE",
"325 461 OFFCURVE",
"325 521 OFFCURVE",
"289 521 CURVE",
"321.727 499.788 OFFCURVE",
"337.283 523.788 OFFCURVE",
"304.556 545 CURVE",
"304.556 509 OFFCURVE",
"347.333 509 OFFCURVE",
"347.333 545 CURVE",
"347.333 513.5 OFFCURVE",
"390.111 513.5 OFFCURVE",
"390.111 545 CURVE",
"382.579 508.775 OFFCURVE",
"444.499 495.9 OFFCURVE",
"452.031 532.125 CURVE",
"429.831 510.489 OFFCURVE",
"473.722 465.454 OFFCURVE",
"495.922 487.091 CURVE",
"464.532 480.872 OFFCURVE",
"477.61 414.86 OFFCURVE",
"509 421.079 CURVE",
"474 421.079 OFFCURVE",
"474 366.184 OFFCURVE",
"509 366.184 CURVE",
"469.5 366.184 OFFCURVE",
"469.5 323.053 OFFCURVE",
"509 323.053 CURVE",
"475 323.164 OFFCURVE",
"474.82 268.094 OFFCURVE",
"508.82 267.983 CURVE",
"476.379 276.339 OFFCURVE",
"461.502 218.581 OFFCURVE",
"493.943 210.225 CURVE",
"466.46 232.696 OFFCURVE",
"441.245 201.858 OFFCURVE",
"468.728 179.387 CURVE",
"455.338 212.804 OFFCURVE",
"396.618 189.276 OFFCURVE",
"410.008 155.859 CURVE",
"409.539 194.356 OFFCURVE",
"339.086 193.497 OFFCURVE",
"339.556 155 CURVE",
"342.377 190.889 OFFCURVE",
"291.822 194.864 OFFCURVE",
"289 158.975 CURVE",
"326.5 158.975 OFFCURVE",
"326.5 210.65 OFFCURVE",
"289 210.65 CURVE",
"321.5 210.65 OFFCURVE",
"321.5 286.175 OFFCURVE",
"289 286.175 CURVE"
);
}
);
width = 766;
},
{
associatedMasterId = "EC64484B-0978-4CB1-9EE9-C40A2D8C4059";
guideLines = (
{
position = "{0, 350}";
}
);
hints = (
{
horizontal = 1;
place = "{-2147483648, 0}";
type = Tag;
name = hr00;
}
);
layerId = "BD308961-CB97-4288-B350-C9B60B26058D";
name = tempoutline;
paths = (
{
closed = 1;
nodes = (
"395 40 LINE SMOOTH",
"583 40 OFFCURVE",
"689 125 OFFCURVE",
"689 276 CURVE SMOOTH",
"689 425 LINE SMOOTH",
"689 568 OFFCURVE",
"575 660 OFFCURVE",
"394 660 CURVE SMOOTH",
"106 660 LINE SMOOTH",
"113 660 OFFCURVE",
"119 666 OFFCURVE",
"119 673 CURVE SMOOTH",
"119 389 LINE",
"41 389 LINE SMOOTH",
"48 389 OFFCURVE",
"54 395 OFFCURVE",
"54 402 CURVE SMOOTH",
"54 301 LINE SMOOTH",
"54 308 OFFCURVE",
"48 314 OFFCURVE",
"41 314 CURVE SMOOTH",
"119 314 LINE",
"119 27 LINE SMOOTH",
"119 34 OFFCURVE",
"113 40 OFFCURVE",
"106 40 CURVE SMOOTH"
);
},
{
closed = 1;
nodes = (
"385 314 LINE SMOOTH",
"378 314 OFFCURVE",
"372 308 OFFCURVE",
"372 301 CURVE SMOOTH",
"372 402 LINE SMOOTH",
"372 395 OFFCURVE",
"378 389 OFFCURVE",
"385 389 CURVE SMOOTH",
"289 389 LINE",
"289 545 LINE",
"394 545 LINE SMOOTH",
"465 545 OFFCURVE",
"509 499 OFFCURVE",
"509 425 CURVE SMOOTH",
"509 276 LINE SMOOTH",
"509 202 OFFCURVE",
"464 155 OFFCURVE",
"394 155 CURVE SMOOTH",
"289 155 LINE",
"289 314 LINE"
);
}
);
width = 766;
}
);
leftKerningGroup = I;
rightKerningGroup = D;
unicode = 00D0;
userData = {
com.typemytype.robofont.guides = (
{
angle = 0;
isGlobal = 0;
magnetic = 5;
x = 0;
y = 350;
}
);
};
},
{
color = 1;
glyphname = Dcroat;
layers = (
{
guideLines = (
{
position = "{0, 352}";
}
);
hints = (
{
horizontal = 1;
place = "{-2147483648, 0}";
type = Tag;
name = hr00;
}
);
layerId = "EC64484B-0978-4CB1-9EE9-C40A2D8C4059";
paths = (
{
closed = 1;
nodes = (
"106 -27 OFFCURVE",
"232.685 -27 OFFCURVE",
"232.685 40 CURVE",
"232.685 -34 OFFCURVE",
"331.658 -34 OFFCURVE",
"331.658 40 CURVE",
"334.387 -24.943 OFFCURVE",
"477.904 -18.911 OFFCURVE",
"475.175 46.031 CURVE",
"503.131 -23.564 OFFCURVE",
"632.478 28.394 OFFCURVE",
"604.522 97.989 CURVE",
"658.463 47.33 OFFCURVE",
"702.355 94.066 OFFCURVE",
"648.413 144.725 CURVE",
"704.107 122.403 OFFCURVE",
"738.307 207.733 OFFCURVE",
"682.614 230.055 CURVE",
"752.288 223.31 OFFCURVE",
"758.107 283.417 OFFCURVE",
"688.433 290.163 CURVE",
"757.428 289.376 OFFCURVE",
"758.353 370.496 OFFCURVE",
"689.357 371.282 CURVE",
"758.873 379.503 OFFCURVE",
"743.774 507.175 OFFCURVE",
"674.258 498.954 CURVE",
"732.148 532.686 OFFCURVE",
"689.864 605.252 OFFCURVE",
"631.974 571.52 CURVE",
"671.661 630.393 OFFCURVE",
"575.796 695.015 OFFCURVE",
"536.11 636.142 CURVE",
"551.299 702.424 OFFCURVE",
"457.415 723.938 OFFCURVE",
"442.227 657.656 CURVE",
"443.247 725.649 OFFCURVE",
"287.02 727.992 OFFCURVE",
"286 660 CURVE",
"286 723 OFFCURVE",
"134 723 OFFCURVE",
"134 660 CURVE",
"157.295 735.487 OFFCURVE",
"139.746 740.903 OFFCURVE",
"116.451 665.415 CURVE",
"56.467 664.05 OFFCURVE",
"59.016 552.057 OFFCURVE",
"119 553.423 CURVE",
"58 553.423 OFFCURVE",
"58 437.831 OFFCURVE",
"119 437.831 CURVE",
"48 437.831 OFFCURVE",
"48 390 OFFCURVE",
"119 390 CURVE",
"119 464 OFFCURVE",
"48.8 464 OFFCURVE",
"48.8 390 CURVE",
"-29.158 387.43 OFFCURVE",
"-26.506 307.014 OFFCURVE",
"51.451 309.585 CURVE",
"63.751 244.741 OFFCURVE",
"92.3 250.156 OFFCURVE",
"80 315 CURVE",
"17.978 284.764 OFFCURVE",
"56.978 204.764 OFFCURVE",
"119 235 CURVE",
"48 235 OFFCURVE",
"48 131 OFFCURVE",
"119 131 CURVE"
);
},
{
closed = 1;
nodes = (
"289 280.5 OFFCURVE",
"365 280.5 OFFCURVE",
"365 315 CURVE",
"338.827 294.901 OFFCURVE",
"345.827 285.786 OFFCURVE",
"372 305.885 CURVE",
"410.5 305.885 OFFCURVE",
"410.5 344.731 OFFCURVE",
"372 344.731 CURVE",
"402 344.731 OFFCURVE",
"402 403 OFFCURVE",
"372 403 CURVE",
"361.248 435.255 OFFCURVE",
"322.248 422.255 OFFCURVE",
"333 390 CURVE",
"338.422 420.014 OFFCURVE",
"294.422 427.963 OFFCURVE",
"289 397.949 CURVE",
"324 397.949 OFFCURVE",
"324 469.487 OFFCURVE",
"289 469.487 CURVE",
"319 469.487 OFFCURVE",
"319 509.231 OFFCURVE",
"289 509.231 CURVE",
"321.799 498.533 OFFCURVE",
"333.466 534.302 OFFCURVE",
"300.667 545 CURVE",
"300.667 510 OFFCURVE",
"351.222 510 OFFCURVE",
"351.222 545 CURVE",
"350.339 513.012 OFFCURVE",
"417.089 511.168 OFFCURVE",
"417.973 543.156 CURVE",
"403.584 510.157 OFFCURVE",
"458.081 486.393 OFFCURVE",
"472.47 519.392 CURVE",
"442.972 501.502 OFFCURVE",
"479.786 440.801 OFFCURVE",
"509.285 458.692 CURVE",
"471.562 454.107 OFFCURVE",
"476.881 410.344 OFFCURVE",
"514.603 414.929 CURVE",
"480.612 414.171 OFFCURVE",
"482.227 341.686 OFFCURVE",
"516.219 342.443 CURVE",
"484.73 343.269 OFFCURVE",
"483.463 294.946 OFFCURVE",
"514.952 294.121 CURVE",
"483.344 299.117 OFFCURVE",
"472.724 231.929 OFFCURVE",
"504.331 226.933 CURVE",
"474.462 247.028 OFFCURVE",
"445.549 204.051 OFFCURVE",
"475.418 183.956 CURVE",
"463.072 214.02 OFFCURVE",
"393.705 185.533 OFFCURVE",
"406.051 155.47 CURVE",
"405.702 187.468 OFFCURVE",
"362.541 186.998 OFFCURVE",
"362.889 155 CURVE",
"362.889 186 OFFCURVE",
"316.222 186 OFFCURVE",
"316.222 155 CURVE",
"334.464 186.036 OFFCURVE",
"307.242 202.036 OFFCURVE",
"289 171 CURVE",
"320.5 171 OFFCURVE",
"320.5 243 OFFCURVE",
"289 243 CURVE"
);
}
);
width = 764;
},
{
associatedMasterId = "EC64484B-0978-4CB1-9EE9-C40A2D8C4059";
guideLines = (
{
position = "{0, 352}";
}
);
hints = (
{
horizontal = 1;
place = "{-2147483648, 0}";
type = Tag;
name = hr00;
}
);
layerId = "F3949AB3-6CFE-4C22-883D-B9BCAF28058D";
name = tempoutline;
paths = (
{
closed = 1;
nodes = (
"395 40 LINE SMOOTH",
"580 40 OFFCURVE",
"682 124 OFFCURVE",
"688 278 CURVE SMOOTH",
"690 331 OFFCURVE",
"690 368 OFFCURVE",
"688 424 CURVE SMOOTH",
"682 570 OFFCURVE",
"572 660 OFFCURVE",
"394 660 CURVE SMOOTH",
"106 660 LINE SMOOTH",
"113 660 OFFCURVE",
"119 666 OFFCURVE",
"119 673 CURVE SMOOTH",
"119 390 LINE",
"41 390 LINE SMOOTH",
"48 390 OFFCURVE",
"54 396 OFFCURVE",
"54 403 CURVE SMOOTH",
"54 302 LINE SMOOTH",
"54 309 OFFCURVE",
"48 315 OFFCURVE",
"41 315 CURVE SMOOTH",
"119 315 LINE",
"119 27 LINE SMOOTH",
"119 34 OFFCURVE",
"113 40 OFFCURVE",
"106 40 CURVE SMOOTH"
);
},
{
closed = 1;
nodes = (
"385 315 LINE SMOOTH",
"378 315 OFFCURVE",
"372 309 OFFCURVE",
"372 302 CURVE SMOOTH",
"372 403 LINE SMOOTH",
"372 396 OFFCURVE",
"378 390 OFFCURVE",
"385 390 CURVE SMOOTH",
"289 390 LINE",
"289 545 LINE",
"394 545 LINE SMOOTH",
"465 545 OFFCURVE",
"510 500 OFFCURVE",
"514 427 CURVE SMOOTH",
"517 370 OFFCURVE",
"517 332 OFFCURVE",
"514 274 CURVE SMOOTH",
"510 201 OFFCURVE",
"464 155 OFFCURVE",
"394 155 CURVE SMOOTH",
"289 155 LINE",
"289 315 LINE"
);
}
);
width = 764;
}
);
leftKerningGroup = I;
rightKerningGroup = D;
unicode = 0110;
userData = {
com.typemytype.robofont.guides = (
{
angle = 0;
isGlobal = 0;
magnetic = 5;
x = 0;
y = 352;
},
{
angle = 90;
isGlobal = 0;
magnetic = 5;
x = 340;
y = 0;
},
{
angle = 90;
isGlobal = 0;
magnetic = 5;
x = 105;
y = 0;
}
);
};
},
{
color = 1;
glyphname = E;
layers = (
{
anchors = (
{
name = bottom;
position = "{334, 0}";
},
{
name = ogonek;
position = "{600, 10}";
},
{
name = top;
position = "{334, 700}";
},
{
name = topleft;
position = "{20, 700}";
}
);
guideLines = (
{
position = "{0, 350}";
}
);
layerId = "EC64484B-0978-4CB1-9EE9-C40A2D8C4059";
paths = (
{
closed = 1;
nodes = (
"82 -21 OFFCURVE",
"221.198 -21 OFFCURVE",
"221.198 40 CURVE",
"221.198 -21 OFFCURVE",
"272.901 -21 OFFCURVE",
"272.901 40 CURVE",
"272.901 -36 OFFCURVE",
"356.42 -36 OFFCURVE",
"356.42 40 CURVE",
"356.42 -34 OFFCURVE",
"475.733 -34 OFFCURVE",
"475.733 40 CURVE",
"475.733 -36 OFFCURVE",
"515.504 -36 OFFCURVE",
"515.504 40 CURVE",
"515.504 -33 OFFCURVE",
"603 -33 OFFCURVE",
"603 40 CURVE",
"663.898 70.255 OFFCURVE",
"650.898 96.422 OFFCURVE",
"590 66.167 CURVE",
"657.474 80.598 OFFCURVE",
"638.474 169.432 OFFCURVE",
"571 155 CURVE",
"571 233 OFFCURVE",
"471 233 OFFCURVE",
"471 155 CURVE",
"471 232 OFFCURVE",
"399 232 OFFCURVE",
"399 155 CURVE",
"399 228 OFFCURVE",
"335 228 OFFCURVE",
"335 155 CURVE",
"335 224 OFFCURVE",
"287 224 OFFCURVE",
"287 155 CURVE",
"330.688 198.993 OFFCURVE",
"298.688 230.771 OFFCURVE",
"255 186.778 CURVE",
"321 186.778 OFFCURVE",
"321 242.389 OFFCURVE",
"255 242.389 CURVE",
"333 242.389 OFFCURVE",
"333 294.028 OFFCURVE",
"255 294.028 CURVE",
"263.497 217.498 OFFCURVE",
"299.272 221.47 OFFCURVE",
"290.775 298 CURVE",
"290.775 224 OFFCURVE",
"382.2 224 OFFCURVE",
"382.2 298 CURVE",
"382.2 224 OFFCURVE",
"489.525 224 OFFCURVE",
"489.525 298 CURVE",
"477.008 230.145 OFFCURVE",
"547.483 217.145 OFFCURVE",
"560 285 CURVE",
"633 285 OFFCURVE",
"633 383.485 OFFCURVE",
"560 383.485 CURVE",
"612.629 414.326 OFFCURVE",
"601.779 432.841 OFFCURVE",
"549.15 402 CURVE",
"549.15 479 OFFCURVE",
"398.1 479 OFFCURVE",
"398.1 402 CURVE",
"398.1 477 OFFCURVE",
"354.375 477 OFFCURVE",
"354.375 402 CURVE",
"354.375 468 OFFCURVE",
"306.675 468 OFFCURVE",
"306.675 402 CURVE",
"364.434 441.547 OFFCURVE",
"312.759 517.019 OFFCURVE",
"255 477.472 CURVE",
"332.781 463.65 OFFCURVE",
"344.781 531.178 OFFCURVE",
"267 545 CURVE",
"267 480 OFFCURVE",
"399 480 OFFCURVE",
"399 545 CURVE",
"399 477 OFFCURVE",
"447 477 OFFCURVE",
"447 545 CURVE",
"447 484 OFFCURVE",
"579 484 OFFCURVE",
"579 545 CURVE",
"656.935 541.805 OFFCURVE",
"659.935 614.971 OFFCURVE",
"582 618.167 CURVE",
"631.918 664.343 OFFCURVE",
"593.22 706.176 OFFCURVE",
"543.302 660 CURVE",
"543.302 734 OFFCURVE",
"459.791 734 OFFCURVE",
"459.791 660 CURVE",
"459.791 731 OFFCURVE",
"304.698 731 OFFCURVE",
"304.698 660 CURVE",
"304.698 727 OFFCURVE",
"189.372 727 OFFCURVE",
"189.372 660 CURVE",
"184.899 720.836 OFFCURVE",
"90.527 713.898 OFFCURVE",
"95 653.062 CURVE",
"25 653.062 OFFCURVE",
"25 525.457 OFFCURVE",
"95 525.457 CURVE",
"28 525.457 OFFCURVE",
"28 409.815 OFFCURVE",
"95 409.815 CURVE",
"29 409.815 OFFCURVE",
"29 330.062 OFFCURVE",
"95 330.062 CURVE",
"16 330.062 OFFCURVE",
"16 210.432 OFFCURVE",
"95 210.432 CURVE",
"21 210.432 OFFCURVE",
"21 162.58 OFFCURVE",
"95 162.58 CURVE",
"31 162.58 OFFCURVE",
"31 70.864 OFFCURVE",
"95 70.864 CURVE"
);
}
);
width = 667;
},
{
anchors = (
{
name = bottom;
position = "{334, 0}";
},
{
name = ogonek;
position = "{600, 10}";
},
{
name = top;
position = "{334, 700}";
},
{
name = topleft;
position = "{20, 700}";
}
);
associatedMasterId = "EC64484B-0978-4CB1-9EE9-C40A2D8C4059";
guideLines = (
{
position = "{0, 350}";
}
);
layerId = "438BC91C-83D2-449A-86EC-00245AB8BA08";
name = tempoutline;
paths = (
{
closed = 1;
nodes = (
"603 40 LINE SMOOTH",
"596 40 OFFCURVE",
"590 34 OFFCURVE",
"590 27 CURVE SMOOTH",
"590 168 LINE SMOOTH",
"590 161 OFFCURVE",
"596 155 OFFCURVE",
"603 155 CURVE SMOOTH",
"255 155 LINE",
"255 298 LINE",
"573 298 LINE SMOOTH",
"566 298 OFFCURVE",
"560 292 OFFCURVE",
"560 285 CURVE SMOOTH",
"560 415 LINE SMOOTH",
"560 408 OFFCURVE",
"566 402 OFFCURVE",
"573 402 CURVE SMOOTH",
"255 402 LINE",
"255 545 LINE",
"595 545 LINE SMOOTH",
"588 545 OFFCURVE",
"582 539 OFFCURVE",
"582 532 CURVE SMOOTH",
"582 673 LINE SMOOTH",
"582 666 OFFCURVE",
"588 660 OFFCURVE",
"595 660 CURVE SMOOTH",
"82 660 LINE SMOOTH",
"89 660 OFFCURVE",
"95 666 OFFCURVE",
"95 673 CURVE SMOOTH",
"95 27 LINE SMOOTH",
"95 34 OFFCURVE",
"89 40 OFFCURVE",
"82 40 CURVE SMOOTH"
);
}
);
width = 667;
}
);
leftKerningGroup = I;
rightKerningGroup = E;
unicode = 0045;
userData = {
com.typemytype.robofont.guides = (
{
angle = 0;
isGlobal = 0;
magnetic = 5;
x = 0;
y = 334;
},
{
angle = 0;
isGlobal = 0;
magnetic = 5;
x = 0;
y = 9;
},
{
angle = 0;
isGlobal = 0;
magnetic = 5;
x = 0;
y = 376;
},
{
angle = 0;
isGlobal = 0;
magnetic = 5;
x = 0;
y = 691;
},
{
angle = 0;
isGlobal = 0;
magnetic = 5;
x = 0;
y = 649;
},
{
angle = 90;
isGlobal = 0;
magnetic = 5;
x = 664;
y = 0;
},
{
angle = 90;
isGlobal = 0;
magnetic = 5;
x = 94;
y = 0;
},
{
angle = 90;
isGlobal = 0;
magnetic = 5;
x = 511;
y = 0;
}
);
};
},
{
color = 1;
glyphname = Eogonek;
layers = (
{
guideLines = (
{
position = "{0, -220}";
}
);
hints = (
{
horizontal = 1;
place = "{-2147483648, 0}";
type = Tag;
name = hr01;
}
);
layerId = "EC64484B-0978-4CB1-9EE9-C40A2D8C4059";
paths = (
{
closed = 1;
nodes = (
"664.236 -190.748 OFFCURVE",
"665.236 -183.748 OFFCURVE",
"590 -173 CURVE",
"657 -173 OFFCURVE",
"657 -125 OFFCURVE",
"590 -125 CURVE",
"597.058 -47.32 OFFCURVE",
"542.938 -42.403 OFFCURVE",
"535.881 -120.083 CURVE",
"602.491 -102.081 OFFCURVE",
"574.641 0.965 OFFCURVE",
"508.031 -17.037 CURVE",
"544.946 -85.749 OFFCURVE",
"626.915 -41.712 OFFCURVE",
"590 27 CURVE",
"660 27 OFFCURVE",
"660 66.167 OFFCURVE",
"590 66.167 CURVE",
"663 66.167 OFFCURVE",
"663 144.5 OFFCURVE",
"590 144.5 CURVE",
"617.546 215.332 OFFCURVE",
"590.546 225.832 OFFCURVE",
"563 155 CURVE",
"563 218 OFFCURVE",
"423 218 OFFCURVE",
"423 155 CURVE",
"423 219 OFFCURVE",
"315 219 OFFCURVE",
"315 155 CURVE",
"357.974 214.011 OFFCURVE",
"297.974 257.705 OFFCURVE",
"255 198.694 CURVE",
"321 198.694 OFFCURVE",
"321 282.111 OFFCURVE",
"255 282.111 CURVE",
"275.042 211.916 OFFCURVE",
"330.692 227.805 OFFCURVE",
"310.65 298 CURVE",
"310.65 227 OFFCURVE",
"358.35 227 OFFCURVE",
"358.35 298 CURVE",
"358.35 227 OFFCURVE",
"489.525 227 OFFCURVE",
"489.525 298 CURVE",
"496.242 227.318 OFFCURVE",
"566.717 234.015 OFFCURVE",
"560 304.697 CURVE",
"620.999 304.315 OFFCURVE",
"621.664 410.622 OFFCURVE",
"560.665 411.004 CURVE",
"549.521 489.214 OFFCURVE",
"486.331 480.21 OFFCURVE",
"497.475 402 CURVE",
"497.475 479 OFFCURVE",
"449.775 479 OFFCURVE",
"449.775 402 CURVE",
"449.775 473 OFFCURVE",
"390.15 473 OFFCURVE",
"390.15 402 CURVE",
"390.15 481 OFFCURVE",
"270.9 481 OFFCURVE",
"270.9 402 CURVE",
"347.068 413.292 OFFCURVE",
"331.168 520.542 OFFCURVE",
"255 509.25 CURVE",
"316.439 468.004 OFFCURVE",
"340.439 503.754 OFFCURVE",
"279 545 CURVE",
"279 466 OFFCURVE",
"335 466 OFFCURVE",
"335 545 CURVE",
"335 467 OFFCURVE",
"443 467 OFFCURVE",
"443 545 CURVE",
"443 484 OFFCURVE",
"491 484 OFFCURVE",
"491 545 CURVE",
"490.521 473.002 OFFCURVE",
"590.525 472.337 OFFCURVE",
"591.004 544.335 CURVE",
"648.607 590.789 OFFCURVE",
"639.603 601.954 OFFCURVE",
"582 555.5 CURVE",
"644 555.5 OFFCURVE",
"644 665.167 OFFCURVE",
"582 665.167 CURVE",
"575.662 741.905 OFFCURVE",
"513.104 736.739 OFFCURVE",
"519.442 660 CURVE",
"519.442 727 OFFCURVE",
"467.744 727 OFFCURVE",
"467.744 660 CURVE",
"467.744 730 OFFCURVE",
"364.349 730 OFFCURVE",
"364.349 660 CURVE",
"364.349 722 OFFCURVE",
"237.093 722 OFFCURVE",
"237.093 660 CURVE",
"237.093 720 OFFCURVE",
"181.419 720 OFFCURVE",
"181.419 660 CURVE",
"175.576 732.766 OFFCURVE",
"89.158 725.828 OFFCURVE",
"95 653.062 CURVE",
"24 653.062 OFFCURVE",
"24 509.506 OFFCURVE",
"95 509.506 CURVE",
"28 509.506 OFFCURVE",
"28 413.802 OFFCURVE",
"95 413.802 CURVE",
"26 413.802 OFFCURVE",
"26 302.148 OFFCURVE",
"95 302.148 CURVE",
"31 302.148 OFFCURVE",
"31 158.593 OFFCURVE",
"95 158.593 CURVE",
"25 158.593 OFFCURVE",
"25 82.827 OFFCURVE",
"95 82.827 CURVE",
"30 82.827 OFFCURVE",
"30 27 OFFCURVE",
"95 27 CURVE",
"103.511 -37.44 OFFCURVE",
"201.94 -24.44 OFFCURVE",
"193.429 40 CURVE",
"193.429 -31 OFFCURVE",
"316.796 -31 OFFCURVE",
"316.796 40 CURVE",
"316.796 -37 OFFCURVE",
"424.245 -37 OFFCURVE",
"424.245 40 CURVE",
"378.944 -9.364 OFFCURVE",
"418.209 -45.398 OFFCURVE",
"463.511 3.966 CURVE",
"387.922 11.865 OFFCURVE",
"381.549 -49.125 OFFCURVE",
"457.137 -57.024 CURVE",
"402.048 -85.47 OFFCURVE",
"456.507 -190.935 OFFCURVE",
"511.596 -162.489 CURVE"
);
}
);
width = 667;
},
{
associatedMasterId = "EC64484B-0978-4CB1-9EE9-C40A2D8C4059";
guideLines = (
{
position = "{0, -220}";
}
);
hints = (
{
horizontal = 1;
place = "{-2147483648, 0}";
type = Tag;
name = hr01;
}
);
layerId = "BC91844B-4328-4A25-8FD1-7854EB5C19ED";
name = tempoutline;
paths = (
{
closed = 1;
nodes = (
"603 -180 LINE SMOOTH",
"596 -180 OFFCURVE",
"590 -186 OFFCURVE",
"590 -193 CURVE SMOOTH",
"590 -125 LINE SMOOTH",
"590 -132 OFFCURVE",
"596 -138 OFFCURVE",
"603 -138 CURVE SMOOTH",
"593 -138 LINE SMOOTH",
"540 -138 OFFCURVE",
"503 -102 OFFCURVE",
"503 -49 CURVE SMOOTH",
"503 4 OFFCURVE",
"540 40 OFFCURVE",
"593 40 CURVE SMOOTH",
"603 40 LINE SMOOTH",
"596 40 OFFCURVE",
"590 34 OFFCURVE",
"590 27 CURVE SMOOTH",
"590 168 LINE SMOOTH",
"590 161 OFFCURVE",
"596 155 OFFCURVE",
"603 155 CURVE SMOOTH",
"255 155 LINE",
"255 298 LINE",
"573 298 LINE SMOOTH",
"566 298 OFFCURVE",
"560 292 OFFCURVE",
"560 285 CURVE SMOOTH",
"560 415 LINE SMOOTH",
"560 408 OFFCURVE",
"566 402 OFFCURVE",
"573 402 CURVE SMOOTH",
"255 402 LINE",
"255 545 LINE",
"595 545 LINE SMOOTH",
"588 545 OFFCURVE",
"582 539 OFFCURVE",
"582 532 CURVE SMOOTH",
"582 673 LINE SMOOTH",
"582 666 OFFCURVE",
"588 660 OFFCURVE",
"595 660 CURVE SMOOTH",
"82 660 LINE SMOOTH",
"89 660 OFFCURVE",
"95 666 OFFCURVE",
"95 673 CURVE SMOOTH",
"95 27 LINE SMOOTH",
"95 34 OFFCURVE",
"89 40 OFFCURVE",
"82 40 CURVE SMOOTH",
"472 40 LINE",
"460 -8 OFFCURVE",
"457 -27 OFFCURVE",
"457 -49 CURVE SMOOTH",
"457 -135 OFFCURVE",
"503 -180 OFFCURVE",
"589 -180 CURVE SMOOTH"
);
}
);
width = 667;
}
);
leftKerningGroup = I;
rightKerningGroup = E;
unicode = 0118;
userData = {
com.typemytype.robofont.guides = (
{
angle = 90;
isGlobal = 0;
magnetic = 5;
x = 355;
y = 0;
}
);
};
},
{
color = 1;
glyphname = F;
layers = (
{
guideLines = (
{
position = "{0, 350}";
},
{
angle = 90;
position = "{645, 0}";
}
);
hints = (
{
horizontal = 1;
place = "{-2147483648, 0}";
type = Tag;
name = hr00;
}
);
layerId = "EC64484B-0978-4CB1-9EE9-C40A2D8C4059";
paths = (
{
closed = 1;
nodes = (
"82 -33 OFFCURVE",
"197.396 -33 OFFCURVE",
"197.396 40 CURVE",
"235.329 -15.227 OFFCURVE",
"297.933 27.773 OFFCURVE",
"260 83 CURVE",
"328 83 OFFCURVE",
"328 147 OFFCURVE",
"260 147 CURVE",
"324 147 OFFCURVE",
"324 199 OFFCURVE",
"260 199 CURVE",
"330.296 189.023 OFFCURVE",
"338.244 245.023 OFFCURVE",
"267.948 255 CURVE",
"267.948 191 OFFCURVE",
"311.662 191 OFFCURVE",
"311.662 255 CURVE",
"311.662 194 OFFCURVE",
"391.143 194 OFFCURVE",
"391.143 255 CURVE",
"391.143 181 OFFCURVE",
"498.442 181 OFFCURVE",
"498.442 255 CURVE",
"528.854 200.971 OFFCURVE",
"583.412 231.682 OFFCURVE",
"553 285.711 CURVE",
"613.999 285.318 OFFCURVE",
"614.664 388.611 OFFCURVE",
"553.665 389.004 CURVE",
"548.041 455.768 OFFCURVE",
"441.155 446.764 OFFCURVE",
"446.779 380 CURVE",
"446.779 457 OFFCURVE",
"383.195 457 OFFCURVE",
"383.195 380 CURVE",
"383.195 458 OFFCURVE",
"279.87 458 OFFCURVE",
"279.87 380 CURVE",
"350.651 393.192 OFFCURVE",
"330.781 499.807 OFFCURVE",
"260 486.615 CURVE",
"332 486.615 OFFCURVE",
"332 526.103 OFFCURVE",
"260 526.103 CURVE",
"266.691 465.471 OFFCURVE",
"338.252 473.368 OFFCURVE",
"331.561 534 CURVE",
"331.561 464 OFFCURVE",
"430.951 464 OFFCURVE",
"430.951 534 CURVE",
"430.951 472 OFFCURVE",
"498.537 472 OFFCURVE",
"498.537 534 CURVE",
"490.257 465.499 OFFCURVE",
"564.721 456.499 OFFCURVE",
"573 525 CURVE",
"636 525 OFFCURVE",
"636 633 OFFCURVE",
"573 633 CURVE",
"610.259 681.299 OFFCURVE",
"575.259 708.299 OFFCURVE",
"538 660 CURVE",
"538 739 OFFCURVE",
"398 739 OFFCURVE",
"398 660 CURVE",
"398 722 OFFCURVE",
"358 722 OFFCURVE",
"358 660 CURVE",
"358 735 OFFCURVE",
"242 735 OFFCURVE",
"242 660 CURVE",
"242 730 OFFCURVE",
"166 730 OFFCURVE",
"166 660 CURVE",
"144.404 717.049 OFFCURVE",
"73.404 690.173 OFFCURVE",
"95 633.123 CURVE",
"26 633.123 OFFCURVE",
"26 485.58 OFFCURVE",
"95 485.58 CURVE",
"30 485.58 OFFCURVE",
"30 381.901 OFFCURVE",
"95 381.901 CURVE",
"18 381.901 OFFCURVE",
"18 330.062 OFFCURVE",
"95 330.062 CURVE",
"32 330.062 OFFCURVE",
"32 246.321 OFFCURVE",
"95 246.321 CURVE",
"20 246.321 OFFCURVE",
"20 122.704 OFFCURVE",
"95 122.704 CURVE",
"28 122.704 OFFCURVE",
"28 82.827 OFFCURVE",
"95 82.827 CURVE"
);
}
);
width = 646;
},
{
associatedMasterId = "EC64484B-0978-4CB1-9EE9-C40A2D8C4059";
guideLines = (
{
position = "{0, 350}";
},
{
angle = 90;
position = "{645, 0}";
}
);
hints = (
{
horizontal = 1;
place = "{-2147483648, 0}";
type = Tag;
name = hr00;
}
);
layerId = "94A51AFE-F1C9-4BE4-9506-8F82FE560BBC";
name = tempoutline;
paths = (
{
closed = 1;
nodes = (
"273 40 LINE SMOOTH",
"266 40 OFFCURVE",
"260 34 OFFCURVE",
"260 27 CURVE SMOOTH",
"260 255 LINE",
"566 255 LINE SMOOTH",
"559 255 OFFCURVE",
"553 249 OFFCURVE",
"553 242 CURVE SMOOTH",
"553 393 LINE SMOOTH",
"553 386 OFFCURVE",
"559 380 OFFCURVE",
"566 380 CURVE SMOOTH",
"260 380 LINE",
"260 534 LINE",
"586 534 LINE SMOOTH",
"579 534 OFFCURVE",
"573 528 OFFCURVE",
"573 521 CURVE SMOOTH",
"573 673 LINE SMOOTH",
"573 666 OFFCURVE",
"579 660 OFFCURVE",
"586 660 CURVE SMOOTH",
"82 660 LINE SMOOTH",
"89 660 OFFCURVE",
"95 666 OFFCURVE",
"95 673 CURVE SMOOTH",
"95 27 LINE SMOOTH",
"95 34 OFFCURVE",
"89 40 OFFCURVE",
"82 40 CURVE SMOOTH"
);
}
);
width = 646;
}
);
leftKerningGroup = I;
unicode = 0046;
userData = {
com.typemytype.robofont.guides = (
{
angle = 0;
isGlobal = 0;
magnetic = 5;
x = 0;
y = 320;
},
{
angle = 0;
isGlobal = 0;
magnetic = 5;
x = 0;
y = 691;
},
{
angle = 0;
isGlobal = 0;
magnetic = 5;
x = 0;
y = 649;
},
{
angle = 0;
isGlobal = 0;
magnetic = 5;
x = 0;
y = 362;
},
{
angle = 0;
isGlobal = 0;
magnetic = 5;
x = 0;
y = 9;
},
{
angle = 90;
isGlobal = 0;
magnetic = 5;
x = 761;
y = 0;
},
{
angle = 90;
isGlobal = 0;
magnetic = 5;
x = 94;
y = 0;
},
{
angle = 90;
isGlobal = 0;
magnetic = 5;
x = 487;
y = 0;
},
{
angle = 90;
isGlobal = 0;
magnetic = 5;
x = 139;
y = 0;
}
);
};
},
{
color = 1;
glyphname = G;
layers = (
{
guideLines = (
{
position = "{0, 710}";
},
{
position = "{0, -10}";
},
{
position = "{0, 440}";
},
{
position = "{0, 270}";
},
{
angle = 90;
position = "{384, 0}";
},
{
angle = 90;
position = "{728, 0}";
}
);
hints = (
{
horizontal = 1;
place = "{-2147483648, 0}";
type = Tag;
name = hr01;
}
);
layerId = "EC64484B-0978-4CB1-9EE9-C40A2D8C4059";
paths = (
{
closed = 1;
nodes = (
"377.699 -36.898 OFFCURVE",
"441.922 -33.347 OFFCURVE",
"438.224 33.551 CURVE",
"460.781 -40.071 OFFCURVE",
"594.451 0.885 OFFCURVE",
"571.893 74.506 CURVE",
"608.538 22.036 OFFCURVE",
"641.472 45.036 OFFCURVE",
"604.828 97.507 CURVE",
"662.083 59 OFFCURVE",
"724.094 151.202 OFFCURVE",
"666.839 189.709 CURVE",
"742.526 182.817 OFFCURVE",
"753.687 305.38 OFFCURVE",
"678 312.273 CURVE",
"746.814 299.443 OFFCURVE",
"759.814 369.17 OFFCURVE",
"691 382 CURVE",
"691 458 OFFCURVE",
"579.406 458 OFFCURVE",
"579.406 382 CURVE",
"579.406 448 OFFCURVE",
"519.623 448 OFFCURVE",
"519.623 382 CURVE",
"519.623 443 OFFCURVE",
"471.797 443 OFFCURVE",
"471.797 382 CURVE",
"407.949 423.223 OFFCURVE",
"365.152 356.938 OFFCURVE",
"429 315.714 CURVE",
"381.155 257.958 OFFCURVE",
"403.745 239.243 OFFCURVE",
"451.591 297 CURVE",
"398.199 253.292 OFFCURVE",
"448.172 192.248 OFFCURVE",
"501.563 235.956 CURVE",
"432.744 265.77 OFFCURVE",
"410.64 214.749 OFFCURVE",
"479.459 184.934 CURVE",
"455.417 248.542 OFFCURVE",
"349.889 208.655 OFFCURVE",
"373.931 145.047 CURVE",
"415.667 202.485 OFFCURVE",
"305.733 282.365 OFFCURVE",
"263.997 224.926 CURVE",
"340.866 229.423 OFFCURVE",
"332.404 374.081 OFFCURVE",
"255.535 369.584 CURVE",
"327.416 365.445 OFFCURVE",
"333.439 470.034 OFFCURVE",
"261.558 474.173 CURVE",
"322.871 424.356 OFFCURVE",
"379.797 494.419 OFFCURVE",
"318.484 544.236 CURVE",
"312.276 483.552 OFFCURVE",
"442.596 470.221 OFFCURVE",
"448.804 530.904 CURVE",
"434.84 457.215 OFFCURVE",
"571.536 431.311 OFFCURVE",
"585.5 505 CURVE",
"584.426 441.009 OFFCURVE",
"687.091 439.286 OFFCURVE",
"688.165 503.277 CURVE",
"743.723 537.016 OFFCURVE",
"710.14 592.317 OFFCURVE",
"654.582 558.578 CURVE",
"704.895 614.198 OFFCURVE",
"636.963 675.647 OFFCURVE",
"586.65 620.027 CURVE",
"615.039 682.917 OFFCURVE",
"556.56 709.314 OFFCURVE",
"528.172 646.424 CURVE",
"544.346 722.729 OFFCURVE",
"446.318 743.508 OFFCURVE",
"430.143 667.203 CURVE",
"431.445 736.191 OFFCURVE",
"339.287 737.929 OFFCURVE",
"337.986 668.942 CURVE",
"331.213 731.577 OFFCURVE",
"283.471 726.415 OFFCURVE",
"290.243 663.78 CURVE",
"269.867 720.214 OFFCURVE",
"150.253 677.026 OFFCURVE",
"170.629 620.592 CURVE",
"118.948 680.341 OFFCURVE",
"76.688 643.788 OFFCURVE",
"128.37 584.039 CURVE",
"64.716 613.163 OFFCURVE",
"17.032 508.944 OFFCURVE",
"80.686 479.82 CURVE",
"17.734 482.282 OFFCURVE",
"12.557 349.915 OFFCURVE",
"75.509 347.453 CURVE",
"2.519 346.236 OFFCURVE",
"3.726 273.825 OFFCURVE",
"76.716 275.041 CURVE",
"17.925 263.057 OFFCURVE",
"40.26 153.49 OFFCURVE",
"99.051 165.474 CURVE",
"45.828 115.512 OFFCURVE",
"137.578 17.774 OFFCURVE",
"190.801 67.737 CURVE",
"172.702 7.392 OFFCURVE",
"283.741 -25.912 OFFCURVE",
"301.841 34.432 CURVE"
);
}
);
width = 753;
},
{
associatedMasterId = "EC64484B-0978-4CB1-9EE9-C40A2D8C4059";
guideLines = (
{
position = "{0, 710}";
},
{
position = "{0, -10}";
},
{
position = "{0, 440}";
},
{
position = "{0, 270}";
},
{
angle = 90;
position = "{384, 0}";
},
{
angle = 90;
position = "{728, 0}";
}
);
hints = (
{
horizontal = 1;
place = "{-2147483648, 0}";
type = Tag;
name = hr01;
}
);
layerId = "14678A0D-B92B-4A18-9A97-73100E70D368";
name = tempoutline;
paths = (
{
closed = 1;
nodes = (
"566 30 OFFCURVE",
"678 117 OFFCURVE",
"678 265 CURVE SMOOTH",
"678 395 LINE SMOOTH",
"678 388 OFFCURVE",
"684 382 OFFCURVE",
"691 382 CURVE SMOOTH",
"416 382 LINE SMOOTH",
"423 382 OFFCURVE",
"429 388 OFFCURVE",
"429 395 CURVE SMOOTH",
"429 284 LINE SMOOTH",
"429 291 OFFCURVE",
"423 297 OFFCURVE",
"416 297 CURVE SMOOTH",
"503 297 LINE",
"503 256 LINE SMOOTH",
"503 186 OFFCURVE",
"454 145 OFFCURVE",
"378 145 CURVE SMOOTH",
"304 145 OFFCURVE",
"260 191 OFFCURVE",
"257 269 CURVE SMOOTH",
"255 327 OFFCURVE",
"255 386 OFFCURVE",
"257 442 CURVE SMOOTH",
"260 513 OFFCURVE",
"303 555 OFFCURVE",
"374 555 CURVE SMOOTH",
"420 555 OFFCURVE",
"444 541 OFFCURVE",
"474 505 CURVE",
"474 505 OFFCURVE",
"475 505 OFFCURVE",
"475 505 CURVE",
"696 505 LINE SMOOTH",
"685 505 OFFCURVE",
"678 496 OFFCURVE",
"678 487 CURVE SMOOTH",
"675 591 OFFCURVE",
"550 670 OFFCURVE",
"374 670 CURVE SMOOTH",
"187 670 OFFCURVE",
"83 589 OFFCURVE",
"77 444 CURVE SMOOTH",
"75 388 OFFCURVE",
"75 320 OFFCURVE",
"77 267 CURVE SMOOTH",
"84 111 OFFCURVE",
"184 30 OFFCURVE",
"374 30 CURVE SMOOTH"
);
}
);
width = 753;
}
);
leftKerningGroup = O;
rightKerningGroup = G;
unicode = 0047;
userData = {
com.typemytype.robofont.guides = (
{
angle = 0;
isGlobal = 0;
magnetic = 5;
x = 0;
y = "-10";
},
{
angle = 0;
isGlobal = 0;
magnetic = 5;
x = 0;
y = 260;
},
{
angle = 0;
isGlobal = 0;
magnetic = 5;
x = 0;
y = 440;
},
{
angle = 90;
isGlobal = 0;
magnetic = 5;
x = 334;
y = 0;
},
{
angle = 90;
isGlobal = 0;
magnetic = 5;
x = 133;
y = 0;
},
{
angle = 90;
isGlobal = 0;
magnetic = 5;
x = 604;
y = 0;
},
{
angle = 90;
isGlobal = 0;
magnetic = 5;
x = 67;
y = 0;
}
);
};
},
{
color = 1;
glyphname = H;
layers = (
{
layerId = "EC64484B-0978-4CB1-9EE9-C40A2D8C4059";
paths = (
{
closed = 1;
nodes = (
"82 -29 OFFCURVE",
"194 -29 OFFCURVE",
"194 40 CURVE",
"192.986 -31.993 OFFCURVE",
"263.986 -32.993 OFFCURVE",
"265 39 CURVE",
"330 39 OFFCURVE",
"330 191 OFFCURVE",
"265 191 CURVE",
"331 191 OFFCURVE",
"331 247 OFFCURVE",
"265 247 CURVE",
"284.398 182.87 OFFCURVE",
"403.415 218.87 OFFCURVE",
"384.016 283 CURVE",
"384.016 220 OFFCURVE",
"455.426 220 OFFCURVE",
"455.426 283 CURVE",
"419.642 217.087 OFFCURVE",
"471.215 189.087 OFFCURVE",
"507 255 CURVE",
"434 255 OFFCURVE",
"434 167 OFFCURVE",
"507 167 CURVE",
"434 167 OFFCURVE",
"434 75 OFFCURVE",
"507 75 CURVE",
"441 75 OFFCURVE",
"441 35 OFFCURVE",
"507 35 CURVE",
"531.033 -37.1 OFFCURVE",
"546.033 -32.1 OFFCURVE",
"522 40 CURVE",
"522 -21 OFFCURVE",
"602 -21 OFFCURVE",
"602 40 CURVE",
"611.514 -25.311 OFFCURVE",
"686.514 -14.385 OFFCURVE",
"677 50.926 CURVE",
"745 50.926 OFFCURVE",
"745 94.79 OFFCURVE",
"677 94.79 CURVE",
"737 94.79 OFFCURVE",
"737 146.63 OFFCURVE",
"677 146.63 CURVE",
"743 146.63 OFFCURVE",
"743 230.37 OFFCURVE",
"677 230.37 CURVE",
"749 230.37 OFFCURVE",
"749 338.037 OFFCURVE",
"677 338.037 CURVE",
"748 338.037 OFFCURVE",
"748 489.568 OFFCURVE",
"677 489.568 CURVE",
"747 489.568 OFFCURVE",
"747 577.296 OFFCURVE",
"677 577.296 CURVE",
"749 577.296 OFFCURVE",
"749 669.012 OFFCURVE",
"677 669.012 CURVE",
"643.572 739.486 OFFCURVE",
"624.572 730.474 OFFCURVE",
"658 660 CURVE",
"658 725 OFFCURVE",
"582 725 OFFCURVE",
"582 660 CURVE",
"582 722 OFFCURVE",
"502 722 OFFCURVE",
"502 660 CURVE",
"425.28 653.435 OFFCURVE",
"430.28 595.006 OFFCURVE",
"507 601.571 CURVE",
"441 601.571 OFFCURVE",
"441 557.921 OFFCURVE",
"507 557.921 CURVE",
"434 557.921 OFFCURVE",
"434 454.746 OFFCURVE",
"507 454.746 CURVE",
"486.149 512.072 OFFCURVE",
"398.87 480.326 OFFCURVE",
"419.721 423 CURVE",
"419.721 495 OFFCURVE",
"332.443 495 OFFCURVE",
"332.443 423 CURVE",
"332.443 497 OFFCURVE",
"284.836 497 OFFCURVE",
"284.836 423 CURVE",
"338.583 476.733 OFFCURVE",
"318.747 496.574 OFFCURVE",
"265 442.841 CURVE",
"334 442.841 OFFCURVE",
"334 530.143 OFFCURVE",
"265 530.143 CURVE",
"331 530.143 OFFCURVE",
"331 657.127 OFFCURVE",
"265 657.127 CURVE",
"268.194 736.062 OFFCURVE",
"197.194 738.935 OFFCURVE",
"194 660 CURVE",
"194 739 OFFCURVE",
"130 739 OFFCURVE",
"130 660 CURVE",
"130 720 OFFCURVE",
"86 720 OFFCURVE",
"86 660 CURVE",
"9.403 645.274 OFFCURVE",
"18.403 598.46 OFFCURVE",
"95 613.185 CURVE",
"26 613.185 OFFCURVE",
"26 481.593 OFFCURVE",
"95 481.593 CURVE",
"24 481.593 OFFCURVE",
"24 417.79 OFFCURVE",
"95 417.79 CURVE",
"20 417.79 OFFCURVE",
"20 369.938 OFFCURVE",
"95 369.938 CURVE",
"35 369.938 OFFCURVE",
"35 294.173 OFFCURVE",
"95 294.173 CURVE",
"30 294.173 OFFCURVE",
"30 150.617 OFFCURVE",
"95 150.617 CURVE"
);
}
);
width = 772;
},
{
associatedMasterId = "EC64484B-0978-4CB1-9EE9-C40A2D8C4059";
layerId = "2D18BF7C-F612-447A-9892-D9542F9625A5";
name = tempoutline;
paths = (
{
closed = 1;
nodes = (
"278 40 LINE SMOOTH",
"271 40 OFFCURVE",
"265 34 OFFCURVE",
"265 27 CURVE SMOOTH",
"265 283 LINE",
"507 283 LINE",
"507 27 LINE SMOOTH",
"507 34 OFFCURVE",
"501 40 OFFCURVE",
"494 40 CURVE SMOOTH",
"690 40 LINE SMOOTH",
"683 40 OFFCURVE",
"677 34 OFFCURVE",
"677 27 CURVE SMOOTH",
"677 673 LINE SMOOTH",
"677 666 OFFCURVE",
"683 660 OFFCURVE",
"690 660 CURVE SMOOTH",
"494 660 LINE SMOOTH",
"501 660 OFFCURVE",
"507 666 OFFCURVE",
"507 673 CURVE SMOOTH",
"507 423 LINE",
"265 423 LINE",
"265 673 LINE SMOOTH",
"265 666 OFFCURVE",
"271 660 OFFCURVE",
"278 660 CURVE SMOOTH",
"82 660 LINE SMOOTH",
"89 660 OFFCURVE",
"95 666 OFFCURVE",
"95 673 CURVE SMOOTH",
"95 27 LINE SMOOTH",
"95 33 OFFCURVE",
"88 40 OFFCURVE",
"82 40 CURVE SMOOTH"
);
}
);
width = 772;
}
);
leftKerningGroup = I;
rightKerningGroup = I;
unicode = 0048;
userData = {
com.typemytype.robofont.guides = (
{
angle = 0;
isGlobal = 0;
magnetic = 5;
x = 0;
y = 350;
},
{
angle = 0;
isGlobal = 0;
magnetic = 5;
x = 0;
y = 9;
},
{
angle = 0;
isGlobal = 0;
magnetic = 5;
x = 0;
y = 691;
},
{
angle = 90;
isGlobal = 0;
magnetic = 5;
x = 94;
y = 0;
},
{
angle = 90;
isGlobal = 0;
magnetic = 5;
x = 139;
y = 0;
},
{
angle = 90;
isGlobal = 0;
magnetic = 5;
x = 543;
y = 0;
},
{
angle = 90;
isGlobal = 0;
magnetic = 5;
x = 588;
y = 0;
}
);
};
},
{
color = 1;
glyphname = Hbar;
layers = (
{
components = (
{
name = H;
}
);
guideLines = (
{
position = "{0, 581}";
}
);
hints = (
{
horizontal = 1;
place = "{-2147483648, 0}";
type = Tag;
name = hr00;
}
);
layerId = "EC64484B-0978-4CB1-9EE9-C40A2D8C4059";
paths = (
{
closed = 1;
nodes = (
"88 496 OFFCURVE",
"167.732 496 OFFCURVE",
"167.732 561 CURVE",
"167.732 499 OFFCURVE",
"307.262 499 OFFCURVE",
"307.262 561 CURVE",
"307.262 483 OFFCURVE",
"398.953 483 OFFCURVE",
"398.953 561 CURVE",
"398.953 499 OFFCURVE",
"522.537 499 OFFCURVE",
"522.537 561 CURVE",
"522.537 488 OFFCURVE",
"574.362 488 OFFCURVE",
"574.362 561 CURVE",
"573.549 484.004 OFFCURVE",
"668.186 483.004 OFFCURVE",
"669 560 CURVE",
"730.75 604.305 OFFCURVE",
"699.897 647.305 OFFCURVE",
"638.148 603 CURVE",
"638.148 680 OFFCURVE",
"526.523 680 OFFCURVE",
"526.523 603 CURVE",
"526.523 676 OFFCURVE",
"390.98 676 OFFCURVE",
"390.98 603 CURVE",
"390.98 680 OFFCURVE",
"239.49 680 OFFCURVE",
"239.49 603 CURVE",
"239.49 664 OFFCURVE",
"187.664 664 OFFCURVE",
"187.664 603 CURVE",
"187.664 676 OFFCURVE",
"143.812 676 OFFCURVE",
"143.812 603 CURVE",
"143.812 664 OFFCURVE",
"103.946 664 OFFCURVE",
"103.946 603 CURVE",
"28.844 614.646 OFFCURVE",
"25.898 595.646 OFFCURVE",
"101 584 CURVE"
);
}
);
width = 772;
},
{
associatedMasterId = "EC64484B-0978-4CB1-9EE9-C40A2D8C4059";
guideLines = (
{
position = "{0, 581}";
}
);
hints = (
{
horizontal = 1;
place = "{-2147483648, 0}";
type = Tag;
name = hr00;
}
);
layerId = "FF0B9B16-2378-4A37-8098-43DBF73F83A5";
name = "Bold Jan 19 16, 17:03";
paths = (
{
closed = 1;
nodes = (
"278 0 LINE SMOOTH",
"293 0 OFFCURVE",
"305 12 OFFCURVE",
"305 27 CURVE SMOOTH",
"305 243 LINE",
"467 243 LINE",
"467 27 LINE SMOOTH",
"467 12 OFFCURVE",
"479 0 OFFCURVE",
"494 0 CURVE SMOOTH",
"690 0 LINE SMOOTH",
"705 0 OFFCURVE",
"717 12 OFFCURVE",
"717 27 CURVE SMOOTH",
"717 673 LINE SMOOTH",
"717 688 OFFCURVE",
"705 700 OFFCURVE",
"690 700 CURVE SMOOTH",
"494 700 LINE",
"479 700 OFFCURVE",
"467 688 OFFCURVE",
"467 673 CURVE SMOOTH",
"467 644 LINE",
"305 644 LINE",
"305 673 LINE SMOOTH",
"305 688 OFFCURVE",
"293 700 OFFCURVE",
"278 700 CURVE SMOOTH",
"82 700 LINE SMOOTH",
"67 700 OFFCURVE",
"55 688 OFFCURVE",
"55 673 CURVE SMOOTH",
"55 27 LINE SMOOTH",
"55 11 OFFCURVE",
"67 0 OFFCURVE",
"82 0 CURVE SMOOTH"
);
},
{
closed = 1;
nodes = (
"305 519 LINE",
"467 519 LINE",
"467 463 LINE",
"305 463 LINE"
);
}
);
width = 772;
},
{
associatedMasterId = "EC64484B-0978-4CB1-9EE9-C40A2D8C4059";
components = (
{
name = H;
}
);
guideLines = (
{
position = "{0, 581}";
}
);
hints = (
{
horizontal = 1;
place = "{-2147483648, 0}";
type = Tag;
name = hr00;
}
);
layerId = "F2806900-1EB3-439F-A5A1-A2C8A36E3AF9";
name = tempoutline;
paths = (
{
closed = 1;
nodes = (
"682 561 LINE SMOOTH",
"675 561 OFFCURVE",
"669 555 OFFCURVE",
"669 548 CURVE SMOOTH",
"669 616 LINE SMOOTH",
"669 609 OFFCURVE",
"675 603 OFFCURVE",
"682 603 CURVE SMOOTH",
"88 603 LINE SMOOTH",
"95 603 OFFCURVE",
"101 609 OFFCURVE",
"101 616 CURVE SMOOTH",
"101 548 LINE SMOOTH",
"101 555 OFFCURVE",
"95 561 OFFCURVE",
"88 561 CURVE SMOOTH"
);
}
);
width = 772;
}
);
leftKerningGroup = I;
rightKerningGroup = I;
unicode = 0126;
},
{
color = 1;
glyphname = I;
layers = (
{
anchors = (
{
name = bottom;
position = "{184, 0}";
},
{
name = ogonek;
position = "{331, 10}";
},
{
name = top;
position = "{184, 700}";
},
{
name = topleft;
position = "{20, 700}";
}
);
guideLines = (
{
angle = 90;
position = "{318, 0}";
},
{
angle = 90;
position = "{70, 0}";
}
);
layerId = "EC64484B-0978-4CB1-9EE9-C40A2D8C4059";
paths = (
{
closed = 1;
nodes = (
"82 -34 OFFCURVE",
"202 -34 OFFCURVE",
"202 40 CURVE",
"202 -36 OFFCURVE",
"250 -36 OFFCURVE",
"250 40 CURVE",
"290.634 -9.446 OFFCURVE",
"313.634 9.456 OFFCURVE",
"273 58.901 CURVE",
"336 58.901 OFFCURVE",
"336 162.58 OFFCURVE",
"273 162.58 CURVE",
"350 162.58 OFFCURVE",
"350 266.259 OFFCURVE",
"273 266.259 CURVE",
"336 266.259 OFFCURVE",
"336 326.074 OFFCURVE",
"273 326.074 CURVE",
"352 326.074 OFFCURVE",
"352 365.951 OFFCURVE",
"273 365.951 CURVE",
"334 365.951 OFFCURVE",
"334 449.691 OFFCURVE",
"273 449.691 CURVE",
"335 449.691 OFFCURVE",
"335 489.568 OFFCURVE",
"273 489.568 CURVE",
"336 489.568 OFFCURVE",
"336 529.444 OFFCURVE",
"273 529.444 CURVE",
"346 529.444 OFFCURVE",
"346 665.025 OFFCURVE",
"273 665.025 CURVE",
"267.765 734.829 OFFCURVE",
"200.765 729.804 OFFCURVE",
"206 660 CURVE",
"206 735 OFFCURVE",
"106 735 OFFCURVE",
"106 660 CURVE",
"43.458 667.587 OFFCURVE",
"32.458 576.908 OFFCURVE",
"95 569.321 CURVE",
"21 569.321 OFFCURVE",
"21 497.543 OFFCURVE",
"95 497.543 CURVE",
"31 497.543 OFFCURVE",
"31 389.877 OFFCURVE",
"95 389.877 CURVE",
"35 389.877 OFFCURVE",
"35 334.049 OFFCURVE",
"95 334.049 CURVE",
"32 334.049 OFFCURVE",
"32 190.494 OFFCURVE",
"95 190.494 CURVE",
"34 190.494 OFFCURVE",
"34 34.975 OFFCURVE",
"95 34.975 CURVE"
);
}
);
width = 368;
},
{
anchors = (
{
name = bottom;
position = "{184, 0}";
},
{
name = ogonek;
position = "{331, 10}";
},
{
name = top;
position = "{184, 700}";
},
{
name = topleft;
position = "{20, 700}";
}
);
associatedMasterId = "EC64484B-0978-4CB1-9EE9-C40A2D8C4059";
guideLines = (
{
angle = 90;
position = "{318, 0}";
},
{
angle = 90;
position = "{70, 0}";
}
);
layerId = "1170A764-6212-4438-98C6-86F46D69231F";
name = tempoutline;
paths = (
{
closed = 1;
nodes = (
"286 40 LINE SMOOTH",
"279 40 OFFCURVE",
"273 34 OFFCURVE",
"273 27 CURVE SMOOTH",
"273 673 LINE SMOOTH",
"273 666 OFFCURVE",
"279 660 OFFCURVE",
"286 660 CURVE SMOOTH",
"82 660 LINE SMOOTH",
"89 660 OFFCURVE",
"95 666 OFFCURVE",
"95 673 CURVE SMOOTH",
"95 27 LINE SMOOTH",
"95 34 OFFCURVE",
"89 40 OFFCURVE",
"82 40 CURVE SMOOTH"
);
}
);
width = 368;
}
);
leftKerningGroup = I;
rightKerningGroup = I;
unicode = 0049;
userData = {
com.typemytype.robofont.guides = (
{
angle = 90;
isGlobal = 0;
magnetic = 5;
x = 85;
y = 0;
},
{
angle = 90;
isGlobal = 0;
magnetic = 5;
x = 148;
y = 0;
}
);
};
},
{
color = 1;
glyphname = IJ;
layers = (
{
hints = (
{
horizontal = 1;
place = "{-2147483648, 0}";
type = Tag;
name = hr01;
}
);
layerId = "EC64484B-0978-4CB1-9EE9-C40A2D8C4059";
paths = (
{
closed = 1;
nodes = (
"82 -26 OFFCURVE",
"130 -26 OFFCURVE",
"130 40 CURVE",
"130 -28 OFFCURVE",
"194 -28 OFFCURVE",
"194 40 CURVE",
"182.472 -30.058 OFFCURVE",
"261.472 -43.058 OFFCURVE",
"273 27 CURVE",
"334 27 OFFCURVE",
"334 150.617 OFFCURVE",
"273 150.617 CURVE",
"345 150.617 OFFCURVE",
"345 294.173 OFFCURVE",
"273 294.173 CURVE",
"343 294.173 OFFCURVE",
"343 433.741 OFFCURVE",
"273 433.741 CURVE",
"340 433.741 OFFCURVE",
"340 473.617 OFFCURVE",
"273 473.617 CURVE",
"342 473.617 OFFCURVE",
"342 629.136 OFFCURVE",
"273 629.136 CURVE",
"340 629.136 OFFCURVE",
"340 669.012 OFFCURVE",
"273 669.012 CURVE",
"266.375 744.723 OFFCURVE",
"163.375 735.711 OFFCURVE",
"170 660 CURVE",
"170 725 OFFCURVE",
"110 725 OFFCURVE",
"110 660 CURVE",
"67.609 718.198 OFFCURVE",
"52.609 707.272 OFFCURVE",
"95 649.074 CURVE",
"31 649.074 OFFCURVE",
"31 509.506 OFFCURVE",
"95 509.506 CURVE",
"23 509.506 OFFCURVE",
"23 429.753 OFFCURVE",
"95 429.753 CURVE",
"26 429.753 OFFCURVE",
"26 377.914 OFFCURVE",
"95 377.914 CURVE",
"21 377.914 OFFCURVE",
"21 278.222 OFFCURVE",
"95 278.222 CURVE",
"33 278.222 OFFCURVE",
"33 218.407 OFFCURVE",
"95 218.407 CURVE",
"17 218.407 OFFCURVE",
"17 170.556 OFFCURVE",
"95 170.556 CURVE",
"32 170.556 OFFCURVE",
"32 114.728 OFFCURVE",
"95 114.728 CURVE"
);
},
{
closed = 1;
nodes = (
"426.489 -45.723 OFFCURVE",
"561.866 -34.122 OFFCURVE",
"555.378 41.6 CURVE",
"581.721 -21.089 OFFCURVE",
"676.885 18.901 OFFCURVE",
"650.542 81.591 CURVE",
"698.936 36.712 OFFCURVE",
"734.146 74.681 OFFCURVE",
"685.752 119.559 CURVE",
"752.619 98.853 OFFCURVE",
"783.109 197.315 OFFCURVE",
"716.242 218.021 CURVE",
"781.198 215.64 OFFCURVE",
"782.956 263.6 OFFCURVE",
"718 265.981 CURVE",
"786 265.981 OFFCURVE",
"786 377.712 OFFCURVE",
"718 377.712 CURVE",
"779 377.712 OFFCURVE",
"779 517.375 OFFCURVE",
"718 517.375 CURVE",
"784 517.375 OFFCURVE",
"784 617.135 OFFCURVE",
"718 617.135 CURVE",
"778 617.135 OFFCURVE",
"778 669.01 OFFCURVE",
"718 669.01 CURVE",
"706.941 740.155 OFFCURVE",
"648.979 731.146 OFFCURVE",
"660.038 660 CURVE",
"668.048 734.571 OFFCURVE",
"547.009 747.571 OFFCURVE",
"539 673 CURVE",
"460 673 OFFCURVE",
"460 517.415 OFFCURVE",
"539 517.415 CURVE",
"475 517.415 OFFCURVE",
"475 473.532 OFFCURVE",
"539 473.532 CURVE",
"477 473.532 OFFCURVE",
"477 353.851 OFFCURVE",
"539 353.851 CURVE",
"473 353.851 OFFCURVE",
"473 305.979 OFFCURVE",
"539 305.979 CURVE",
"469.326 324.131 OFFCURVE",
"441.524 217.421 OFFCURVE",
"511.198 199.268 CURVE",
"474.408 268.047 OFFCURVE",
"415.277 236.418 OFFCURVE",
"452.066 167.639 CURVE",
"407.294 217.483 OFFCURVE",
"388.227 200.356 OFFCURVE",
"433 150.512 CURVE",
"367 150.512 OFFCURVE",
"367 44.488 OFFCURVE",
"433 44.488 CURVE",
"364.383 66.299 OFFCURVE",
"358.968 49.262 OFFCURVE",
"427.585 27.451 CURVE"
);
}
);
width = 807;
},
{
associatedMasterId = "EC64484B-0978-4CB1-9EE9-C40A2D8C4059";
hints = (
{
horizontal = 1;
place = "{-2147483648, 0}";
type = Tag;
name = hr01;
}
);
layerId = "85EEA70D-10D1-4E41-BEA3-6D94F57B71BA";
name = tempoutline;
paths = (
{
closed = 1;
nodes = (
"286 40 LINE SMOOTH",
"279 40 OFFCURVE",
"273 34 OFFCURVE",
"273 27 CURVE SMOOTH",
"273 673 LINE SMOOTH",
"273 666 OFFCURVE",
"279 660 OFFCURVE",
"286 660 CURVE SMOOTH",
"82 660 LINE SMOOTH",
"89 660 OFFCURVE",
"95 666 OFFCURVE",
"95 673 CURVE SMOOTH",
"95 27 LINE SMOOTH",
"95 34 OFFCURVE",
"89 40 OFFCURVE",
"82 40 CURVE SMOOTH"
);
},
{
closed = 1;
nodes = (
"638 30 OFFCURVE",
"718 92 OFFCURVE",
"718 258 CURVE SMOOTH",
"718 673 LINE SMOOTH",
"718 666 OFFCURVE",
"724 660 OFFCURVE",
"731 660 CURVE SMOOTH",
"526 660 LINE SMOOTH",
"533 660 OFFCURVE",
"539 666 OFFCURVE",
"539 673 CURVE SMOOTH",
"539 298 LINE SMOOTH",
"539 208 OFFCURVE",
"501 165 OFFCURVE",
"420 165 CURVE SMOOTH",
"427 165 OFFCURVE",
"433 171 OFFCURVE",
"433 178 CURVE SMOOTH",
"433 17 LINE SMOOTH",
"433 24 OFFCURVE",
"427 30 OFFCURVE",
"420 30 CURVE SMOOTH"
);
}
);
width = 807;
}
);
leftKerningGroup = I;
unicode = 0132;
userData = {
com.typemytype.robofont.guides = (
{
angle = 90;
isGlobal = 0;
magnetic = 5;
x = 642;
y = 0;
}
);
};
},
{
color = 1;
glyphname = Iogonek;
layers = (
{
hints = (
{
horizontal = 1;
place = "{-2147483648, 0}";
type = Tag;
name = hr01;
}
);
layerId = "EC64484B-0978-4CB1-9EE9-C40A2D8C4059";
paths = (
{
closed = 1;
nodes = (
"330.818 -201.606 OFFCURVE",
"331.818 -198.606 OFFCURVE",
"273 -179 CURVE",
"347.993 -180.039 OFFCURVE",
"348.658 -132.035 OFFCURVE",
"273.665 -130.996 CURVE",
"286.467 -56.082 OFFCURVE",
"231.578 -46.702 OFFCURVE",
"218.775 -121.616 CURVE",
"286.95 -95.515 OFFCURVE",
"254.853 -11.68 OFFCURVE",
"186.679 -37.781 CURVE",
"230.879 -92.061 OFFCURVE",
"319.749 -19.696 OFFCURVE",
"275.549 34.585 CURVE",
"342.536 35.878 OFFCURVE",
"339.988 167.861 OFFCURVE",
"273 166.568 CURVE",
"344 166.568 OFFCURVE",
"344 274.235 OFFCURVE",
"273 274.235 CURVE",
"336 274.235 OFFCURVE",
"336 373.926 OFFCURVE",
"273 373.926 CURVE",
"350 373.926 OFFCURVE",
"350 445.704 OFFCURVE",
"273 445.704 CURVE",
"341 445.704 OFFCURVE",
"341 581.284 OFFCURVE",
"273 581.284 CURVE",
"344 581.284 OFFCURVE",
"344 621.16 OFFCURVE",
"273 621.16 CURVE",
"341.795 626.474 OFFCURVE",
"338.795 665.314 OFFCURVE",
"270 660 CURVE",
"270 723 OFFCURVE",
"178 723 OFFCURVE",
"178 660 CURVE",
"178 733 OFFCURVE",
"102 733 OFFCURVE",
"102 660 CURVE",
"110.939 720.341 OFFCURVE",
"103.939 721.378 OFFCURVE",
"95 661.037 CURVE",
"20 661.037 OFFCURVE",
"20 509.506 OFFCURVE",
"95 509.506 CURVE",
"23 509.506 OFFCURVE",
"23 421.778 OFFCURVE",
"95 421.778 CURVE",
"18 421.778 OFFCURVE",
"18 330.062 OFFCURVE",
"95 330.062 CURVE",
"26 330.062 OFFCURVE",
"26 250.309 OFFCURVE",
"95 250.309 CURVE",
"26 250.309 OFFCURVE",
"26 166.568 OFFCURVE",
"95 166.568 CURVE",
"30 166.568 OFFCURVE",
"30 114.728 OFFCURVE",
"95 114.728 CURVE",
"25 114.728 OFFCURVE",
"25 30.988 OFFCURVE",
"95 30.988 CURVE",
"37.308 -1.069 OFFCURVE",
"82.308 -82.056 OFFCURVE",
"140 -50 CURVE",
"88.059 -81.986 OFFCURVE",
"164.449 -206.032 OFFCURVE",
"216.39 -174.046 CURVE"
);
}
);
width = 368;
},
{
associatedMasterId = "EC64484B-0978-4CB1-9EE9-C40A2D8C4059";
hints = (
{
horizontal = 1;
place = "{-2147483648, 0}";
type = Tag;
name = hr01;
}
);
layerId = "1A036275-4F9B-489E-BDCC-F74CD06F1E6D";
name = tempoutline;
paths = (
{
closed = 1;
nodes = (
"286 -182 LINE SMOOTH",
"279 -182 OFFCURVE",
"273 -188 OFFCURVE",
"273 -195 CURVE SMOOTH",
"273 -127 LINE SMOOTH",
"273 -134 OFFCURVE",
"279 -140 OFFCURVE",
"286 -140 CURVE SMOOTH",
"276 -140 LINE SMOOTH",
"223 -140 OFFCURVE",
"186 -103 OFFCURVE",
"186 -50 CURVE SMOOTH",
"186 3 OFFCURVE",
"223 40 OFFCURVE",
"276 40 CURVE SMOOTH",
"286 40 LINE SMOOTH",
"279 40 OFFCURVE",
"273 34 OFFCURVE",
"273 27 CURVE SMOOTH",
"273 673 LINE SMOOTH",
"273 666 OFFCURVE",
"279 660 OFFCURVE",
"286 660 CURVE SMOOTH",
"82 660 LINE SMOOTH",
"89 660 OFFCURVE",
"95 666 OFFCURVE",
"95 673 CURVE SMOOTH",
"95 27 LINE SMOOTH",
"95 34 OFFCURVE",
"89 40 OFFCURVE",
"82 40 CURVE SMOOTH",
"105 40 LINE",
"144 -7 LINE",
"141 -23 OFFCURVE",
"140 -37 OFFCURVE",
"140 -50 CURVE SMOOTH",
"140 -136 OFFCURVE",
"185 -182 OFFCURVE",
"272 -182 CURVE SMOOTH"
);
}
);
width = 368;
}
);
leftKerningGroup = I;
rightKerningGroup = I;
unicode = 012E;
userData = {
com.typemytype.robofont.guides = (
{
angle = 90;
isGlobal = 0;
magnetic = 5;
x = 110;
y = 0;
}
);
};
},
{
color = 1;
glyphname = J;
layers = (
{
guideLines = (
{
position = "{0, -10}";
},
{
angle = 90;
position = "{424, 0}";
},
{
angle = 90;
position = "{307, 0}";
},
{
angle = 90;
position = "{170, 0}";
}
);
hints = (
{
horizontal = 1;
place = "{-2147483648, 0}";
type = Tag;
name = hr00;
}
);
layerId = "EC64484B-0978-4CB1-9EE9-C40A2D8C4059";
paths = (
{
closed = 1;
nodes = (
"336.135 -31.323 OFFCURVE",
"474.833 -10.662 OFFCURVE",
"465.698 50.661 CURVE",
"500.741 -8.778 OFFCURVE",
"586.757 41.935 OFFCURVE",
"551.714 101.373 CURVE",
"604.281 61.464 OFFCURVE",
"640.632 109.344 OFFCURVE",
"588.066 149.253 CURVE",
"650.654 135.884 OFFCURVE",
"675.588 252.611 OFFCURVE",
"613 265.981 CURVE",
"673 265.981 OFFCURVE",
"673 305.885 OFFCURVE",
"613 305.885 CURVE",
"677 305.885 OFFCURVE",
"677 361.75 OFFCURVE",
"613 361.75 CURVE",
"684 361.75 OFFCURVE",
"684 469.49 OFFCURVE",
"613 469.49 CURVE",
"692 469.49 OFFCURVE",
"692 605.163 OFFCURVE",
"613 605.163 CURVE",
"682 605.163 OFFCURVE",
"682 657.038 OFFCURVE",
"613 657.038 CURVE",
"663.645 706.798 OFFCURVE",
"660.735 709.76 OFFCURVE",
"610.09 660 CURVE",
"610.09 729 OFFCURVE",
"454.97 729 OFFCURVE",
"454.97 660 CURVE",
"454.97 738 OFFCURVE",
"311.782 738 OFFCURVE",
"311.782 660 CURVE",
"311.782 732 OFFCURVE",
"164.617 732 OFFCURVE",
"164.617 660 CURVE",
"121.166 704.227 OFFCURVE",
"66.549 650.569 OFFCURVE",
"110 606.342 CURVE",
"48 606.342 OFFCURVE",
"48 555.368 OFFCURVE",
"110 555.368 CURVE",
"91.788 485.71 OFFCURVE",
"162.047 467.341 OFFCURVE",
"180.259 537 CURVE",
"180.259 461 OFFCURVE",
"235.765 461 OFFCURVE",
"235.765 537 CURVE",
"235.765 464 OFFCURVE",
"291.271 464 OFFCURVE",
"291.271 537 CURVE",
"291.271 464 OFFCURVE",
"354.706 464 OFFCURVE",
"354.706 537 CURVE",
"333.341 466.151 OFFCURVE",
"412.635 442.24 OFFCURVE",
"434 513.088 CURVE",
"356 513.088 OFFCURVE",
"356 385.559 OFFCURVE",
"434 385.559 CURVE",
"363 385.559 OFFCURVE",
"363 337.735 OFFCURVE",
"434 337.735 CURVE",
"361.104 341.624 OFFCURVE",
"354.509 217.986 OFFCURVE",
"427.405 214.098 CURVE",
"379.096 251.344 OFFCURVE",
"333.625 192.366 OFFCURVE",
"381.934 155.12 CURVE",
"377.564 225.986 OFFCURVE",
"294.84 220.885 OFFCURVE",
"299.209 150.019 CURVE",
"344.49 212.298 OFFCURVE",
"302.777 242.626 OFFCURVE",
"257.496 180.348 CURVE",
"284.978 241.452 OFFCURVE",
"203.481 278.105 OFFCURVE",
"176 217 CURVE",
"176 285 OFFCURVE",
"72 285 OFFCURVE",
"72 217 CURVE",
"31.096 271.322 OFFCURVE",
"12.417 257.256 OFFCURVE",
"53.321 202.935 CURVE",
"-13.902 167.479 OFFCURVE",
"34.357 75.98 OFFCURVE",
"101.58 111.436 CURVE",
"63.171 50.536 OFFCURVE",
"157.911 -9.217 OFFCURVE",
"196.321 51.682 CURVE",
"177.94 -24.121 OFFCURVE",
"252.291 -42.15 OFFCURVE",
"270.672 33.653 CURVE"
);
}
);
width = 702;
},
{
associatedMasterId = "EC64484B-0978-4CB1-9EE9-C40A2D8C4059";
guideLines = (
{
position = "{0, -10}";
},
{
angle = 90;
position = "{424, 0}";
},
{
angle = 90;
position = "{307, 0}";
},
{
angle = 90;
position = "{170, 0}";
}
);
hints = (
{
horizontal = 1;
place = "{-2147483648, 0}";
type = Tag;
name = hr00;
}
);
layerId = "F46C4C0E-22A8-4ADD-85D0-96E376B03392";
name = tempoutline;
paths = (
{
closed = 1;
nodes = (
"509 30 OFFCURVE",
"613 113 OFFCURVE",
"613 258 CURVE SMOOTH",
"613 673 LINE SMOOTH",
"613 666 OFFCURVE",
"619 660 OFFCURVE",
"626 660 CURVE SMOOTH",
"97 660 LINE SMOOTH",
"104 660 OFFCURVE",
"110 666 OFFCURVE",
"110 673 CURVE SMOOTH",
"110 524 LINE SMOOTH",
"110 531 OFFCURVE",
"104 537 OFFCURVE",
"97 537 CURVE SMOOTH",
"434 537 LINE",
"434 266 LINE SMOOTH",
"434 190 OFFCURVE",
"400 145 OFFCURVE",
"335 145 CURVE SMOOTH",
"289 145 OFFCURVE",
"262 164 OFFCURVE",
"241 208 CURVE SMOOTH",
"234 223 OFFCURVE",
"238 217 OFFCURVE",
"236 217 CURVE SMOOTH",
"32 217 LINE SMOOTH",
"43 217 OFFCURVE",
"50 226 OFFCURVE",
"50 235 CURVE SMOOTH",
"52 115 OFFCURVE",
"166 30 OFFCURVE",
"327 30 CURVE SMOOTH"
);
}
);
width = 702;
}
);
leftKerningGroup = J;
rightKerningGroup = U;
unicode = 004A;
userData = {
com.typemytype.robofont.guides = (
{
angle = 0;
isGlobal = 0;
magnetic = 5;
x = 0;
y = "-10";
},
{
angle = 0;
isGlobal = 0;
magnetic = 5;
x = 0;
y = 133;
},
{
angle = 0;
isGlobal = 0;
magnetic = 5;
x = 0;
y = 677;
},
{
angle = 90;
isGlobal = 0;
magnetic = 5;
x = 303;
y = 0;
},
{
angle = 90;
isGlobal = 0;
magnetic = 5;
x = 60;
y = 0;
},
{
angle = 90;
isGlobal = 0;
magnetic = 5;
x = 91;
y = 0;
}
);
};
},
{
color = 1;
glyphname = K;
layers = (
{
layerId = "EC64484B-0978-4CB1-9EE9-C40A2D8C4059";
paths = (
{
closed = 1;
nodes = (
"82 -26 OFFCURVE",
"165.562 -26 OFFCURVE",
"165.562 40 CURVE",
"165.562 -29 OFFCURVE",
"261.062 -29 OFFCURVE",
"261.062 40 CURVE",
"330.047 41.454 OFFCURVE",
"328.985 91.861 OFFCURVE",
"260 90.407 CURVE",
"328 90.407 OFFCURVE",
"328 233.074 OFFCURVE",
"260 233.074 CURVE",
"282.965 175.484 OFFCURVE",
"342.965 199.41 OFFCURVE",
"320 257 CURVE",
"260.888 207.657 OFFCURVE",
"312.682 145.609 OFFCURVE",
"371.794 194.952 CURVE",
"316.757 164.293 OFFCURVE",
"390.345 32.198 OFFCURVE",
"445.381 62.857 CURVE",
"430.897 -1.534 OFFCURVE",
"532.517 -24.391 OFFCURVE",
"547 40 CURVE",
"547 -20 OFFCURVE",
"683 -20 OFFCURVE",
"683 40 CURVE",
"617.637 65.053 OFFCURVE",
"608.598 41.47 OFFCURVE",
"673.961 16.417 CURVE",
"734.076 52.281 OFFCURVE",
"668.833 161.641 OFFCURVE",
"608.718 125.777 CURVE",
"675.703 165.739 OFFCURVE",
"647.16 213.584 OFFCURVE",
"580.175 173.621 CURVE",
"646.301 213.072 OFFCURVE",
"617.757 260.916 OFFCURVE",
"551.631 221.466 CURVE",
"604.017 252.719 OFFCURVE",
"548.968 344.991 OFFCURVE",
"496.583 313.738 CURVE",
"561.85 352.676 OFFCURVE",
"537.384 393.686 OFFCURVE",
"472.117 354.748 CURVE",
"548.915 336.226 OFFCURVE",
"557.17 370.457 OFFCURVE",
"480.372 388.979 CURVE",
"540.413 352.991 OFFCURVE",
"589.69 435.204 OFFCURVE",
"529.649 471.191 CURVE",
"584.544 438.289 OFFCURVE",
"658.458 561.608 OFFCURVE",
"603.564 594.511 CURVE",
"665.32 557.495 OFFCURVE",
"716.65 643.133 OFFCURVE",
"654.894 680.149 CURVE",
"624.357 740.907 OFFCURVE",
"584.267 720.758 OFFCURVE",
"614.804 660 CURVE",
"614.804 738 OFFCURVE",
"520.089 738 OFFCURVE",
"520.089 660 CURVE",
"506.802 731.781 OFFCURVE",
"427.052 717.018 OFFCURVE",
"440.339 645.237 CURVE",
"386.166 675.392 OFFCURVE",
"365.099 637.545 OFFCURVE",
"419.271 607.39 CURVE",
"353.74 643.868 OFFCURVE",
"309.689 564.732 OFFCURVE",
"375.22 528.254 CURVE",
"338.119 589.959 OFFCURVE",
"241.649 531.955 OFFCURVE",
"278.75 470.25 CURVE",
"333.893 506.516 OFFCURVE",
"315.143 535.026 OFFCURVE",
"260 498.76 CURVE",
"328 498.76 OFFCURVE",
"328 577.96 OFFCURVE",
"260 577.96 CURVE",
"322.881 574.096 OFFCURVE",
"327.923 656.136 OFFCURVE",
"265.042 660 CURVE",
"265.042 720 OFFCURVE",
"113.833 720 OFFCURVE",
"113.833 660 CURVE",
"121.673 734.589 OFFCURVE",
"97.424 737.138 OFFCURVE",
"89.585 662.549 CURVE",
"13.66 659.155 OFFCURVE",
"19.076 538.013 OFFCURVE",
"95 541.407 CURVE",
"33 541.407 OFFCURVE",
"33 489.568 OFFCURVE",
"95 489.568 CURVE",
"28 489.568 OFFCURVE",
"28 385.889 OFFCURVE",
"95 385.889 CURVE",
"22 385.889 OFFCURVE",
"22 290.185 OFFCURVE",
"95 290.185 CURVE",
"26 290.185 OFFCURVE",
"26 234.358 OFFCURVE",
"95 234.358 CURVE",
"28 234.358 OFFCURVE",
"28 114.728 OFFCURVE",
"95 114.728 CURVE"
);
}
);
width = 715;
},
{
associatedMasterId = "EC64484B-0978-4CB1-9EE9-C40A2D8C4059";
layerId = "7A816AED-459A-4879-9D79-54F7E974D06F";
name = tempoutline;
paths = (
{
closed = 1;
nodes = (
"273 40 LINE SMOOTH",
"266 40 OFFCURVE",
"260 34 OFFCURVE",
"260 27 CURVE SMOOTH",
"260 241 LINE",
"335 261 LINE",
"457 42 LINE SMOOTH",
"460 36 OFFCURVE",
"457 40 OFFCURVE",
"463 40 CURVE SMOOTH",
"691 40 LINE SMOOTH",
"680 40 OFFCURVE",
"673 31 OFFCURVE",
"673 22 CURVE SMOOTH",
"673 19 OFFCURVE",
"675 14 OFFCURVE",
"677 11 CURVE",
"676 13 LINE",
"466 365 LINE",
"659 687 LINE",
"660 689 LINE",
"658 687 OFFCURVE",
"656 681 OFFCURVE",
"656 678 CURVE SMOOTH",
"656 667 OFFCURVE",
"665 660 OFFCURVE",
"674 660 CURVE SMOOTH",
"453 660 LINE SMOOTH",
"446 660 OFFCURVE",
"451 663 OFFCURVE",
"448 659 CURVE",
"335 456 LINE",
"260 475 LINE",
"260 673 LINE SMOOTH",
"260 666 OFFCURVE",
"266 660 OFFCURVE",
"273 660 CURVE SMOOTH",
"82 660 LINE SMOOTH",
"89 660 OFFCURVE",
"95 666 OFFCURVE",
"95 673 CURVE SMOOTH",
"95 27 LINE SMOOTH",
"95 34 OFFCURVE",
"89 40 OFFCURVE",
"82 40 CURVE SMOOTH"
);
}
);
width = 715;
}
);
leftKerningGroup = I;
rightKerningGroup = K;
unicode = 004B;
userData = {
com.typemytype.robofont.guides = (
{
angle = 0;
isGlobal = 0;
magnetic = 5;
x = 0;
y = 365;
},
{
angle = 90;
isGlobal = 0;
magnetic = 5;
x = 547;
y = 0;
},
{
angle = 90;
isGlobal = 0;
magnetic = 5;
x = 94;
y = 0;
},
{
angle = 90;
isGlobal = 0;
magnetic = 5;
x = 139;
y = 0;
}
);
};
},
{
color = 1;
glyphname = L;
layers = (
{
anchors = (
{
name = bottom;
position = "{313, 0}";
},
{
name = center;
position = "{313, 350}";
},
{
name = top;
position = "{173, 700}";
},
{
name = topright;
position = "{606, 700}";
}
);
layerId = "EC64484B-0978-4CB1-9EE9-C40A2D8C4059";
paths = (
{
closed = 1;
nodes = (
"82 -23 OFFCURVE",
"166 -23 OFFCURVE",
"166 40 CURVE",
"166 -22 OFFCURVE",
"290 -22 OFFCURVE",
"290 40 CURVE",
"290 -29 OFFCURVE",
"386 -29 OFFCURVE",
"386 40 CURVE",
"386 -23 OFFCURVE",
"438 -23 OFFCURVE",
"438 40 CURVE",
"438 -35 OFFCURVE",
"510 -35 OFFCURVE",
"510 40 CURVE",
"510 -28 OFFCURVE",
"558 -28 OFFCURVE",
"558 40 CURVE",
"517.268 -27.689 OFFCURVE",
"532.268 -36.716 OFFCURVE",
"573 30.974 CURVE",
"650 30.974 OFFCURVE",
"650 150.184 OFFCURVE",
"573 150.184 CURVE",
"603.634 205.235 OFFCURVE",
"577.009 220.051 OFFCURVE",
"546.375 165 CURVE",
"546.375 235 OFFCURVE",
"415.613 235 OFFCURVE",
"415.613 165 CURVE",
"415.613 234 OFFCURVE",
"336.363 234 OFFCURVE",
"336.363 165 CURVE",
"373.127 233.792 OFFCURVE",
"305.764 269.792 OFFCURVE",
"269 201 CURVE",
"340 201 OFFCURVE",
"340 353 OFFCURVE",
"269 353 CURVE",
"341 353 OFFCURVE",
"341 425 OFFCURVE",
"269 425 CURVE",
"334 425 OFFCURVE",
"334 477 OFFCURVE",
"269 477 CURVE",
"346 477 OFFCURVE",
"346 533 OFFCURVE",
"269 533 CURVE",
"336 533 OFFCURVE",
"336 661 OFFCURVE",
"269 661 CURVE",
"267.341 738.982 OFFCURVE",
"220.341 737.982 OFFCURVE",
"222 660 CURVE",
"222 722 OFFCURVE",
"178 722 OFFCURVE",
"178 660 CURVE",
"178 726 OFFCURVE",
"138 726 OFFCURVE",
"138 660 CURVE",
"91.425 706.763 OFFCURVE",
"48.425 663.936 OFFCURVE",
"95 617.173 CURVE",
"19 617.173 OFFCURVE",
"19 477.605 OFFCURVE",
"95 477.605 CURVE",
"20 477.605 OFFCURVE",
"20 409.815 OFFCURVE",
"95 409.815 CURVE",
"19 409.815 OFFCURVE",
"19 290.185 OFFCURVE",
"95 290.185 CURVE",
"33 290.185 OFFCURVE",
"33 206.444 OFFCURVE",
"95 206.444 CURVE",
"16 206.444 OFFCURVE",
"16 150.617 OFFCURVE",
"95 150.617 CURVE",
"18 150.617 OFFCURVE",
"18 86.815 OFFCURVE",
"95 86.815 CURVE",
"31 86.815 OFFCURVE",
"31 34.975 OFFCURVE",
"95 34.975 CURVE"
);
}
);
width = 626;
},
{
anchors = (
{
name = bottom;
position = "{313, 0}";
},
{
name = center;
position = "{313, 350}";
},
{
name = top;
position = "{173, 700}";
},
{
name = topright;
position = "{606, 700}";
}
);
associatedMasterId = "EC64484B-0978-4CB1-9EE9-C40A2D8C4059";
layerId = "6737D604-027E-4068-A883-726E23BBBE8F";
name = tempoutline;
paths = (
{
closed = 1;
nodes = (
"586 40 LINE SMOOTH",
"579 40 OFFCURVE",
"573 34 OFFCURVE",
"573 27 CURVE SMOOTH",
"573 178 LINE SMOOTH",
"573 171 OFFCURVE",
"579 165 OFFCURVE",
"586 165 CURVE SMOOTH",
"269 165 LINE",
"269 673 LINE SMOOTH",
"269 666 OFFCURVE",
"275 660 OFFCURVE",
"282 660 CURVE SMOOTH",
"82 660 LINE SMOOTH",
"89 660 OFFCURVE",
"95 666 OFFCURVE",
"95 673 CURVE SMOOTH",
"95 27 LINE SMOOTH",
"95 34 OFFCURVE",
"89 40 OFFCURVE",
"82 40 CURVE SMOOTH"
);
}
);
width = 626;
}
);
leftKerningGroup = I;
rightKerningGroup = L;
unicode = 004C;
},
{
color = 1;
glyphname = Lslash;
layers = (
{
guideLines = (
{
position = "{0, 215}";
},
{
position = "{0, 380}";
},
{
angle = 90;
position = "{65, 0}";
},
{
angle = 90;
position = "{15, 0}";
}
);
hints = (
{
horizontal = 1;
place = "{-2147483648, 0}";
type = Tag;
name = hr00;
}
);
layerId = "EC64484B-0978-4CB1-9EE9-C40A2D8C4059";
paths = (
{
closed = 1;
nodes = (
"90 -27 OFFCURVE",
"214 -27 OFFCURVE",
"214 40 CURVE",
"214 -30 OFFCURVE",
"282 -30 OFFCURVE",
"282 40 CURVE",
"282 -35 OFFCURVE",
"354 -35 OFFCURVE",
"354 40 CURVE",
"354 -25 OFFCURVE",
"446 -25 OFFCURVE",
"446 40 CURVE",
"446 -27 OFFCURVE",
"526 -27 OFFCURVE",
"526 40 CURVE",
"547.983 -24.349 OFFCURVE",
"602.983 -5.559 OFFCURVE",
"581 58.789 CURVE",
"659 58.789 OFFCURVE",
"659 118.395 OFFCURVE",
"581 118.395 CURVE",
"650 118.395 OFFCURVE",
"650 174.026 OFFCURVE",
"581 174.026 CURVE",
"574.544 249.752 OFFCURVE",
"468.669 240.725 OFFCURVE",
"475.125 165 CURVE",
"475.125 233 OFFCURVE",
"407.763 233 OFFCURVE",
"407.763 165 CURVE",
"407.763 225 OFFCURVE",
"284.925 225 OFFCURVE",
"284.925 165 CURVE",
"351.675 170.781 OFFCURVE",
"343.75 262.291 OFFCURVE",
"277 256.511 CURVE",
"347.519 223.178 OFFCURVE",
"402.927 340.402 OFFCURVE",
"332.408 373.735 CURVE",
"356.51 312.293 OFFCURVE",
"441.469 345.619 OFFCURVE",
"417.367 407.061 CURVE",
"439.643 350.274 OFFCURVE",
"476.582 364.764 OFFCURVE",
"454.306 421.551 CURVE",
"532.304 422.076 OFFCURVE",
"531.998 467.525 OFFCURVE",
"454 467 CURVE",
"533 467 OFFCURVE",
"533 527 OFFCURVE",
"454 527 CURVE",
"393.067 546.574 OFFCURVE",
"382.734 514.408 OFFCURVE",
"443.667 494.833 CURVE",
"417.95 559.938 OFFCURVE",
"366.098 539.457 OFFCURVE",
"391.815 474.352 CURVE",
"378.447 534.894 OFFCURVE",
"263.632 509.542 OFFCURVE",
"277 449 CURVE",
"356 449 OFFCURVE",
"356 537 OFFCURVE",
"277 537 CURVE",
"345 537 OFFCURVE",
"345 649 OFFCURVE",
"277 649 CURVE",
"326.497 698.497 OFFCURVE",
"315.497 709.497 OFFCURVE",
"266 660 CURVE",
"266 724 OFFCURVE",
"178 724 OFFCURVE",
"178 660 CURVE",
"178 726 OFFCURVE",
"114 726 OFFCURVE",
"114 660 CURVE",
"54.73 684.147 OFFCURVE",
"43.73 657.147 OFFCURVE",
"103 633 CURVE",
"41 633 OFFCURVE",
"41 577 OFFCURVE",
"103 577 CURVE",
"26 577 OFFCURVE",
"26 429 OFFCURVE",
"103 429 CURVE",
"31.369 436.284 OFFCURVE",
"24.169 365.484 OFFCURVE",
"95.8 358.2 CURVE",
"51.478 413.667 OFFCURVE",
"8.678 379.467 OFFCURVE",
"53 324 CURVE",
"-16.416 343.115 OFFCURVE",
"-35.416 274.115 OFFCURVE",
"34 255 CURVE",
"58.441 194.77 OFFCURVE",
"127.441 222.77 OFFCURVE",
"103 283 CURVE",
"28 283 OFFCURVE",
"28 159 OFFCURVE",
"103 159 CURVE",
"25 159 OFFCURVE",
"25 47 OFFCURVE",
"103 47 CURVE"
);
}
);
width = 634;
},
{
associatedMasterId = "EC64484B-0978-4CB1-9EE9-C40A2D8C4059";
guideLines = (
{
position = "{0, 215}";
},
{
position = "{0, 380}";
},
{
angle = 90;
position = "{65, 0}";
},
{
angle = 90;
position = "{15, 0}";
}
);
hints = (
{
horizontal = 1;
place = "{-2147483648, 0}";
type = Tag;
name = hr00;
}
);
layerId = "C340A11C-E4B4-487A-AC27-59EC0B46FA86";
name = tempoutline;
paths = (
{
closed = 1;
nodes = (
"594 40 LINE SMOOTH",
"587 40 OFFCURVE",
"581 34 OFFCURVE",
"581 27 CURVE SMOOTH",
"581 178 LINE SMOOTH",
"581 171 OFFCURVE",
"587 165 OFFCURVE",
"594 165 CURVE SMOOTH",
"277 165 LINE",
"277 352 LINE",
"458 423 LINE SMOOTH",
"462 425 OFFCURVE",
"454 412 OFFCURVE",
"454 419 CURVE SMOOTH",
"454 527 LINE SMOOTH",
"454 517 OFFCURVE",
"463 508 OFFCURVE",
"473 508 CURVE SMOOTH",
"464 508 OFFCURVE",
"486 511 OFFCURVE",
"477 508 CURVE SMOOTH",
"277 429 LINE",
"277 673 LINE SMOOTH",
"277 666 OFFCURVE",
"283 660 OFFCURVE",
"290 660 CURVE SMOOTH",
"90 660 LINE SMOOTH",
"97 660 OFFCURVE",
"103 666 OFFCURVE",
"103 673 CURVE SMOOTH",
"103 361 LINE",
"49 340 LINE SMOOTH",
"45 338 OFFCURVE",
"53 351 OFFCURVE",
"53 344 CURVE SMOOTH",
"53 236 LINE SMOOTH",
"53 246 OFFCURVE",
"44 255 OFFCURVE",
"34 255 CURVE SMOOTH",
"43 255 OFFCURVE",
"21 252 OFFCURVE",
"30 255 CURVE SMOOTH",
"103 283 LINE",
"103 27 LINE SMOOTH",
"103 34 OFFCURVE",
"97 40 OFFCURVE",
"90 40 CURVE SMOOTH"
);
}
);
width = 634;
}
);
leftKerningGroup = I;
rightKerningGroup = L;
unicode = 0141;
userData = {
com.typemytype.robofont.guides = (
{
angle = 0;
isGlobal = 0;
magnetic = 5;
x = 0;
y = 215;
},
{
angle = 0;
isGlobal = 0;
magnetic = 5;
x = 0;
y = 548;
},
{
angle = 0;
isGlobal = 0;
magnetic = 5;
x = 0;
y = 438;
},
{
angle = 0;
isGlobal = 0;
magnetic = 5;
x = 0;
y = 267;
},
{
angle = 0;
isGlobal = 0;
magnetic = 5;
x = 0;
y = 353;
},
{
angle = 90;
isGlobal = 0;
magnetic = 5;
x = 129;
y = 0;
},
{
angle = 90;
isGlobal = 0;
magnetic = 5;
x = 325;
y = 0;
},
{
angle = 90;
isGlobal = 0;
magnetic = 5;
x = "-5";
y = 0;
}
);
};
},
{
color = 1;
glyphname = M;
layers = (
{
guideLines = (
{
position = "{0, 193}";
},
{
angle = 90;
position = "{438, 0}";
},
{
angle = 90;
position = "{473, 0}";
},
{
angle = 90;
position = "{403, 0}";
},
{
angle = 90;
position = "{300, 0}";
},
{
angle = 90;
position = "{576, 0}";
},
{
angle = 90;
position = "{250, 0}";
}
);
hints = (
{
horizontal = 1;
place = "{-2147483648, 0}";
type = Tag;
name = hr00;
}
);
layerId = "EC64484B-0978-4CB1-9EE9-C40A2D8C4059";
paths = (
{
closed = 1;
nodes = (
"82 -27 OFFCURVE",
"207.913 -27 OFFCURVE",
"207.913 40 CURVE",
"246.686 -7.092 OFFCURVE",
"288.773 27.56 OFFCURVE",
"250 74.652 CURVE",
"328 74.652 OFFCURVE",
"328 217.609 OFFCURVE",
"250 217.609 CURVE",
"321 217.609 OFFCURVE",
"321 273.203 OFFCURVE",
"250 273.203 CURVE",
"289.939 218.168 OFFCURVE",
"352.839 263.815 OFFCURVE",
"312.9 318.85 CURVE",
"262.785 279.044 OFFCURVE",
"319.26 207.944 OFFCURVE",
"369.375 247.75 CURVE",
"336.395 189.429 OFFCURVE",
"406.686 149.679 OFFCURVE",
"439.667 208 CURVE",
"477.977 140.056 OFFCURVE",
"512.56 159.556 OFFCURVE",
"474.25 227.5 CURVE",
"532.273 192.041 OFFCURVE",
"577.648 266.291 OFFCURVE",
"519.625 301.75 CURVE",
"522.803 235.827 OFFCURVE",
"594.378 239.277 OFFCURVE",
"591.2 305.2 CURVE",
"518.72 296.502 OFFCURVE",
"533.52 173.172 OFFCURVE",
"606 181.87 CURVE",
"541 181.87 OFFCURVE",
"541 110.391 OFFCURVE",
"606 110.391 CURVE",
"545 110.391 OFFCURVE",
"545 30.971 OFFCURVE",
"606 30.971 CURVE",
"614.204 -46.596 OFFCURVE",
"699.573 -37.567 OFFCURVE",
"691.37 40 CURVE",
"691.37 -24 OFFCURVE",
"774 -24 OFFCURVE",
"774 40 CURVE",
"852.559 48.331 OFFCURVE",
"839.559 170.912 OFFCURVE",
"761 162.58 CURVE",
"830 162.58 OFFCURVE",
"830 234.358 OFFCURVE",
"761 234.358 CURVE",
"827 234.358 OFFCURVE",
"827 385.889 OFFCURVE",
"761 385.889 CURVE",
"835 385.889 OFFCURVE",
"835 501.531 OFFCURVE",
"761 501.531 CURVE",
"831 501.531 OFFCURVE",
"831 593.247 OFFCURVE",
"761 593.247 CURVE",
"833 593.247 OFFCURVE",
"833 645.086 OFFCURVE",
"761 645.086 CURVE",
"785.605 714.876 OFFCURVE",
"743.305 729.789 OFFCURVE",
"718.7 660 CURVE",
"699.5 726.275 OFFCURVE",
"569.283 688.551 OFFCURVE",
"588.483 622.276 CURVE",
"536.238 653.764 OFFCURVE",
"503.318 599.143 OFFCURVE",
"555.563 567.655 CURVE",
"490.471 606.886 OFFCURVE",
"465.782 565.92 OFFCURVE",
"530.874 526.69 CURVE",
"472.633 561.791 OFFCURVE",
"437.656 503.756 OFFCURVE",
"495.897 468.655 CURVE",
"431.661 507.37 OFFCURVE",
"411.086 473.232 OFFCURVE",
"475.322 434.517 CURVE",
"410.23 473.748 OFFCURVE",
"377.31 419.127 OFFCURVE",
"442.402 379.897 CURVE",
"490.505 426.535 OFFCURVE",
"414.379 505.052 OFFCURVE",
"366.276 458.414 CURVE",
"419.377 490.418 OFFCURVE",
"390.573 538.211 OFFCURVE",
"337.471 506.207 CURVE",
"402.563 545.437 OFFCURVE",
"359.356 617.127 OFFCURVE",
"294.264 577.897 CURVE",
"345.566 609.011 OFFCURVE",
"298.005 687.43 OFFCURVE",
"246.703 656.315 CURVE",
"248.528 720.289 OFFCURVE",
"119.375 723.974 OFFCURVE",
"117.55 660 CURVE",
"83.539 730.195 OFFCURVE",
"60.989 719.269 OFFCURVE",
"95 649.074 CURVE",
"35 649.074 OFFCURVE",
"35 605.21 OFFCURVE",
"95 605.21 CURVE",
"23 605.21 OFFCURVE",
"23 473.617 OFFCURVE",
"95 473.617 CURVE",
"20 473.617 OFFCURVE",
"20 369.938 OFFCURVE",
"95 369.938 CURVE",
"29 369.938 OFFCURVE",
"29 222.395 OFFCURVE",
"95 222.395 CURVE",
"19 222.395 OFFCURVE",
"19 122.704 OFFCURVE",
"95 122.704 CURVE",
"19 122.704 OFFCURVE",
"19 62.889 OFFCURVE",
"95 62.889 CURVE"
);
}
);
width = 856;
},
{
associatedMasterId = "EC64484B-0978-4CB1-9EE9-C40A2D8C4059";
guideLines = (
{
position = "{0, 193}";
},
{
angle = 90;
position = "{438, 0}";
},
{
angle = 90;
position = "{473, 0}";
},
{
angle = 90;
position = "{403, 0}";
},
{
angle = 90;
position = "{300, 0}";
},
{
angle = 90;
position = "{576, 0}";
},
{
angle = 90;
position = "{250, 0}";
}
);
hints = (
{
horizontal = 1;
place = "{-2147483648, 0}";
type = Tag;
name = hr00;
}
);
layerId = "CF6FC0FF-1C00-4E23-BB6F-447D3C7FF20C";
name = tempoutline;
paths = (
{
closed = 1;
nodes = (
"263 40 LINE SMOOTH",
"256 40 OFFCURVE",
"250 34 OFFCURVE",
"250 27 CURVE SMOOTH",
"250 301 LINE",
"324 322 LINE",
"390 214 LINE SMOOTH",
"398 202 OFFCURVE",
"396 208 OFFCURVE",
"393 208 CURVE SMOOTH",
"463 208 LINE SMOOTH",
"460 208 OFFCURVE",
"458 202 OFFCURVE",
"466 214 CURVE SMOOTH",
"532 322 LINE",
"606 301 LINE",
"606 27 LINE SMOOTH",
"606 34 OFFCURVE",
"600 40 OFFCURVE",
"593 40 CURVE SMOOTH",
"774 40 LINE SMOOTH",
"767 40 OFFCURVE",
"761 34 OFFCURVE",
"761 27 CURVE SMOOTH",
"761 673 LINE SMOOTH",
"761 666 OFFCURVE",
"767 660 OFFCURVE",
"774 660 CURVE SMOOTH",
"616 660 LINE SMOOTH",
"612 660 OFFCURVE",
"611 659 OFFCURVE",
"607 653 CURVE SMOOTH",
"428 356 LINE",
"249 653 LINE SMOOTH",
"245 659 OFFCURVE",
"244 660 OFFCURVE",
"240 660 CURVE SMOOTH",
"82 660 LINE SMOOTH",
"89 660 OFFCURVE",
"95 666 OFFCURVE",
"95 673 CURVE SMOOTH",
"95 27 LINE SMOOTH",
"95 34 OFFCURVE",
"89 40 OFFCURVE",
"82 40 CURVE SMOOTH"
);
}
);
width = 856;
}
);
leftKerningGroup = I;
rightKerningGroup = I;
unicode = 004D;
userData = {
com.typemytype.robofont.guides = (
{
angle = 0;
isGlobal = 0;
magnetic = 5;
x = 0;
y = 168;
},
{
angle = 0;
isGlobal = 0;
magnetic = 5;
x = 0;
y = 9;
},
{
angle = 0;
isGlobal = 0;
magnetic = 5;
x = 0;
y = 691;
},
{
angle = 90;
isGlobal = 0;
magnetic = 5;
x = 126;
y = 0;
},
{
angle = 90;
isGlobal = 0;
magnetic = 5;
x = 636;
y = 0;
}
);
};
},
{
color = 1;
glyphname = N;
layers = (
{
anchors = (
{
name = bottom;
position = "{370, 0}";
},
{
name = top;
position = "{370, 700}";
}
);
guideLines = (
{
angle = 90;
position = "{460, 0}";
},
{
angle = 90;
position = "{300, 0}";
}
);
layerId = "EC64484B-0978-4CB1-9EE9-C40A2D8C4059";
paths = (
{
closed = 1;
nodes = (
"82 -22 OFFCURVE",
"196.109 -22 OFFCURVE",
"196.109 40 CURVE",
"196.109 -30 OFFCURVE",
"235.457 -30 OFFCURVE",
"235.457 40 CURVE",
"303.157 3.318 OFFCURVE",
"317.701 30.159 OFFCURVE",
"250 66.841 CURVE",
"324 66.841 OFFCURVE",
"324 150.508 OFFCURVE",
"250 150.508 CURVE",
"324 150.508 OFFCURVE",
"324 206.286 OFFCURVE",
"250 206.286 CURVE",
"312 206.286 OFFCURVE",
"312 274.016 OFFCURVE",
"250 274.016 CURVE",
"275.307 205.543 OFFCURVE",
"333.707 227.127 OFFCURVE",
"308.4 295.6 CURVE",
"258.202 245.389 OFFCURVE",
"310.113 193.49 OFFCURVE",
"360.312 243.701 CURVE",
"308.631 209.45 OFFCURVE",
"352.527 143.217 OFFCURVE",
"404.208 177.468 CURVE",
"340.858 135.482 OFFCURVE",
"402.312 42.755 OFFCURVE",
"465.662 84.74 CURVE",
"442.092 16.708 OFFCURVE",
"571.23 -28.033 OFFCURVE",
"594.8 40 CURVE",
"594.8 -20 OFFCURVE",
"642.2 -20 OFFCURVE",
"642.2 40 CURVE",
"719.083 35.763 OFFCURVE",
"721.883 86.565 OFFCURVE",
"645 90.802 CURVE",
"705 90.802 OFFCURVE",
"705 170.556 OFFCURVE",
"645 170.556 CURVE",
"711 170.556 OFFCURVE",
"711 254.296 OFFCURVE",
"645 254.296 CURVE",
"722 254.296 OFFCURVE",
"722 346.012 OFFCURVE",
"645 346.012 CURVE",
"717 346.012 OFFCURVE",
"717 465.642 OFFCURVE",
"645 465.642 CURVE",
"710 465.642 OFFCURVE",
"710 505.519 OFFCURVE",
"645 505.519 CURVE",
"721 505.519 OFFCURVE",
"721 617.173 OFFCURVE",
"645 617.173 CURVE",
"703.707 637.109 OFFCURVE",
"689.164 679.936 OFFCURVE",
"630.457 660 CURVE",
"630.457 735 OFFCURVE",
"563.565 735 OFFCURVE",
"563.565 660 CURVE",
"563.565 734 OFFCURVE",
"500.609 734 OFFCURVE",
"500.609 660 CURVE",
"438.779 672.088 OFFCURVE",
"428.171 617.828 OFFCURVE",
"490 605.739 CURVE",
"415 605.739 OFFCURVE",
"415 554.304 OFFCURVE",
"490 554.304 CURVE",
"428 554.304 OFFCURVE",
"428 407.913 OFFCURVE",
"490 407.913 CURVE",
"483.882 469.61 OFFCURVE",
"397.443 461.039 OFFCURVE",
"403.561 399.341 CURVE",
"457.308 432.208 OFFCURVE",
"411.698 506.794 OFFCURVE",
"357.951 473.927 CURVE",
"414.258 508.359 OFFCURVE",
"349.99 613.456 OFFCURVE",
"293.683 579.024 CURVE",
"343.033 616.556 OFFCURVE",
"281.45 697.531 OFFCURVE",
"232.1 660 CURVE",
"232.1 730 OFFCURVE",
"188.65 730 OFFCURVE",
"188.65 660 CURVE",
"189.325 720.996 OFFCURVE",
"95.675 722.033 OFFCURVE",
"95 661.037 CURVE",
"22 661.037 OFFCURVE",
"22 545.395 OFFCURVE",
"95 545.395 CURVE",
"24 545.395 OFFCURVE",
"24 449.691 OFFCURVE",
"95 449.691 CURVE",
"19 449.691 OFFCURVE",
"19 298.16 OFFCURVE",
"95 298.16 CURVE",
"33 298.16 OFFCURVE",
"33 254.296 OFFCURVE",
"95 254.296 CURVE",
"18 254.296 OFFCURVE",
"18 130.679 OFFCURVE",
"95 130.679 CURVE",
"25 130.679 OFFCURVE",
"25 86.815 OFFCURVE",
"95 86.815 CURVE"
);
}
);
width = 740;
},
{
anchors = (
{
name = bottom;
position = "{370, 0}";
},
{
name = top;
position = "{370, 700}";
}
);
associatedMasterId = "EC64484B-0978-4CB1-9EE9-C40A2D8C4059";
guideLines = (
{
angle = 90;
position = "{460, 0}";
},
{
angle = 90;
position = "{300, 0}";
}
);
layerId = "AB618154-4945-4806-AAB2-3471D2731674";
name = tempoutline;
paths = (
{
closed = 1;
nodes = (
"263 40 LINE SMOOTH",
"256 40 OFFCURVE",
"250 34 OFFCURVE",
"250 27 CURVE SMOOTH",
"250 278 LINE",
"323 300 LINE",
"492 45 LINE",
"497 39 OFFCURVE",
"497 40 OFFCURVE",
"500 40 CURVE SMOOTH",
"658 40 LINE SMOOTH",
"651 40 OFFCURVE",
"645 34 OFFCURVE",
"645 27 CURVE SMOOTH",
"645 673 LINE SMOOTH",
"645 666 OFFCURVE",
"651 660 OFFCURVE",
"658 660 CURVE SMOOTH",
"477 660 LINE SMOOTH",
"484 660 OFFCURVE",
"490 666 OFFCURVE",
"490 673 CURVE SMOOTH",
"490 400 LINE",
"416 379 LINE",
"246 657 LINE",
"244 662 OFFCURVE",
"243 660 OFFCURVE",
"240 660 CURVE SMOOTH",
"82 660 LINE SMOOTH",
"89 660 OFFCURVE",
"95 666 OFFCURVE",
"95 673 CURVE SMOOTH",
"95 27 LINE SMOOTH",
"95 34 OFFCURVE",
"89 40 OFFCURVE",
"82 40 CURVE SMOOTH"
);
}
);
width = 740;
}
);
leftKerningGroup = I;
rightKerningGroup = I;
unicode = 004E;
userData = {
com.typemytype.robofont.guides = (
{
angle = 0;
isGlobal = 0;
magnetic = 5;
x = 0;
y = 9;
},
{
angle = 0;
isGlobal = 0;
magnetic = 5;
x = 0;
y = 691;
},
{
angle = 90;
isGlobal = 0;
magnetic = 5;
x = 540;
y = 0;
},
{
angle = 90;
isGlobal = 0;
magnetic = 5;
x = 125;
y = 0;
}
);
};
},
{
color = 1;
glyphname = Eng;
layers = (
{
guideLines = (
{
position = "{0, 26}";
}
);
hints = (
{
horizontal = 1;
place = "{-2147483648, 0}";
type = Tag;
name = hr00;
}
);
layerId = "EC64484B-0978-4CB1-9EE9-C40A2D8C4059";
paths = (
{
closed = 1;
nodes = (
"348.426 -245.758 OFFCURVE",
"471.912 -234.729 OFFCURVE",
"466.486 -173.971 CURVE",
"490.89 -233.136 OFFCURVE",
"586.722 -193.607 OFFCURVE",
"562.318 -134.442 CURVE",
"622.424 -175.87 OFFCURVE",
"700.087 -63.191 OFFCURVE",
"639.981 -21.763 CURVE",
"699.947 -23.802 OFFCURVE",
"704.965 123.807 OFFCURVE",
"645 125.846 CURVE",
"713 125.846 OFFCURVE",
"713 197.735 OFFCURVE",
"645 197.735 CURVE",
"714 197.735 OFFCURVE",
"714 305.568 OFFCURVE",
"645 305.568 CURVE",
"713 305.568 OFFCURVE",
"713 409.407 OFFCURVE",
"645 409.407 CURVE",
"723 409.407 OFFCURVE",
"723 545.198 OFFCURVE",
"645 545.198 CURVE",
"713 545.198 OFFCURVE",
"713 625.074 OFFCURVE",
"645 625.074 CURVE",
"699.705 660.18 OFFCURVE",
"677.292 695.106 OFFCURVE",
"622.587 660 CURVE",
"622.587 723 OFFCURVE",
"492.739 723 OFFCURVE",
"492.739 660 CURVE",
"425.838 663.643 OFFCURVE",
"423.099 613.338 OFFCURVE",
"490 609.696 CURVE",
"422 609.696 OFFCURVE",
"422 506.826 OFFCURVE",
"490 506.826 CURVE",
"416 506.826 OFFCURVE",
"416 423.739 OFFCURVE",
"490 423.739 CURVE",
"448.729 471.338 OFFCURVE",
"408.029 436.049 OFFCURVE",
"449.3 388.45 CURVE",
"501.012 448.173 OFFCURVE",
"417.956 520.089 OFFCURVE",
"366.244 460.366 CURVE",
"431.935 500.537 OFFCURVE",
"400.837 551.39 OFFCURVE",
"335.146 511.22 CURVE",
"399.984 550.869 OFFCURVE",
"329.496 666.137 OFFCURVE",
"264.659 626.488 CURVE",
"316.208 664.418 OFFCURVE",
"291.549 697.93 OFFCURVE",
"240 660 CURVE",
"240 734 OFFCURVE",
"196.55 734 OFFCURVE",
"196.55 660 CURVE",
"196.55 725 OFFCURVE",
"93.85 725 OFFCURVE",
"93.85 660 CURVE",
"21.175 631.675 OFFCURVE",
"22.325 628.724 OFFCURVE",
"95 657.049 CURVE",
"22 657.049 OFFCURVE",
"22 505.519 OFFCURVE",
"95 505.519 CURVE",
"24 505.519 OFFCURVE",
"24 421.778 OFFCURVE",
"95 421.778 CURVE",
"25 421.778 OFFCURVE",
"25 369.938 OFFCURVE",
"95 369.938 CURVE",
"19 369.938 OFFCURVE",
"19 246.321 OFFCURVE",
"95 246.321 CURVE",
"31 246.321 OFFCURVE",
"31 114.728 OFFCURVE",
"95 114.728 CURVE",
"28.271 87.687 OFFCURVE",
"58.553 12.959 OFFCURVE",
"125.283 40 CURVE",
"125.283 -24 OFFCURVE",
"180.37 -24 OFFCURVE",
"180.37 40 CURVE",
"180.37 -32 OFFCURVE",
"247.261 -32 OFFCURVE",
"247.261 40 CURVE",
"325.853 31.98 OFFCURVE",
"328.592 58.821 OFFCURVE",
"250 66.841 CURVE",
"311 66.841 OFFCURVE",
"311 134.571 OFFCURVE",
"250 134.571 CURVE",
"320 134.571 OFFCURVE",
"320 234.175 OFFCURVE",
"250 234.175 CURVE",
"312.55 189.269 OFFCURVE",
"352.7 245.194 OFFCURVE",
"290.15 290.1 CURVE",
"274.477 216.756 OFFCURVE",
"320.512 206.919 OFFCURVE",
"336.184 280.263 CURVE",
"277.145 240.825 OFFCURVE",
"305.711 198.062 OFFCURVE",
"364.75 237.5 CURVE",
"314.026 203.616 OFFCURVE",
"338.197 167.432 OFFCURVE",
"388.921 201.316 CURVE",
"324.061 157.989 OFFCURVE",
"387.785 62.595 OFFCURVE",
"452.645 105.921 CURVE",
"391.942 65.372 OFFCURVE",
"416.113 29.188 OFFCURVE",
"476.816 69.737 CURVE",
"403.672 58.512 OFFCURVE",
"413.178 -3.436 OFFCURVE",
"486.322 7.789 CURVE",
"450.325 57.035 OFFCURVE",
"355.153 -12.532 OFFCURVE",
"391.15 -61.778 CURVE",
"407.521 3.191 OFFCURVE",
"372.371 12.048 OFFCURVE",
"356 -52.921 CURVE",
"279 -52.921 OFFCURVE",
"279 -178.395 OFFCURVE",
"356 -178.395 CURVE"
);
}
);
width = 740;
},
{
associatedMasterId = "EC64484B-0978-4CB1-9EE9-C40A2D8C4059";
guideLines = (
{
position = "{0, 26}";
}
);
hints = (
{
horizontal = 1;
place = "{-2147483648, 0}";
type = Tag;
name = hr00;
}
);
layerId = "C22E5E6F-7ECC-4ED9-A2A6-8F0EA9FD0E57";
name = tempoutline;
paths = (
{
closed = 1;
nodes = (
"359 -185 LINE SMOOTH",
"539 -185 OFFCURVE",
"645 -107 OFFCURVE",
"645 26 CURVE SMOOTH",
"645 673 LINE SMOOTH",
"645 666 OFFCURVE",
"651 660 OFFCURVE",
"658 660 CURVE SMOOTH",
"477 660 LINE SMOOTH",
"484 660 OFFCURVE",
"490 666 OFFCURVE",
"490 673 CURVE SMOOTH",
"490 400 LINE",
"416 379 LINE",
"246 657 LINE",
"244 662 OFFCURVE",
"243 660 OFFCURVE",
"240 660 CURVE SMOOTH",
"82 660 LINE SMOOTH",
"89 660 OFFCURVE",
"95 666 OFFCURVE",
"95 673 CURVE SMOOTH",
"95 27 LINE SMOOTH",
"95 34 OFFCURVE",
"89 40 OFFCURVE",
"82 40 CURVE SMOOTH",
"263 40 LINE SMOOTH",
"256 40 OFFCURVE",
"250 34 OFFCURVE",
"250 27 CURVE SMOOTH",
"250 278 LINE",
"323 300 LINE",
"490 50 LINE",
"490 36 LINE SMOOTH",
"490 -23 OFFCURVE",
"446 -62 OFFCURVE",
"383 -62 CURVE SMOOTH",
"343 -62 LINE SMOOTH",
"350 -62 OFFCURVE",
"356 -56 OFFCURVE",
"356 -49 CURVE SMOOTH",
"356 -198 LINE SMOOTH",
"356 -191 OFFCURVE",
"350 -185 OFFCURVE",
"343 -185 CURVE SMOOTH"
);
}
);
width = 740;
}
);
leftKerningGroup = I;
rightKerningGroup = I;
unicode = 014A;
},
{
color = 1;
glyphname = O;
layers = (
{
anchors = (
{
name = bottom;
position = "{371, 0}";
},
{
name = center;
position = "{371, 350}";
},
{
name = ogonek;
position = "{668, 10}";
},
{
name = top;
position = "{371, 700}";
},
{
name = topleft;
position = "{20, 700}";
},
{
name = topright;
position = "{722, 700}";
}
);
guideLines = (
{
position = "{0, -10}";
},
{
position = "{0, 710}";
},
{
position = "{0, 515}";
},
{
position = "{0, 434}";
}
);
layerId = "EC64484B-0978-4CB1-9EE9-C40A2D8C4059";
paths = (
{
closed = 1;
nodes = (
"374.296 -41.925 OFFCURVE",
"426.49 -39.533 OFFCURVE",
"423.194 32.392 CURVE",
"443.604 -37.697 OFFCURVE",
"577.692 1.35 OFFCURVE",
"557.282 71.438 CURVE",
"614.422 22.859 OFFCURVE",
"706.227 130.843 OFFCURVE",
"649.087 179.422 CURVE",
"720.947 166.571 OFFCURVE",
"737.144 257.146 OFFCURVE",
"665.284 269.996 CURVE",
"733.271 268.683 OFFCURVE",
"734.43 328.683 OFFCURVE",
"666.443 329.996 CURVE",
"735.442 330.335 OFFCURVE",
"735.147 390.345 OFFCURVE",
"666.148 390.007 CURVE",
"739.851 403.896 OFFCURVE",
"711.092 556.498 OFFCURVE",
"637.39 542.609 CURVE",
"678.522 589 OFFCURVE",
"566.035 688.738 OFFCURVE",
"524.902 642.347 CURVE",
"545.755 716.47 OFFCURVE",
"468.237 738.278 OFFCURVE",
"447.384 664.156 CURVE",
"449.964 734.108 OFFCURVE",
"333.258 738.413 OFFCURVE",
"330.678 668.461 CURVE",
"320.208 743.736 OFFCURVE",
"268.271 736.513 OFFCURVE",
"278.741 661.238 CURVE",
"255.668 718.785 OFFCURVE",
"151.429 676.991 OFFCURVE",
"174.501 619.444 CURVE",
"117.094 673.716 OFFCURVE",
"51.125 603.935 OFFCURVE",
"108.533 549.664 CURVE",
"50.652 574.541 OFFCURVE",
"29.981 526.446 OFFCURVE",
"87.862 501.569 CURVE",
"11.362 510.333 OFFCURVE",
"-0.502 406.771 OFFCURVE",
"75.998 398.007 CURVE",
"6 397.491 OFFCURVE",
"7.002 261.484 OFFCURVE",
"77 262 CURVE",
"16.03 250.743 OFFCURVE",
"30.578 171.948 OFFCURVE",
"91.548 183.205 CURVE",
"44.693 144.146 OFFCURVE",
"137.863 32.379 OFFCURVE",
"184.718 71.438 CURVE",
"166.879 8.934 OFFCURVE",
"304.97 -30.479 OFFCURVE",
"322.81 32.025 CURVE"
);
},
{
closed = 1;
nodes = (
"377.217 182.995 OFFCURVE",
"333.495 190.148 OFFCURVE",
"327.279 152.154 CURVE",
"348.248 179.549 OFFCURVE",
"300.812 215.858 OFFCURVE",
"279.843 188.462 CURVE",
"309.959 200.678 OFFCURVE",
"290.321 249.091 OFFCURVE",
"260.205 236.875 CURVE",
"290.129 239.008 OFFCURVE",
"286.104 295.46 OFFCURVE",
"256.18 293.327 CURVE",
"294.179 293.657 OFFCURVE",
"293.546 366.524 OFFCURVE",
"255.547 366.194 CURVE",
"287.542 365.633 OFFCURVE",
"288.466 418.253 OFFCURVE",
"256.471 418.815 CURVE",
"287.457 413.147 OFFCURVE",
"301.159 488.054 OFFCURVE",
"270.173 493.722 CURVE",
"297.731 469.79 OFFCURVE",
"336.875 514.864 OFFCURVE",
"309.316 538.796 CURVE",
"321.977 505.096 OFFCURVE",
"359.555 519.214 OFFCURVE",
"346.894 552.914 CURVE",
"345.494 522.446 OFFCURVE",
"405.497 519.689 OFFCURVE",
"406.897 550.157 CURVE",
"388.119 515.406 OFFCURVE",
"426.883 494.46 OFFCURVE",
"445.661 529.211 CURVE",
"418.749 510.113 OFFCURVE",
"446.552 470.934 OFFCURVE",
"473.464 490.032 CURVE",
"438.639 480.907 OFFCURVE",
"448.842 441.968 OFFCURVE",
"483.666 451.093 CURVE",
"451.709 449.443 OFFCURVE",
"453.792 409.072 OFFCURVE",
"485.75 410.721 CURVE",
"451.254 410.176 OFFCURVE",
"451.957 365.65 OFFCURVE",
"486.453 366.194 CURVE",
"456.453 366.381 OFFCURVE",
"456.075 305.657 OFFCURVE",
"486.074 305.47 CURVE",
"449.087 306.452 OFFCURVE",
"448.013 265.982 OFFCURVE",
"485 265 CURVE",
"449.097 273.941 OFFCURVE",
"432.611 207.742 OFFCURVE",
"468.515 198.801 CURVE",
"442.004 221.653 OFFCURVE",
"413.174 188.207 OFFCURVE",
"439.684 165.355 CURVE",
"425.155 198.839 OFFCURVE",
"384.621 181.25 OFFCURVE",
"399.15 147.767 CURVE"
);
}
);
width = 742;
},
{
anchors = (
{
name = bottom;
position = "{371, 0}";
},
{
name = center;
position = "{371, 350}";
},
{
name = ogonek;
position = "{668, 10}";
},
{
name = top;
position = "{371, 700}";
},
{
name = topleft;
position = "{20, 700}";
},
{
name = topright;
position = "{722, 700}";
}
);
associatedMasterId = "EC64484B-0978-4CB1-9EE9-C40A2D8C4059";
guideLines = (
{
position = "{0, -10}";
},
{
position = "{0, 710}";
},
{
position = "{0, 515}";
},
{
position = "{0, 434}";
}
);
layerId = "7649FBBD-7EEF-49B6-8029-266543631865";
name = tempoutline;
paths = (
{
closed = 1;
nodes = (
"555 30 OFFCURVE",
"658 112 OFFCURVE",
"665 262 CURVE SMOOTH",
"667 315 OFFCURVE",
"667 379 OFFCURVE",
"665 434 CURVE SMOOTH",
"659 583 OFFCURVE",
"551 670 OFFCURVE",
"371 670 CURVE SMOOTH",
"191 670 OFFCURVE",
"83 583 OFFCURVE",
"77 434 CURVE SMOOTH",
"75 379 OFFCURVE",
"75 315 OFFCURVE",
"77 262 CURVE SMOOTH",
"84 112 OFFCURVE",
"187 30 OFFCURVE",
"371 30 CURVE SMOOTH"
);
},
{
closed = 1;
nodes = (
"302 145 OFFCURVE",
"260 190 OFFCURVE",
"257 265 CURVE SMOOTH",
"255 323 OFFCURVE",
"255 380 OFFCURVE",
"257 435 CURVE SMOOTH",
"260 509 OFFCURVE",
"303 555 OFFCURVE",
"371 555 CURVE SMOOTH",
"439 555 OFFCURVE",
"482 509 OFFCURVE",
"485 435 CURVE SMOOTH",
"487 380 OFFCURVE",
"487 323 OFFCURVE",
"485 265 CURVE SMOOTH",
"482 190 OFFCURVE",
"440 145 OFFCURVE",
"371 145 CURVE SMOOTH"
);
}
);
width = 742;
}
);
leftKerningGroup = O;
rightKerningGroup = O;
unicode = 004F;
userData = {
com.typemytype.robofont.guides = (
{
angle = 0;
isGlobal = 0;
magnetic = 5;
x = 0;
y = "-10";
},
{
angle = 0;
isGlobal = 0;
magnetic = 5;
x = 0;
y = 710;
},
{
angle = 0;
isGlobal = 0;
magnetic = 5;
x = 0;
y = 335;
},
{
angle = 0;
isGlobal = 0;
magnetic = 5;
x = 0;
y = 434;
},
{
angle = 0;
isGlobal = 0;
magnetic = 5;
x = 0;
y = 266;
},
{
angle = 90;
isGlobal = 0;
magnetic = 5;
x = 496;
y = 0;
}
);
};
},
{
color = 1;
glyphname = Oslash;
layers = (
{
anchors = (
{
name = bottom;
position = "{390, 0}";
},
{
name = top;
position = "{390, 700}";
}
);
layerId = "EC64484B-0978-4CB1-9EE9-C40A2D8C4059";
paths = (
{
closed = 1;
nodes = (
"396.019 -30.925 OFFCURVE",
"452.1 -28.146 OFFCURVE",
"449.081 32.779 CURVE",
"469.681 -35.167 OFFCURVE",
"603.032 5.262 OFFCURVE",
"582.432 73.208 CURVE",
"627.399 16.977 OFFCURVE",
"674.245 54.438 OFFCURVE",
"629.278 110.67 CURVE",
"688.847 77.873 OFFCURVE",
"736.758 164.896 OFFCURVE",
"677.19 197.692 CURVE",
"751.002 192.43 OFFCURVE",
"762.211 349.652 OFFCURVE",
"688.399 354.914 CURVE",
"746.203 335.43 OFFCURVE",
"777.805 429.182 OFFCURVE",
"720 448.667 CURVE",
"794.378 428.744 OFFCURVE",
"804.378 466.077 OFFCURVE",
"730 486 CURVE",
"790 486 OFFCURVE",
"790 534 OFFCURVE",
"730 534 CURVE",
"723.071 459.321 OFFCURVE",
"731.889 458.503 OFFCURVE",
"738.818 533.182 CURVE",
"709.592 604.42 OFFCURVE",
"645.774 578.238 OFFCURVE",
"675 507 CURVE",
"727.431 543.701 OFFCURVE",
"657.058 644.236 OFFCURVE",
"604.627 607.535 CURVE",
"636.046 666.711 OFFCURVE",
"554.904 709.792 OFFCURVE",
"523.485 650.616 CURVE",
"531.121 711.136 OFFCURVE",
"380.459 730.146 OFFCURVE",
"372.823 669.626 CURVE",
"361.709 737.725 OFFCURVE",
"254.478 720.224 OFFCURVE",
"265.592 652.125 CURVE",
"225.921 708.581 OFFCURVE",
"99.505 619.751 OFFCURVE",
"139.176 563.295 CURVE",
"69.308 584.451 OFFCURVE",
"28.938 451.127 OFFCURVE",
"98.806 429.972 CURVE",
"24.82 431.45 OFFCURVE",
"23.048 342.744 OFFCURVE",
"97.033 341.266 CURVE",
"40.017 372.477 OFFCURVE",
"-5.016 290.211 OFFCURVE",
"52 259 CURVE",
"-22.45 274.27 OFFCURVE",
"-38.541 195.815 OFFCURVE",
"35.909 180.545 CURVE",
"55.066 113.218 OFFCURVE",
"89.8 123.101 OFFCURVE",
"70.643 190.429 CURVE",
"40.144 119.726 OFFCURVE",
"83.858 100.869 OFFCURVE",
"114.357 171.571 CURVE",
"47.458 131.465 OFFCURVE",
"67.591 97.883 OFFCURVE",
"134.49 137.99 CURVE",
"96.184 86.72 OFFCURVE",
"212.661 -0.305 OFFCURVE",
"250.967 50.966 CURVE",
"240.2 -16.177 OFFCURVE",
"370.213 -37.025 OFFCURVE",
"380.98 30.117 CURVE"
);
},
{
closed = 1;
nodes = (
"354.211 405.529 OFFCURVE",
"318.622 429.471 OFFCURVE",
"297.412 397.941 CURVE",
"329.523 413.078 OFFCURVE",
"311.111 452.137 OFFCURVE",
"279 437 CURVE",
"316.041 431.154 OFFCURVE",
"322.268 470.607 OFFCURVE",
"285.227 476.454 CURVE",
"317.229 458.9 OFFCURVE",
"342.043 504.138 OFFCURVE",
"310.041 521.692 CURVE",
"327.94 494.564 OFFCURVE",
"367.653 520.768 OFFCURVE",
"349.754 547.895 CURVE",
"355.429 513.358 OFFCURVE",
"398.674 520.463 OFFCURVE",
"393 555 CURVE",
"386.866 520.034 OFFCURVE",
"430.741 512.338 OFFCURVE",
"436.875 547.304 CURVE",
"415.181 521.777 OFFCURVE",
"466.891 477.832 OFFCURVE",
"488.585 503.359 CURVE",
"454.752 491.056 OFFCURVE",
"468.601 452.97 OFFCURVE",
"502.434 465.272 CURVE",
"477.701 487.118 OFFCURVE",
"443.671 448.591 OFFCURVE",
"468.404 426.745 CURVE",
"456.063 458.426 OFFCURVE",
"404.829 438.468 OFFCURVE",
"417.17 406.787 CURVE",
"403.014 443.127 OFFCURVE",
"333.483 416.042 OFFCURVE",
"347.638 379.702 CURVE"
);
},
{
closed = 1;
nodes = (
"399.771 178.829 OFFCURVE",
"348.763 189.039 OFFCURVE",
"341.992 155.21 CURVE",
"367.285 184.896 OFFCURVE",
"324.897 221.011 OFFCURVE",
"299.604 191.325 CURVE",
"333.704 202.866 OFFCURVE",
"313.22 263.39 OFFCURVE",
"279.12 251.85 CURVE",
"305.575 234.75 OFFCURVE",
"326.795 267.582 OFFCURVE",
"300.34 284.681 CURVE",
"314.104 249.261 OFFCURVE",
"373.678 272.41 OFFCURVE",
"359.915 307.83 CURVE",
"371.505 278.002 OFFCURVE",
"438.526 304.045 OFFCURVE",
"426.936 333.872 CURVE",
"420.684 297.404 OFFCURVE",
"475.865 287.944 OFFCURVE",
"482.118 324.412 CURVE",
"454.684 297.399 OFFCURVE",
"480.51 271.171 OFFCURVE",
"507.944 298.183 CURVE",
"477.104 301.337 OFFCURVE",
"469.295 224.969 OFFCURVE",
"500.135 221.815 CURVE",
"470.015 237.589 OFFCURVE",
"449.402 198.229 OFFCURVE",
"479.522 182.455 CURVE",
"459.86 215.556 OFFCURVE",
"401.599 180.949 OFFCURVE",
"421.26 147.848 CURVE"
);
}
);
width = 780;
},
{
anchors = (
{
name = bottom;
position = "{390, 0}";
},
{
name = top;
position = "{390, 700}";
}
);
associatedMasterId = "EC64484B-0978-4CB1-9EE9-C40A2D8C4059";
layerId = "76FDEAEF-482A-4C0B-B594-7B1E44E16A37";
name = tempoutline;
paths = (
{
closed = 1;
nodes = (
"577 30 OFFCURVE",
"680 112 OFFCURVE",
"687 261 CURVE SMOOTH",
"688 306 OFFCURVE",
"689 359 OFFCURVE",
"688 408 CURVE",
"713 446 LINE",
"734 454 LINE SMOOTH",
"738 456 OFFCURVE",
"730 443 OFFCURVE",
"730 450 CURVE SMOOTH",
"730 558 LINE SMOOTH",
"730 548 OFFCURVE",
"739 539 OFFCURVE",
"749 539 CURVE SMOOTH",
"740 539 OFFCURVE",
"762 542 OFFCURVE",
"753 539 CURVE SMOOTH",
"675 507 LINE",
"640 611 OFFCURVE",
"538 670 OFFCURVE",
"393 670 CURVE SMOOTH",
"213 670 OFFCURVE",
"105 583 OFFCURVE",
"99 434 CURVE SMOOTH",
"97 394 OFFCURVE",
"97 351 OFFCURVE",
"97 309 CURVE",
"72 272 LINE",
"48 263 LINE SMOOTH",
"44 261 OFFCURVE",
"52 274 OFFCURVE",
"52 267 CURVE SMOOTH",
"52 159 LINE SMOOTH",
"52 169 OFFCURVE",
"43 178 OFFCURVE",
"33 178 CURVE SMOOTH",
"42 178 OFFCURVE",
"20 175 OFFCURVE",
"29 178 CURVE SMOOTH",
"67 192 LINE",
"118 170 LINE",
"155 79 OFFCURVE",
"250 30 OFFCURVE",
"393 30 CURVE SMOOTH"
);
},
{
closed = 1;
nodes = (
"278 411 LINE",
"278 418 OFFCURVE",
"278 427 OFFCURVE",
"279 437 CURVE SMOOTH",
"282 510 OFFCURVE",
"325 555 OFFCURVE",
"393 555 CURVE SMOOTH",
"457 555 OFFCURVE",
"503 512 OFFCURVE",
"505 441 CURVE",
"333 374 LINE"
);
},
{
closed = 1;
nodes = (
"322 145 OFFCURVE",
"277 194 OFFCURVE",
"278 276 CURVE",
"453 344 LINE",
"508 307 LINE",
"508 299 OFFCURVE",
"508 292 OFFCURVE",
"507 285 CURVE SMOOTH",
"507 281 OFFCURVE",
"507 277 OFFCURVE",
"507 274 CURVE SMOOTH",
"508 194 OFFCURVE",
"464 145 OFFCURVE",
"393 145 CURVE SMOOTH"
);
}
);
width = 780;
}
);
leftKerningGroup = O;
rightKerningGroup = O;
unicode = 00D8;
userData = {
com.typemytype.robofont.guides = (
{
angle = 0;
isGlobal = 0;
magnetic = 5;
x = 0;
y = 145;
},
{
angle = 90;
isGlobal = 0;
magnetic = 5;
x = 351;
y = 0;
},
{
angle = 90;
isGlobal = 0;
magnetic = 5;
x = 679;
y = 0;
},
{
angle = 90;
isGlobal = 0;
magnetic = 5;
x = 85;
y = 0;
},
{
angle = 90;
isGlobal = 0;
magnetic = 5;
x = 20;
y = 0;
}
);
};
},
{
color = 1;
glyphname = OE;
layers = (
{
guideLines = (
{
angle = 90;
position = "{422, 0}";
},
{
angle = 90;
position = "{48, 0}";
}
);
hints = (
{
horizontal = 1;
place = "{-2147483648, 0}";
type = Tag;
name = hr00;
}
);
layerId = "EC64484B-0978-4CB1-9EE9-C40A2D8C4059";
paths = (
{
closed = 1;
nodes = (
"364 -30 OFFCURVE",
"455.521 -30 OFFCURVE",
"455.521 40 CURVE",
"455.521 -26 OFFCURVE",
"590.812 -26 OFFCURVE",
"590.812 40 CURVE",
"590.812 -28 OFFCURVE",
"746 -28 OFFCURVE",
"746 40 CURVE",
"746 -22 OFFCURVE",
"837.521 -22 OFFCURVE",
"837.521 40 CURVE",
"849.964 -18.696 OFFCURVE",
"936.443 -0.362 OFFCURVE",
"924 58.333 CURVE",
"998 58.333 OFFCURVE",
"998 140.583 OFFCURVE",
"924 140.583 CURVE",
"999.259 116.561 OFFCURVE",
"1004.674 133.526 OFFCURVE",
"929.415 157.549 CURVE",
"925.788 226.453 OFFCURVE",
"877.373 223.905 OFFCURVE",
"881 155 CURVE",
"881 232 OFFCURVE",
"753 232 OFFCURVE",
"753 155 CURVE",
"753 216 OFFCURVE",
"629 216 OFFCURVE",
"629 155 CURVE",
"701.495 177.813 OFFCURVE",
"681.495 241.369 OFFCURVE",
"609 218.556 CURVE",
"669 218.556 OFFCURVE",
"669 270.194 OFFCURVE",
"609 270.194 CURVE",
"627.297 194.371 OFFCURVE",
"742.524 222.176 OFFCURVE",
"724.227 298 CURVE",
"724.227 230 OFFCURVE",
"855.347 230 OFFCURVE",
"855.347 298 CURVE",
"846.225 228.597 OFFCURVE",
"887.427 223.182 OFFCURVE",
"896.549 292.585 CURVE",
"966.54 293.698 OFFCURVE",
"964.656 412.117 OFFCURVE",
"894.665 411.004 CURVE",
"873.123 476.555 OFFCURVE",
"845.724 467.551 OFFCURVE",
"867.267 402 CURVE",
"867.267 465 OFFCURVE",
"783.827 465 OFFCURVE",
"783.827 402 CURVE",
"783.827 462 OFFCURVE",
"692.44 462 OFFCURVE",
"692.44 402 CURVE",
"728.751 460.673 OFFCURVE",
"645.311 512.312 OFFCURVE",
"609 453.639 CURVE",
"676 453.639 OFFCURVE",
"676 497.333 OFFCURVE",
"609 497.333 CURVE",
"648.746 437.298 OFFCURVE",
"720.746 484.964 OFFCURVE",
"681 545 CURVE",
"681 474 OFFCURVE",
"753 474 OFFCURVE",
"753 545 CURVE",
"753 477 OFFCURVE",
"893 477 OFFCURVE",
"893 545 CURVE",
"956.705 527.745 OFFCURVE",
"979.705 612.662 OFFCURVE",
"916 629.917 CURVE",
"979 629.917 OFFCURVE",
"979 673 OFFCURVE",
"916 673 CURVE",
"868.67 713.048 OFFCURVE",
"857.67 700.048 OFFCURVE",
"905 660 CURVE",
"905 729 OFFCURVE",
"849 729 OFFCURVE",
"849 660 CURVE",
"849 734 OFFCURVE",
"773 734 OFFCURVE",
"773 660 CURVE",
"773 730 OFFCURVE",
"701 730 OFFCURVE",
"701 660 CURVE",
"701 732 OFFCURVE",
"617 732 OFFCURVE",
"617 660 CURVE",
"617 739 OFFCURVE",
"573 739 OFFCURVE",
"573 660 CURVE",
"573 723 OFFCURVE",
"457 723 OFFCURVE",
"457 660 CURVE",
"454.808 730.966 OFFCURVE",
"298.61 726.142 OFFCURVE",
"300.802 655.176 CURVE",
"285.753 723.539 OFFCURVE",
"234.694 712.299 OFFCURVE",
"249.743 643.936 CURVE",
"217.282 701.402 OFFCURVE",
"109.686 640.623 OFFCURVE",
"142.147 583.158 CURVE",
"90.914 619.821 OFFCURVE",
"46.645 557.961 OFFCURVE",
"97.878 521.298 CURVE",
"26.125 546.346 OFFCURVE",
"10.234 500.827 OFFCURVE",
"81.988 475.778 CURVE",
"11.186 481.08 OFFCURVE",
"2.754 368.471 OFFCURVE",
"73.556 363.169 CURVE",
"11.562 362.31 OFFCURVE",
"12.573 289.304 OFFCURVE",
"74.567 290.163 CURVE",
"1.836 283.904 OFFCURVE",
"6.336 231.611 OFFCURVE",
"79.067 237.87 CURVE",
"11.15 217.177 OFFCURVE",
"32.249 147.926 OFFCURVE",
"100.166 168.619 CURVE",
"35.616 123.075 OFFCURVE",
"74.974 67.293 OFFCURVE",
"139.524 112.837 CURVE",
"109.641 50.644 OFFCURVE",
"245.764 -14.761 OFFCURVE",
"275.647 47.432 CURVE"
);
},
{
closed = 1;
nodes = (
"378.368 188.723 OFFCURVE",
"309.634 207.817 OFFCURVE",
"300.266 174.094 CURVE",
"327.692 194.189 OFFCURVE",
"283.424 254.61 OFFCURVE",
"255.998 234.516 CURVE",
"295.027 240.593 OFFCURVE",
"287.627 288.124 OFFCURVE",
"248.597 282.047 CURVE",
"286.075 283.339 OFFCURVE",
"284.41 331.651 OFFCURVE",
"246.932 330.359 CURVE",
"279.929 329.934 OFFCURVE",
"280.864 402.43 OFFCURVE",
"247.867 402.855 CURVE",
"278.525 398.263 OFFCURVE",
"288.704 466.216 OFFCURVE",
"258.046 470.808 CURVE",
"284.464 453.652 OFFCURVE",
"310.943 494.427 OFFCURVE",
"284.524 511.583 CURVE",
"300.542 477.124 OFFCURVE",
"369.657 509.251 OFFCURVE",
"353.639 543.71 CURVE",
"354.526 507.721 OFFCURVE",
"406.887 509.011 OFFCURVE",
"406 545 CURVE",
"393.638 517.665 OFFCURVE",
"437.638 497.767 OFFCURVE",
"450 525.102 CURVE",
"412 525.102 OFFCURVE",
"412 477.347 OFFCURVE",
"450 477.347 CURVE",
"413.5 477.347 OFFCURVE",
"413.5 405.714 OFFCURVE",
"450 405.714 CURVE",
"413.5 405.714 OFFCURVE",
"413.5 342.041 OFFCURVE",
"450 342.041 CURVE",
"410.5 342.041 OFFCURVE",
"410.5 290.306 OFFCURVE",
"450 290.306 CURVE",
"412.5 290.306 OFFCURVE",
"412.5 238.571 OFFCURVE",
"450 238.571 CURVE",
"419.5 238.571 OFFCURVE",
"419.5 194.796 OFFCURVE",
"450 194.796 CURVE",
"418.88 212.894 OFFCURVE",
"395.737 173.098 OFFCURVE",
"426.857 155 CURVE"
);
}
);
width = 1002;
},
{
associatedMasterId = "EC64484B-0978-4CB1-9EE9-C40A2D8C4059";
guideLines = (
{
angle = 90;
position = "{422, 0}";
},
{
angle = 90;
position = "{48, 0}";
}
);
hints = (
{
horizontal = 1;
place = "{-2147483648, 0}";
type = Tag;
name = hr00;
}
);
layerId = "75FCB8C3-3CBF-47C1-A873-8B78A0CE5F42";
name = tempoutline;
paths = (
{
closed = 1;
nodes = (
"937 40 LINE SMOOTH",
"930 40 OFFCURVE",
"924 34 OFFCURVE",
"924 27 CURVE SMOOTH",
"924 168 LINE SMOOTH",
"924 161 OFFCURVE",
"930 155 OFFCURVE",
"937 155 CURVE SMOOTH",
"609 155 LINE",
"609 298 LINE",
"907 298 LINE SMOOTH",
"900 298 OFFCURVE",
"894 292 OFFCURVE",
"894 285 CURVE SMOOTH",
"894 415 LINE SMOOTH",
"894 408 OFFCURVE",
"900 402 OFFCURVE",
"907 402 CURVE SMOOTH",
"609 402 LINE",
"609 545 LINE",
"929 545 LINE SMOOTH",
"922 545 OFFCURVE",
"916 539 OFFCURVE",
"916 532 CURVE SMOOTH",
"916 673 LINE SMOOTH",
"916 666 OFFCURVE",
"922 660 OFFCURVE",
"929 660 CURVE SMOOTH",
"369 660 LINE SMOOTH",
"191 660 OFFCURVE",
"81 570 OFFCURVE",
"75 424 CURVE SMOOTH",
"73 368 OFFCURVE",
"73 331 OFFCURVE",
"75 278 CURVE SMOOTH",
"82 122 OFFCURVE",
"180 40 OFFCURVE",
"364 40 CURVE SMOOTH"
);
},
{
closed = 1;
nodes = (
"299 155 OFFCURVE",
"253 201 OFFCURVE",
"249 274 CURVE SMOOTH",
"246 332 OFFCURVE",
"246 370 OFFCURVE",
"249 427 CURVE SMOOTH",
"253 499 OFFCURVE",
"302 545 OFFCURVE",
"374 545 CURVE SMOOTH",
"450 545 LINE",
"450 155 LINE",
"369 155 LINE SMOOTH"
);
}
);
width = 1002;
}
);
leftKerningGroup = O;
rightKerningGroup = E;
unicode = 0152;
userData = {
com.typemytype.robofont.guides = (
{
angle = 90;
isGlobal = 0;
magnetic = 5;
x = 842;
y = 0;
},
{
angle = 90;
isGlobal = 0;
magnetic = 5;
x = 66;
y = 0;
},
{
angle = 90;
isGlobal = 0;
magnetic = 5;
x = 439;
y = 0;
},
{
angle = 90;
isGlobal = 0;
magnetic = 5;
x = 502;
y = 0;
}
);
};
},
{
color = 1;
glyphname = P;
layers = (
{
guideLines = (
{
position = "{0, 459}";
},
{
angle = 90;
position = "{390, 0}";
}
);
hints = (
{
horizontal = 1;
place = "{-2147483648, 0}";
type = Tag;
name = hr00;
}
);
layerId = "EC64484B-0978-4CB1-9EE9-C40A2D8C4059";
paths = (
{
closed = 1;
nodes = (
"82 -22 OFFCURVE",
"149.346 -22 OFFCURVE",
"149.346 40 CURVE",
"149.346 -33 OFFCURVE",
"216.692 -33 OFFCURVE",
"216.692 40 CURVE",
"205.994 -29.178 OFFCURVE",
"264.302 -38.195 OFFCURVE",
"275 30.983 CURVE",
"347 30.983 OFFCURVE",
"347 178.345 OFFCURVE",
"275 178.345 CURVE",
"332.882 135.524 OFFCURVE",
"391.811 215.179 OFFCURVE",
"333.929 258 CURVE",
"334.926 196.008 OFFCURVE",
"430.114 197.539 OFFCURVE",
"429.116 259.531 CURVE",
"446.971 186.688 OFFCURVE",
"570.904 217.065 OFFCURVE",
"553.05 289.909 CURVE",
"609.667 236.257 OFFCURVE",
"687.969 318.888 OFFCURVE",
"631.351 372.54 CURVE",
"697.325 370.66 OFFCURVE",
"701.707 524.473 OFFCURVE",
"635.734 526.352 CURVE",
"692.691 568.741 OFFCURVE",
"626.75 657.346 OFFCURVE",
"569.792 614.958 CURVE",
"592.972 679.948 OFFCURVE",
"480.329 720.123 OFFCURVE",
"457.149 655.133 CURVE",
"460.904 720.025 OFFCURVE",
"376.794 724.891 OFFCURVE",
"373.039 660 CURVE",
"373.039 720 OFFCURVE",
"265.395 720 OFFCURVE",
"265.395 660 CURVE",
"265.395 725 OFFCURVE",
"173.697 725 OFFCURVE",
"173.697 660 CURVE",
"173.697 733 OFFCURVE",
"117.882 733 OFFCURVE",
"117.882 660 CURVE",
"109.313 726.45 OFFCURVE",
"86.431 723.499 OFFCURVE",
"95 657.049 CURVE",
"24 657.049 OFFCURVE",
"24 561.346 OFFCURVE",
"95 561.346 CURVE",
"30 561.346 OFFCURVE",
"30 429.753 OFFCURVE",
"95 429.753 CURVE",
"35 429.753 OFFCURVE",
"35 326.074 OFFCURVE",
"95 326.074 CURVE",
"29 326.074 OFFCURVE",
"29 266.259 OFFCURVE",
"95 266.259 CURVE",
"19 266.259 OFFCURVE",
"19 162.58 OFFCURVE",
"95 162.58 CURVE",
"26 162.58 OFFCURVE",
"26 114.728 OFFCURVE",
"95 114.728 CURVE",
"28 114.728 OFFCURVE",
"28 70.864 OFFCURVE",
"95 70.864 CURVE",
"35.148 75.069 OFFCURVE",
"32.599 38.789 OFFCURVE",
"92.451 34.585 CURVE"
);
},
{
closed = 1;
nodes = (
"270 523 OFFCURVE",
"336.786 523 OFFCURVE",
"336.786 554 CURVE",
"336.028 520.509 OFFCURVE",
"395.354 519.167 OFFCURVE",
"396.112 552.658 CURVE",
"380.476 527.055 OFFCURVE",
"430.997 496.201 OFFCURVE",
"446.633 521.804 CURVE",
"414.392 508.185 OFFCURVE",
"431.566 467.527 OFFCURVE",
"463.808 481.146 CURVE",
"426.321 480.161 OFFCURVE",
"427.382 439.782 OFFCURVE",
"464.869 440.767 CURVE",
"430.242 453.804 OFFCURVE",
"414.598 412.252 OFFCURVE",
"449.225 399.215 CURVE",
"433.708 427.201 OFFCURVE",
"368.553 391.074 OFFCURVE",
"384.071 363.088 CURVE",
"384.012 394.588 OFFCURVE",
"336.727 394.5 OFFCURVE",
"336.786 363 CURVE",
"336.786 401 OFFCURVE",
"273.929 401 OFFCURVE",
"273.929 363 CURVE",
"307.316 365.747 OFFCURVE",
"303.387 413.497 OFFCURVE",
"270 410.75 CURVE",
"308 410.75 OFFCURVE",
"308 470.438 OFFCURVE",
"270 470.438 CURVE",
"303.5 470.438 OFFCURVE",
"303.5 530.125 OFFCURVE",
"270 530.125 CURVE"
);
}
);
width = 705;
},
{
associatedMasterId = "EC64484B-0978-4CB1-9EE9-C40A2D8C4059";
guideLines = (
{
position = "{0, 459}";
},
{
angle = 90;
position = "{390, 0}";
}
);
hints = (
{
horizontal = 1;
place = "{-2147483648, 0}";
type = Tag;
name = hr00;
}
);
layerId = "5A54D653-3705-4581-8AC9-94D7FA22B0EA";
name = tempoutline;
paths = (
{
closed = 1;
nodes = (
"288 40 LINE SMOOTH",
"281 40 OFFCURVE",
"275 34 OFFCURVE",
"275 27 CURVE SMOOTH",
"275 258 LINE",
"385 258 LINE SMOOTH",
"560 258 OFFCURVE",
"646 324 OFFCURVE",
"646 455 CURVE SMOOTH",
"646 589 OFFCURVE",
"556 660 OFFCURVE",
"385 660 CURVE SMOOTH",
"82 660 LINE SMOOTH",
"89 660 OFFCURVE",
"95 666 OFFCURVE",
"95 673 CURVE SMOOTH",
"95 27 LINE SMOOTH",
"95 34 OFFCURVE",
"89 40 OFFCURVE",
"82 40 CURVE SMOOTH"
);
},
{
closed = 1;
nodes = (
"380 554 LINE SMOOTH",
"433 554 OFFCURVE",
"466 513 OFFCURVE",
"466 457 CURVE SMOOTH",
"466 404 OFFCURVE",
"431 363 OFFCURVE",
"380 363 CURVE SMOOTH",
"270 363 LINE",
"270 554 LINE"
);
}
);
width = 705;
}
);
leftKerningGroup = I;
unicode = 0050;
userData = {
com.typemytype.robofont.guides = (
{
angle = 0;
isGlobal = 0;
magnetic = 5;
x = 0;
y = 493;
},
{
angle = 0;
isGlobal = 0;
magnetic = 5;
x = 0;
y = 403;
},
{
angle = 0;
isGlobal = 0;
magnetic = 5;
x = 0;
y = 218;
},
{
angle = 0;
isGlobal = 0;
magnetic = 5;
x = 0;
y = 310;
},
{
angle = 0;
isGlobal = 0;
magnetic = 5;
x = 0;
y = 9;
},
{
angle = 0;
isGlobal = 0;
magnetic = 5;
x = 0;
y = 691;
},
{
angle = 90;
isGlobal = 0;
magnetic = 5;
x = 345;
y = 0;
},
{
angle = 90;
isGlobal = 0;
magnetic = 5;
x = 94;
y = 0;
},
{
angle = 90;
isGlobal = 0;
magnetic = 5;
x = 139;
y = 0;
}
);
};
},
{
color = 1;
glyphname = Thorn;
layers = (
{
guideLines = (
{
position = "{0, 119}";
},
{
position = "{0, 601}";
}
);
hints = (
{
horizontal = 1;
place = "{-2147483648, 0}";
type = Tag;
name = hr00;
}
);
layerId = "EC64484B-0978-4CB1-9EE9-C40A2D8C4059";
paths = (
{
closed = 1;
nodes = (
"82 -30 OFFCURVE",
"232.538 -30 OFFCURVE",
"232.538 40 CURVE",
"210.875 -30.758 OFFCURVE",
"253.337 -43.758 OFFCURVE",
"275 27 CURVE",
"341 27 OFFCURVE",
"341 131 OFFCURVE",
"275 131 CURVE",
"321.16 66.889 OFFCURVE",
"360.049 94.889 OFFCURVE",
"313.889 159 CURVE",
"313.889 97 OFFCURVE",
"376.111 97 OFFCURVE",
"376.111 159 CURVE",
"379.747 92.099 OFFCURVE",
"455.832 96.234 OFFCURVE",
"452.196 163.135 CURVE",
"476.113 103.772 OFFCURVE",
"619.106 161.382 OFFCURVE",
"595.189 220.745 CURVE",
"654.165 198.59 OFFCURVE",
"704.976 333.845 OFFCURVE",
"646 356 CURVE",
"708.351 365.019 OFFCURVE",
"698.017 436.465 OFFCURVE",
"635.666 427.447 CURVE",
"695.935 478.522 OFFCURVE",
"612.232 577.292 OFFCURVE",
"551.963 526.217 CURVE",
"579.302 592.824 OFFCURVE",
"534.673 611.142 OFFCURVE",
"507.334 544.535 CURVE",
"514.98 609.084 OFFCURVE",
"375.979 625.549 OFFCURVE",
"368.333 561 CURVE",
"368.333 633 OFFCURVE",
"290.556 633 OFFCURVE",
"290.556 561 CURVE",
"363.398 565.795 OFFCURVE",
"356.881 664.795 OFFCURVE",
"284.038 660 CURVE",
"284.038 723 OFFCURVE",
"173.115 723 OFFCURVE",
"173.115 660 CURVE",
"161.113 722.865 OFFCURVE",
"82.998 707.951 OFFCURVE",
"95 645.086 CURVE",
"32 645.086 OFFCURVE",
"32 497.543 OFFCURVE",
"95 497.543 CURVE",
"20 497.543 OFFCURVE",
"20 441.716 OFFCURVE",
"95 441.716 CURVE",
"25 441.716 OFFCURVE",
"25 298.16 OFFCURVE",
"95 298.16 CURVE",
"33 298.16 OFFCURVE",
"33 198.469 OFFCURVE",
"95 198.469 CURVE",
"29 198.469 OFFCURVE",
"29 74.852 OFFCURVE",
"95 74.852 CURVE"
);
},
{
closed = 1;
nodes = (
"270 418 OFFCURVE",
"332.857 418 OFFCURVE",
"332.857 455 CURVE",
"331.167 416.037 OFFCURVE",
"402.322 412.951 OFFCURVE",
"404.012 451.914 CURVE",
"383.426 421.773 OFFCURVE",
"426.047 392.663 OFFCURVE",
"446.633 422.804 CURVE",
"411.183 412.209 OFFCURVE",
"430.549 347.406 OFFCURVE",
"466 358 CURVE",
"429.26 369.509 OFFCURVE",
"410.121 308.41 OFFCURVE",
"446.861 296.902 CURVE",
"425.03 326.775 OFFCURVE",
"386.18 298.383 OFFCURVE",
"408.011 268.51 CURVE",
"405.349 305.916 OFFCURVE",
"341.981 301.405 OFFCURVE",
"344.643 264 CURVE",
"344.643 300.5 OFFCURVE",
"301.429 300.5 OFFCURVE",
"301.429 264 CURVE",
"324.415 294.259 OFFCURVE",
"292.987 318.134 OFFCURVE",
"270 287.875 CURVE",
"308.5 287.875 OFFCURVE",
"308.5 331.646 OFFCURVE",
"270 331.646 CURVE",
"306 331.646 OFFCURVE",
"306 371.438 OFFCURVE",
"270 371.438 CURVE",
"305 371.438 OFFCURVE",
"305 419.188 OFFCURVE",
"270 419.188 CURVE"
);
}
);
width = 705;
},
{
associatedMasterId = "EC64484B-0978-4CB1-9EE9-C40A2D8C4059";
guideLines = (
{
position = "{0, 119}";
},
{
position = "{0, 601}";
}
);
hints = (
{
horizontal = 1;
place = "{-2147483648, 0}";
type = Tag;
name = hr00;
}
);
layerId = "1EFBD4E9-81C9-4767-B688-C2ECA52BB3CE";
name = tempoutline;
paths = (
{
closed = 1;
nodes = (
"288 40 LINE SMOOTH",
"281 40 OFFCURVE",
"275 34 OFFCURVE",
"275 27 CURVE SMOOTH",
"275 159 LINE",
"380 159 LINE SMOOTH",
"560 159 OFFCURVE",
"646 225 OFFCURVE",
"646 356 CURVE SMOOTH",
"646 490 OFFCURVE",
"556 561 OFFCURVE",
"380 561 CURVE SMOOTH",
"275 561 LINE",
"275 673 LINE SMOOTH",
"275 666 OFFCURVE",
"281 660 OFFCURVE",
"288 660 CURVE SMOOTH",
"82 660 LINE SMOOTH",
"89 660 OFFCURVE",
"95 666 OFFCURVE",
"95 673 CURVE SMOOTH",
"95 27 LINE SMOOTH",
"95 34 OFFCURVE",
"89 40 OFFCURVE",
"82 40 CURVE SMOOTH"
);
},
{
closed = 1;
nodes = (
"380 455 LINE SMOOTH",
"433 455 OFFCURVE",
"466 414 OFFCURVE",
"466 358 CURVE SMOOTH",
"466 305 OFFCURVE",
"431 264 OFFCURVE",
"380 264 CURVE SMOOTH",
"270 264 LINE",
"270 455 LINE"
);
}
);
width = 705;
}
);
leftKerningGroup = I;
unicode = 00DE;
userData = {
com.typemytype.robofont.guides = (
{
angle = 0;
isGlobal = 0;
magnetic = 5;
x = 0;
y = 119;
},
{
angle = 0;
isGlobal = 0;
magnetic = 5;
x = 0;
y = 601;
},
{
angle = 0;
isGlobal = 0;
magnetic = 5;
x = 0;
y = 570;
},
{
angle = 0;
isGlobal = 0;
magnetic = 5;
x = 0;
y = 350;
}
);
};
},
{
color = 1;
glyphname = Q;
layers = (
{
guideLines = (
{
position = "{0, 710}";
},
{
position = "{0, -10}";
},
{
position = "{0, -42}";
},
{
angle = 90;
position = "{47, 0}";
},
{
angle = 90;
position = "{715, 0}";
}
);
hints = (
{
horizontal = 1;
place = "{-2147483648, 0}";
type = Tag;
name = hr01;
}
);
layerId = "EC64484B-0978-4CB1-9EE9-C40A2D8C4059";
paths = (
{
closed = 1;
nodes = (
"498 -92 OFFCURVE",
"594 -92 OFFCURVE",
"594 -25 CURVE",
"584.037 -100.344 OFFCURVE",
"666.899 -111.302 OFFCURVE",
"676.863 -35.958 CURVE",
"722.935 2.479 OFFCURVE",
"641.072 100.603 OFFCURVE",
"595 62.167 CURVE",
"659.546 32.59 OFFCURVE",
"712.798 148.803 OFFCURVE",
"648.252 178.38 CURVE",
"718.432 167.62 OFFCURVE",
"734.931 275.233 OFFCURVE",
"664.752 285.993 CURVE",
"738.75 285.537 OFFCURVE",
"739.317 377.549 OFFCURVE",
"665.319 378.005 CURVE",
"733.894 385.646 OFFCURVE",
"719.27 516.903 OFFCURVE",
"650.695 509.263 CURVE",
"720.535 543.995 OFFCURVE",
"693.665 598.027 OFFCURVE",
"623.824 563.295 CURVE",
"673.84 606.358 OFFCURVE",
"644.927 639.939 OFFCURVE",
"594.911 596.877 CURVE",
"629.255 654.405 OFFCURVE",
"543.218 705.768 OFFCURVE",
"508.874 648.24 CURVE",
"525.617 711.046 OFFCURVE",
"471.08 725.585 OFFCURVE",
"454.337 662.779 CURVE",
"461.765 732.383 OFFCURVE",
"397.605 739.23 OFFCURVE",
"390.177 669.626 CURVE",
"383.937 748.379 OFFCURVE",
"267.55 739.157 OFFCURVE",
"273.791 660.403 CURVE",
"252.75 716.593 OFFCURVE",
"166.161 684.169 OFFCURVE",
"187.203 627.979 CURVE",
"139.774 688.639 OFFCURVE",
"89.076 649 OFFCURVE",
"136.504 588.34 CURVE",
"76 621.508 OFFCURVE",
"24.174 526.967 OFFCURVE",
"84.679 493.799 CURVE",
"18.167 501.87 OFFCURVE",
"8.969 426.077 OFFCURVE",
"75.481 418.005 CURVE",
"9.495 419.325 OFFCURVE",
"8.695 379.325 OFFCURVE",
"74.681 378.005 CURVE",
"-2.318 378.204 OFFCURVE",
"-2.442 330.195 OFFCURVE",
"74.557 329.996 CURVE",
"10.57 328.7 OFFCURVE",
"11.867 264.702 OFFCURVE",
"75.854 265.998 CURVE",
"2.36 257.36 OFFCURVE",
"8.451 205.533 OFFCURVE",
"81.945 214.172 CURVE",
"23.599 190.407 OFFCURVE",
"55.258 112.681 OFFCURVE",
"113.604 136.446 CURVE",
"70.306 87.966 OFFCURVE",
"147.453 19.065 OFFCURVE",
"190.751 67.544 CURVE",
"173.212 9.12 OFFCURVE",
"284.289 -24.226 OFFCURVE",
"301.828 34.199 CURVE",
"302.269 -25.8 OFFCURVE",
"441.328 -24.778 OFFCURVE",
"440.887 35.221 CURVE"
);
},
{
closed = 1;
nodes = (
"378.245 174.883 OFFCURVE",
"312.879 192.919 OFFCURVE",
"304.633 163.036 CURVE",
"330.424 188.152 OFFCURVE",
"302.386 216.944 OFFCURVE",
"276.595 191.828 CURVE",
"313.363 204.831 OFFCURVE",
"294.609 257.858 OFFCURVE",
"257.841 244.854 CURVE",
"293.288 246.8 OFFCURVE",
"290.627 295.273 OFFCURVE",
"255.18 293.327 CURVE",
"291.679 293.675 OFFCURVE",
"291.024 362.493 OFFCURVE",
"254.525 362.146 CURVE",
"289.018 361.448 OFFCURVE",
"290.493 434.302 OFFCURVE",
"256 435 CURVE",
"287.976 426.845 OFFCURVE",
"304.79 492.774 OFFCURVE",
"272.814 500.929 CURVE",
"294.815 475.666 OFFCURVE",
"348.437 522.364 OFFCURVE",
"326.436 547.627 CURVE",
"328.914 508.205 OFFCURVE",
"400.545 512.708 OFFCURVE",
"398.067 552.13 CURVE",
"381.982 517.702 OFFCURVE",
"425.483 497.378 OFFCURVE",
"441.568 531.806 CURVE",
"417.046 513.67 OFFCURVE",
"447.942 471.895 OFFCURVE",
"472.464 490.032 CURVE",
"441.313 482.708 OFFCURVE",
"452.356 435.738 OFFCURVE",
"483.507 443.061 CURVE",
"453.023 442.057 OFFCURVE",
"454.621 393.527 OFFCURVE",
"485.104 394.531 CURVE",
"450.605 394.254 OFFCURVE",
"450.996 345.675 OFFCURVE",
"485.494 345.952 CURVE",
"452.997 346.369 OFFCURVE",
"452.322 293.744 OFFCURVE",
"484.82 293.327 CURVE",
"447.968 296.64 OFFCURVE",
"442.184 232.286 OFFCURVE",
"479.035 228.973 CURVE",
"451.589 241.086 OFFCURVE",
"433.711 200.574 OFFCURVE",
"461.157 188.462 CURVE",
"438.202 214.883 OFFCURVE",
"401.919 183.36 OFFCURVE",
"424.874 156.939 CURVE"
);
}
);
width = 742;
},
{
associatedMasterId = "EC64484B-0978-4CB1-9EE9-C40A2D8C4059";
guideLines = (
{
position = "{0, 710}";
},
{
position = "{0, -10}";
},
{
position = "{0, -42}";
},
{
angle = 90;
position = "{47, 0}";
},
{
angle = 90;
position = "{715, 0}";
}
);
hints = (
{
horizontal = 1;
place = "{-2147483648, 0}";
type = Tag;
name = hr01;
}
);
layerId = "CC025EE1-3FDB-4E18-91A2-56A5E23C9523";
name = tempoutline;
paths = (
{
closed = 1;
nodes = (
"694 -25 LINE SMOOTH",
"683 -25 OFFCURVE",
"676 -34 OFFCURVE",
"674 -44 CURVE",
"674 -41 OFFCURVE",
"674 -42 OFFCURVE",
"675 -52 CURVE",
"579 85 LINE",
"632 125 OFFCURVE",
"660 182 OFFCURVE",
"664 262 CURVE SMOOTH",
"666 315 OFFCURVE",
"666 379 OFFCURVE",
"664 434 CURVE SMOOTH",
"658 583 OFFCURVE",
"550 670 OFFCURVE",
"370 670 CURVE SMOOTH",
"190 670 OFFCURVE",
"82 583 OFFCURVE",
"76 434 CURVE SMOOTH",
"74 379 OFFCURVE",
"74 315 OFFCURVE",
"76 262 CURVE SMOOTH",
"83 112 OFFCURVE",
"186 30 OFFCURVE",
"370 30 CURVE SMOOTH",
"399 30 OFFCURVE",
"425 32 OFFCURVE",
"445 36 CURVE",
"488 -18 LINE SMOOTH",
"494 -26 OFFCURVE",
"494 -25 OFFCURVE",
"498 -25 CURVE SMOOTH"
);
},
{
closed = 1;
nodes = (
"301 145 OFFCURVE",
"259 190 OFFCURVE",
"256 265 CURVE SMOOTH",
"254 323 OFFCURVE",
"254 380 OFFCURVE",
"256 435 CURVE SMOOTH",
"259 509 OFFCURVE",
"302 555 OFFCURVE",
"370 555 CURVE SMOOTH",
"438 555 OFFCURVE",
"481 509 OFFCURVE",
"484 435 CURVE SMOOTH",
"486 380 OFFCURVE",
"486 323 OFFCURVE",
"484 265 CURVE SMOOTH",
"481 190 OFFCURVE",
"439 145 OFFCURVE",
"370 145 CURVE SMOOTH"
);
}
);
width = 742;
}
);
leftKerningGroup = O;
rightKerningGroup = O;
unicode = 0051;
userData = {
com.typemytype.robofont.guides = (
{
angle = 0;
isGlobal = 0;
magnetic = 5;
x = 0;
y = 710;
},
{
angle = 0;
isGlobal = 0;
magnetic = 5;
x = 0;
y = "-10";
},
{
angle = 0;
isGlobal = 0;
magnetic = 5;
x = 0;
y = "-56";
},
{
angle = 90;
isGlobal = 0;
magnetic = 5;
x = 82;
y = 0;
},
{
angle = 90;
isGlobal = 0;
magnetic = 5;
x = 750;
y = 0;
},
{
angle = 90;
isGlobal = 0;
magnetic = 5;
x = 580;
y = 0;
}
);
};
},
{
color = 1;
glyphname = R;
layers = (
{
anchors = (
{
name = bottom;
position = "{361, 0}";
},
{
name = top;
position = "{341, 700}";
}
);
guideLines = (
{
angle = 90;
position = "{388, 0}";
},
{
angle = 90;
position = "{694, 0}";
}
);
layerId = "EC64484B-0978-4CB1-9EE9-C40A2D8C4059";
paths = (
{
closed = 1;
nodes = (
"82 -27 OFFCURVE",
"238 -27 OFFCURVE",
"238 40 CURVE",
"274.079 -11.646 OFFCURVE",
"301.079 7.216 OFFCURVE",
"265 58.862 CURVE",
"328 58.862 OFFCURVE",
"328 186.31 OFFCURVE",
"265 186.31 CURVE",
"323.848 166.792 OFFCURVE",
"347.625 238.482 OFFCURVE",
"288.778 258 CURVE",
"273.229 191.802 OFFCURVE",
"366.316 169.937 OFFCURVE",
"381.864 236.136 CURVE",
"309.854 203.647 OFFCURVE",
"352.6 108.901 OFFCURVE",
"424.61 141.39 CURVE",
"364.369 95.054 OFFCURVE",
"442.355 -6.336 OFFCURVE",
"502.596 40 CURVE",
"502.596 -33 OFFCURVE",
"644.519 -33 OFFCURVE",
"644.519 40 CURVE",
"704.435 62.496 OFFCURVE",
"692.836 93.389 OFFCURVE",
"632.92 70.893 CURVE",
"699.844 106.91 OFFCURVE",
"649.084 201.23 OFFCURVE",
"582.16 165.213 CURVE",
"649.084 201.23 OFFCURVE",
"598.324 295.55 OFFCURVE",
"531.4 259.533 CURVE",
"593.877 232.689 OFFCURVE",
"606.13 261.206 OFFCURVE",
"543.653 288.051 CURVE",
"582.937 237.526 OFFCURVE",
"633.94 277.18 OFFCURVE",
"594.656 327.706 CURVE",
"656.805 291.354 OFFCURVE",
"697.38 360.723 OFFCURVE",
"635.231 397.075 CURVE",
"694.511 387.809 OFFCURVE",
"703.244 443.681 OFFCURVE",
"643.964 452.947 CURVE",
"711.602 477.627 OFFCURVE",
"661.884 613.882 OFFCURVE",
"594.246 589.202 CURVE",
"639.979 653.618 OFFCURVE",
"584.435 693.053 OFFCURVE",
"538.701 628.637 CURVE",
"563.734 695.077 OFFCURVE",
"518.571 712.093 OFFCURVE",
"493.538 645.653 CURVE",
"501.548 710.157 OFFCURVE",
"386.01 724.505 OFFCURVE",
"378 660 CURVE",
"378 726 OFFCURVE",
"306 726 OFFCURVE",
"306 660 CURVE",
"306 724 OFFCURVE",
"238 724 OFFCURVE",
"238 660 CURVE",
"238 731 OFFCURVE",
"190 731 OFFCURVE",
"190 660 CURVE",
"190 723 OFFCURVE",
"150 723 OFFCURVE",
"150 660 CURVE",
"150 738 OFFCURVE",
"102 738 OFFCURVE",
"102 660 CURVE",
"33.173 664.884 OFFCURVE",
"26.173 566.229 OFFCURVE",
"95 561.346 CURVE",
"19 561.346 OFFCURVE",
"19 429.753 OFFCURVE",
"95 429.753 CURVE",
"31 429.753 OFFCURVE",
"31 357.975 OFFCURVE",
"95 357.975 CURVE",
"20 357.975 OFFCURVE",
"20 222.395 OFFCURVE",
"95 222.395 CURVE",
"24 222.395 OFFCURVE",
"24 158.593 OFFCURVE",
"95 158.593 CURVE",
"25 158.593 OFFCURVE",
"25 118.716 OFFCURVE",
"95 118.716 CURVE",
"26 118.716 OFFCURVE",
"26 46.938 OFFCURVE",
"95 46.938 CURVE"
);
},
{
closed = 1;
nodes = (
"265 520.5 OFFCURVE",
"307.862 520.5 OFFCURVE",
"307.862 554 CURVE",
"307.862 524 OFFCURVE",
"350.724 524 OFFCURVE",
"350.724 554 CURVE",
"349.248 523.536 OFFCURVE",
"396.833 521.23 OFFCURVE",
"398.309 551.694 CURVE",
"377.561 520.457 OFFCURVE",
"424.338 489.386 OFFCURVE",
"445.087 520.622 CURVE",
"409.395 504.904 OFFCURVE",
"425.784 467.688 OFFCURVE",
"461.476 483.407 CURVE",
"425.484 484.132 OFFCURVE",
"424.433 431.989 OFFCURVE",
"460.426 431.264 CURVE",
"428.814 454.104 OFFCURVE",
"392.159 403.373 OFFCURVE",
"423.771 380.532 CURVE",
"417.272 410.332 OFFCURVE",
"359.811 397.799 OFFCURVE",
"366.31 368 CURVE",
"366.31 402.5 OFFCURVE",
"307.862 402.5 OFFCURVE",
"307.862 368 CURVE",
"307.862 398.5 OFFCURVE",
"268.897 398.5 OFFCURVE",
"268.897 368 CURVE",
"307.302 370.701 OFFCURVE",
"303.405 426.105 OFFCURVE",
"265 423.404 CURVE",
"299 423.404 OFFCURVE",
"299 474.851 OFFCURVE",
"265 474.851 CURVE",
"303 474.851 OFFCURVE",
"303 542.128 OFFCURVE",
"265 542.128 CURVE"
);
}
);
width = 722;
},
{
anchors = (
{
name = bottom;
position = "{361, 0}";
},
{
name = top;
position = "{341, 700}";
}
);
associatedMasterId = "EC64484B-0978-4CB1-9EE9-C40A2D8C4059";
guideLines = (
{
angle = 90;
position = "{388, 0}";
},
{
angle = 90;
position = "{694, 0}";
}
);
layerId = "BD1A3E16-615A-4013-9A4F-D57D05B08BD8";
name = tempoutline;
paths = (
{
closed = 1;
nodes = (
"278 40 LINE SMOOTH",
"271 40 OFFCURVE",
"265 34 OFFCURVE",
"265 27 CURVE SMOOTH",
"265 258 LINE",
"372 258 LINE",
"469 43 LINE SMOOTH",
"470 40 OFFCURVE",
"472 40 OFFCURVE",
"475 40 CURVE SMOOTH",
"680 40 LINE SMOOTH",
"669 40 OFFCURVE",
"662 31 OFFCURVE",
"662 22 CURVE SMOOTH",
"662 17 OFFCURVE",
"665 12 OFFCURVE",
"663 15 CURVE SMOOTH",
"522 277 LINE",
"601 313 OFFCURVE",
"644 376 OFFCURVE",
"644 457 CURVE SMOOTH",
"644 585 OFFCURVE",
"548 660 OFFCURVE",
"378 660 CURVE SMOOTH",
"82 660 LINE SMOOTH",
"89 660 OFFCURVE",
"95 666 OFFCURVE",
"95 673 CURVE SMOOTH",
"95 27 LINE SMOOTH",
"95 34 OFFCURVE",
"89 40 OFFCURVE",
"82 40 CURVE SMOOTH"
);
},
{
closed = 1;
nodes = (
"378 554 LINE SMOOTH",
"429 554 OFFCURVE",
"464 513 OFFCURVE",
"464 459 CURVE SMOOTH",
"464 407 OFFCURVE",
"429 368 OFFCURVE",
"378 368 CURVE SMOOTH",
"265 368 LINE",
"265 554 LINE"
);
}
);
width = 722;
}
);
leftKerningGroup = I;
rightKerningGroup = R;
unicode = 0052;
userData = {
com.typemytype.robofont.guides = (
{
angle = 0;
isGlobal = 0;
magnetic = 5;
x = 0;
y = 691;
},
{
angle = 0;
isGlobal = 0;
magnetic = 5;
x = 0;
y = 9;
},
{
angle = 90;
isGlobal = 0;
magnetic = 5;
x = 616;
y = 0;
},
{
angle = 90;
isGlobal = 0;
magnetic = 5;
x = 574;
y = 0;
},
{
angle = 90;
isGlobal = 0;
magnetic = 5;
x = 94;
y = 0;
},
{
angle = 90;
isGlobal = 0;
magnetic = 5;
x = 139;
y = 0;
}
);
};
},
{
color = 1;
glyphname = S;
layers = (
{
anchors = (
{
name = bottom;
position = "{349, 0}";
},
{
name = top;
position = "{349, 700}";
}
);
guideLines = (
{
position = "{0, 710}";
},
{
position = "{0, -10}";
},
{
position = "{0, 487}";
},
{
position = "{0, 226}";
},
{
angle = 90;
position = "{-1244, 0}";
}
);
layerId = "EC64484B-0978-4CB1-9EE9-C40A2D8C4059";
paths = (
{
closed = 1;
nodes = (
"352.578 -29.74 OFFCURVE",
"448.86 -20.75 OFFCURVE",
"443.282 38.99 CURVE",
"471.439 -33.75 OFFCURVE",
"583.666 9.693 OFFCURVE",
"555.509 82.433 CURVE",
"617.419 36.65 OFFCURVE",
"696.946 144.189 OFFCURVE",
"635.035 189.972 CURVE",
"709.528 198.68 OFFCURVE",
"695.818 315.972 OFFCURVE",
"621.325 307.265 CURVE",
"669.903 361.755 OFFCURVE",
"605.245 419.397 OFFCURVE",
"556.667 364.906 CURVE",
"571.37 423.077 OFFCURVE",
"420.647 461.173 OFFCURVE",
"405.944 403.002 CURVE",
"423.299 466.679 OFFCURVE",
"293.067 502.174 OFFCURVE",
"275.712 438.496 CURVE",
"352.685 436.467 OFFCURVE",
"355.331 536.801 OFFCURVE",
"278.357 538.83 CURVE",
"297.411 478.781 OFFCURVE",
"346.936 494.495 OFFCURVE",
"327.882 554.545 CURVE",
"310.54 479.523 OFFCURVE",
"455.658 445.978 OFFCURVE",
"473 521 CURVE",
"473 443 OFFCURVE",
"529 443 OFFCURVE",
"529 521 CURVE",
"529 461 OFFCURVE",
"593 461 OFFCURVE",
"593 521 CURVE",
"652.321 530.003 OFFCURVE",
"644.712 580.136 OFFCURVE",
"585.391 571.133 CURVE",
"627.363 620.766 OFFCURVE",
"569.492 669.704 OFFCURVE",
"527.521 620.071 CURVE",
"561.305 687.031 OFFCURVE",
"518.406 708.675 OFFCURVE",
"484.622 641.716 CURVE",
"503.218 711.272 OFFCURVE",
"410.545 736.05 OFFCURVE",
"391.948 666.493 CURVE",
"393.637 735.472 OFFCURVE",
"305.685 737.625 OFFCURVE",
"303.996 668.646 CURVE",
"284.76 740.102 OFFCURVE",
"154.219 704.959 OFFCURVE",
"173.456 633.503 CURVE",
"133.591 689.821 OFFCURVE",
"87.968 657.527 OFFCURVE",
"127.833 601.209 CURVE",
"79.678 640.261 OFFCURVE",
"49.51 603.062 OFFCURVE",
"97.665 564.01 CURVE",
"35.325 578.489 OFFCURVE",
"13.01 482.413 OFFCURVE",
"75.35 467.933 CURVE",
"15.563 455.829 OFFCURVE",
"25.109 408.676 OFFCURVE",
"84.896 420.781 CURVE",
"23.669 384.833 OFFCURVE",
"47.992 343.406 OFFCURVE",
"109.219 379.353 CURVE",
"75.316 328.643 OFFCURVE",
"154.795 275.506 OFFCURVE",
"188.698 326.217 CURVE",
"167.683 252.14 OFFCURVE",
"237.275 232.398 OFFCURVE",
"258.29 306.474 CURVE",
"246.54 242.545 OFFCURVE",
"390.107 216.158 OFFCURVE",
"401.857 280.087 CURVE",
"331.702 245.994 OFFCURVE",
"380.748 145.073 OFFCURVE",
"450.902 179.167 CURVE",
"432.739 241.578 OFFCURVE",
"316.61 207.782 OFFCURVE",
"334.773 145.371 CURVE",
"353.929 205.388 OFFCURVE",
"277.11 229.908 OFFCURVE",
"257.953 169.891 CURVE",
"266.849 235.289 OFFCURVE",
"155.771 250.398 OFFCURVE",
"146.875 185 CURVE",
"151.517 248.831 OFFCURVE",
"58.725 255.58 OFFCURVE",
"54.082 191.748 CURVE",
"-7.308 154.129 OFFCURVE",
"51.035 58.918 OFFCURVE",
"112.426 96.537 CURVE",
"76.193 28.595 OFFCURVE",
"160.587 -16.412 OFFCURVE",
"196.82 51.531 CURVE",
"186.022 -11.552 OFFCURVE",
"308.146 -32.457 OFFCURVE",
"318.944 30.625 CURVE"
);
}
);
width = 697;
},
{
anchors = (
{
name = bottom;
position = "{349, 0}";
},
{
name = top;
position = "{349, 700}";
}
);
associatedMasterId = "EC64484B-0978-4CB1-9EE9-C40A2D8C4059";
guideLines = (
{
position = "{0, 710}";
},
{
position = "{0, -10}";
},
{
position = "{0, 487}";
},
{
position = "{0, 226}";
},
{
angle = 90;
position = "{-1244, 0}";
}
);
layerId = "4BEDD9F2-B52F-4DD9-87B1-386240CAD781";
name = tempoutline;
paths = (
{
closed = 1;
nodes = (
"522 30 OFFCURVE",
"639 110 OFFCURVE",
"639 226 CURVE SMOOTH",
"639 334 OFFCURVE",
"578 382 OFFCURVE",
"398 404 CURVE SMOOTH",
"308 415 OFFCURVE",
"252 432 OFFCURVE",
"252 487 CURVE SMOOTH",
"252 531 OFFCURVE",
"288 555 OFFCURVE",
"340 555 CURVE SMOOTH",
"370 555 OFFCURVE",
"402 544 OFFCURVE",
"422 524 CURVE SMOOTH",
"427 520 OFFCURVE",
"427 521 OFFCURVE",
"433 521 CURVE SMOOTH",
"633 521 LINE SMOOTH",
"622 521 OFFCURVE",
"614 513 OFFCURVE",
"614 503 CURVE SMOOTH",
"614 502 LINE SMOOTH",
"611 589 OFFCURVE",
"484 670 OFFCURVE",
"340 670 CURVE SMOOTH",
"180 670 OFFCURVE",
"75 593 OFFCURVE",
"75 480 CURVE SMOOTH",
"75 379 OFFCURVE",
"146 320 OFFCURVE",
"298 300 CURVE SMOOTH",
"401 286 OFFCURVE",
"462 273 OFFCURVE",
"462 213 CURVE SMOOTH",
"462 164 OFFCURVE",
"409 145 OFFCURVE",
"347 145 CURVE SMOOTH",
"308 145 OFFCURVE",
"275 156 OFFCURVE",
"248 177 CURVE SMOOTH",
"235 187 OFFCURVE",
"237 185 OFFCURVE",
"230 185 CURVE SMOOTH",
"40 185 LINE SMOOTH",
"51 185 OFFCURVE",
"58 194 OFFCURVE",
"58 203 CURVE SMOOTH",
"58 204 LINE SMOOTH",
"61 100 OFFCURVE",
"173 30 OFFCURVE",
"347 30 CURVE SMOOTH"
);
}
);
width = 697;
}
);
leftKerningGroup = S;
rightKerningGroup = S;
unicode = 0053;
userData = {
com.typemytype.robofont.guides = (
{
angle = 0;
isGlobal = 0;
magnetic = 5;
x = 0;
y = 355;
},
{
angle = 90;
isGlobal = 0;
magnetic = 5;
x = 306;
y = 0;
}
);
};
},
{
color = 1;
glyphname = Scedilla;
layers = (
{
hints = (
{
horizontal = 1;
place = "{-2147483648, 0}";
type = Tag;
name = hr01;
}
);
layerId = "EC64484B-0978-4CB1-9EE9-C40A2D8C4059";
paths = (
{
closed = 1;
nodes = (
"365.014 -255.389 OFFCURVE",
"404.678 -244.859 OFFCURVE",
"384.664 -169.47 CURVE",
"452.019 -178.813 OFFCURVE",
"462.362 -104.253 OFFCURVE",
"395.007 -94.91 CURVE",
"426.307 -28.961 OFFCURVE",
"362.511 1.318 OFFCURVE",
"331.211 -64.632 CURVE",
"386.831 -35.045 OFFCURVE",
"359.679 15.998 OFFCURVE",
"304.059 -13.588 CURVE",
"371.313 -48.985 OFFCURVE",
"390.724 -12.103 OFFCURVE",
"323.471 23.294 CURVE",
"333.834 -41.887 OFFCURVE",
"488.906 -17.231 OFFCURVE",
"478.542 47.95 CURVE",
"515.413 -9.186 OFFCURVE",
"645.256 74.602 OFFCURVE",
"608.385 131.738 CURVE",
"679.384 104.625 OFFCURVE",
"709.231 182.78 OFFCURVE",
"638.232 209.894 CURVE",
"706.215 221.698 OFFCURVE",
"689.308 319.069 OFFCURVE",
"621.325 307.265 CURVE",
"671.94 362.611 OFFCURVE",
"610.863 418.466 OFFCURVE",
"560.249 363.12 CURVE",
"588.254 434.846 OFFCURVE",
"539.85 453.745 OFFCURVE",
"511.845 382.019 CURVE",
"530.148 457.841 OFFCURVE",
"479.587 470.046 OFFCURVE",
"461.284 394.224 CURVE",
"472.329 468.406 OFFCURVE",
"385.193 481.38 OFFCURVE",
"374.149 407.197 CURVE",
"407.385 460.717 OFFCURVE",
"285.339 536.509 OFFCURVE",
"252.102 482.99 CURVE",
"285.733 426.201 OFFCURVE",
"401.971 495.036 OFFCURVE",
"368.341 551.826 CURVE",
"355.419 491.187 OFFCURVE",
"500.078 460.361 OFFCURVE",
"513 521 CURVE",
"513 442 OFFCURVE",
"585 442 OFFCURVE",
"585 521 CURVE",
"651.998 520.477 OFFCURVE",
"652.389 570.61 OFFCURVE",
"585.391 571.133 CURVE",
"630.591 624.584 OFFCURVE",
"572.721 673.521 OFFCURVE",
"527.521 620.071 CURVE",
"548.253 679.562 OFFCURVE",
"416.65 725.425 OFFCURVE",
"395.917 665.934 CURVE",
"399.258 742.862 OFFCURVE",
"319.323 746.333 OFFCURVE",
"315.982 669.406 CURVE",
"307.133 736.828 OFFCURVE",
"239.721 727.98 OFFCURVE",
"248.57 660.558 CURVE",
"220.214 714.567 OFFCURVE",
"90.988 646.72 OFFCURVE",
"119.344 592.711 CURVE",
"59.697 631.223 OFFCURVE",
"27.299 581.046 OFFCURVE",
"86.947 542.534 CURVE",
"12.597 552.389 OFFCURVE",
"1.645 469.768 OFFCURVE",
"75.995 459.912 CURVE",
"12.152 422.494 OFFCURVE",
"75.145 315.016 OFFCURVE",
"138.988 352.435 CURVE",
"114.296 293.39 OFFCURVE",
"213.94 251.72 OFFCURVE",
"238.632 310.764 CURVE",
"228.261 248.624 OFFCURVE",
"335.958 230.65 OFFCURVE",
"346.329 292.79 CURVE",
"326.063 217.469 OFFCURVE",
"400.568 197.423 OFFCURVE",
"420.834 272.744 CURVE",
"356.486 263.56 OFFCURVE",
"371.782 156.393 OFFCURVE",
"436.13 165.577 CURVE",
"415.45 231.405 OFFCURVE",
"354.492 212.255 OFFCURVE",
"375.172 146.427 CURVE",
"374.583 222.425 OFFCURVE",
"326.056 222.048 OFFCURVE",
"326.645 146.05 CURVE",
"349.349 203.744 OFFCURVE",
"270.704 234.693 OFFCURVE",
"248 177 CURVE",
"252.614 255.865 OFFCURVE",
"115.864 263.865 OFFCURVE",
"111.25 185 CURVE",
"115.502 250.863 OFFCURVE",
"55.502 254.736 OFFCURVE",
"51.25 188.873 CURVE",
"-13.832 145.881 OFFCURVE",
"47.697 52.737 OFFCURVE",
"112.779 95.728 CURVE",
"86.139 35.344 OFFCURVE",
"209.798 -19.212 OFFCURVE",
"236.439 41.173 CURVE",
"213.831 -18.701 OFFCURVE",
"279.099 -43.345 OFFCURVE",
"301.706 16.529 CURVE",
"238.78 19.585 OFFCURVE",
"234.726 -63.9 OFFCURVE",
"297.652 -66.956 CURVE",
"297.727 -136.956 OFFCURVE",
"357.079 -136.892 OFFCURVE",
"357.003 -66.892 CURVE",
"325.928 -120.542 OFFCURVE",
"369.946 -146.038 OFFCURVE",
"401.021 -92.388 CURVE",
"328.156 -96.814 OFFCURVE",
"332.306 -165.151 OFFCURVE",
"405.172 -160.726 CURVE",
"388.582 -91.691 OFFCURVE",
"283.41 -116.965 OFFCURVE",
"300 -186 CURVE",
"343.412 -234.378 OFFCURVE",
"408.195 -176.244 OFFCURVE",
"364.783 -127.867 CURVE",
"332.365 -69.232 OFFCURVE",
"265.481 -106.211 OFFCURVE",
"297.9 -164.845 CURVE"
);
}
);
width = 697;
},
{
associatedMasterId = "EC64484B-0978-4CB1-9EE9-C40A2D8C4059";
hints = (
{
horizontal = 1;
place = "{-2147483648, 0}";
type = Tag;
name = hr01;
}
);
layerId = "98F2ABF9-7698-4282-94D7-086D504B3DD9";
name = tempoutline;
paths = (
{
closed = 1;
nodes = (
"382 -180 OFFCURVE",
"404 -161 OFFCURVE",
"404 -130 CURVE SMOOTH",
"404 -97 OFFCURVE",
"389 -80 OFFCURVE",
"363 -80 CURVE SMOOTH",
"360 -80 OFFCURVE",
"349 -82 OFFCURVE",
"347 -82 CURVE",
"297 -27 LINE",
"327 30 LINE",
"514 25 OFFCURVE",
"639 106 OFFCURVE",
"639 226 CURVE SMOOTH",
"639 334 OFFCURVE",
"578 382 OFFCURVE",
"398 404 CURVE SMOOTH",
"308 415 OFFCURVE",
"252 432 OFFCURVE",
"252 487 CURVE SMOOTH",
"252 531 OFFCURVE",
"288 555 OFFCURVE",
"340 555 CURVE SMOOTH",
"370 555 OFFCURVE",
"402 544 OFFCURVE",
"422 524 CURVE SMOOTH",
"427 520 OFFCURVE",
"427 521 OFFCURVE",
"433 521 CURVE SMOOTH",
"633 521 LINE SMOOTH",
"622 521 OFFCURVE",
"614 513 OFFCURVE",
"614 503 CURVE SMOOTH",
"614 502 LINE SMOOTH",
"611 589 OFFCURVE",
"484 670 OFFCURVE",
"340 670 CURVE SMOOTH",
"180 670 OFFCURVE",
"75 593 OFFCURVE",
"75 480 CURVE SMOOTH",
"75 379 OFFCURVE",
"146 320 OFFCURVE",
"298 300 CURVE SMOOTH",
"401 286 OFFCURVE",
"462 273 OFFCURVE",
"462 213 CURVE SMOOTH",
"462 164 OFFCURVE",
"409 145 OFFCURVE",
"347 145 CURVE SMOOTH",
"308 145 OFFCURVE",
"275 156 OFFCURVE",
"248 177 CURVE SMOOTH",
"235 187 OFFCURVE",
"237 185 OFFCURVE",
"230 185 CURVE SMOOTH",
"40 185 LINE SMOOTH",
"51 185 OFFCURVE",
"58 194 OFFCURVE",
"58 203 CURVE SMOOTH",
"60 112 OFFCURVE",
"148 46 OFFCURVE",
"292 33 CURVE",
"325 -23 LINE",
"304 -69 LINE SMOOTH",
"299 -79 OFFCURVE",
"291 -50 OFFCURVE",
"298 -57 CURVE SMOOTH",
"319 -78 LINE SMOOTH",
"309 -68 OFFCURVE",
"299 -74 OFFCURVE",
"317 -70 CURVE SMOOTH",
"326 -68 OFFCURVE",
"339 -66 OFFCURVE",
"345 -66 CURVE SMOOTH",
"383 -66 OFFCURVE",
"413 -92 OFFCURVE",
"413 -130 CURVE SMOOTH",
"413 -167 OFFCURVE",
"383 -194 OFFCURVE",
"345 -194 CURVE SMOOTH",
"331 -194 OFFCURVE",
"314 -191 OFFCURVE",
"300 -186 CURVE SMOOTH",
"290 -182 OFFCURVE",
"307 -189 OFFCURVE",
"315 -181 CURVE",
"294 -199 LINE SMOOTH",
"509 -13 OFFCURVE",
"182 -180 OFFCURVE",
"345 -180 CURVE SMOOTH"
);
}
);
width = 697;
}
);
leftKerningGroup = S;
rightKerningGroup = S;
unicode = 015E;
userData = {
com.typemytype.robofont.guides = (
{
angle = 90;
isGlobal = 0;
magnetic = 5;
x = 306;
y = 0;
}
);
};
},
{
color = 1;
glyphname = T;
layers = (
{
guideLines = (
{
position = "{0, 495}";
}
);
hints = (
{
horizontal = 1;
place = "{-2147483648, 0}";
type = Tag;
name = hr00;
}
);
layerId = "EC64484B-0978-4CB1-9EE9-C40A2D8C4059";
paths = (
{
closed = 1;
nodes = (
"237 -33 OFFCURVE",
"389 -33 OFFCURVE",
"389 40 CURVE",
"401.801 -24.747 OFFCURVE",
"436.801 -17.827 OFFCURVE",
"424 46.92 CURVE",
"488 46.92 OFFCURVE",
"488 114.648 OFFCURVE",
"424 114.648 CURVE",
"484 114.648 OFFCURVE",
"484 266.04 OFFCURVE",
"424 266.04 CURVE",
"490 266.04 OFFCURVE",
"490 377.592 OFFCURVE",
"424 377.592 CURVE",
"501 377.592 OFFCURVE",
"501 437.352 OFFCURVE",
"424 437.352 CURVE",
"486.744 431.68 OFFCURVE",
"494.667 519.328 OFFCURVE",
"431.923 525 CURVE",
"431.923 457 OFFCURVE",
"578.5 457 OFFCURVE",
"578.5 525 CURVE",
"629.814 473.078 OFFCURVE",
"668.314 511.127 OFFCURVE",
"617 563.049 CURVE",
"687 563.049 OFFCURVE",
"687 610.171 OFFCURVE",
"617 610.171 CURVE",
"683.883 614.124 OFFCURVE",
"680.938 663.954 OFFCURVE",
"614.054 660 CURVE",
"614.054 723 OFFCURVE",
"514.395 723 OFFCURVE",
"514.395 660 CURVE",
"514.395 724 OFFCURVE",
"398.789 724 OFFCURVE",
"398.789 660 CURVE",
"398.789 732 OFFCURVE",
"342.98 732 OFFCURVE",
"342.98 660 CURVE",
"342.98 731 OFFCURVE",
"243.32 731 OFFCURVE",
"243.32 660 CURVE",
"243.32 739 OFFCURVE",
"139.673 739 OFFCURVE",
"139.673 660 CURVE",
"139.673 729 OFFCURVE",
"71.905 729 OFFCURVE",
"71.905 660 CURVE",
"60.467 722.97 OFFCURVE",
"45.562 720.262 OFFCURVE",
"57 657.293 CURVE",
"-22 657.293 OFFCURVE",
"-22 555.195 OFFCURVE",
"57 555.195 CURVE",
"-6.718 549.189 OFFCURVE",
"-3.871 518.994 OFFCURVE",
"59.846 525 CURVE",
"59.846 450 OFFCURVE",
"170.769 450 OFFCURVE",
"170.769 525 CURVE",
"170.769 447 OFFCURVE",
"210.385 447 OFFCURVE",
"210.385 525 CURVE",
"153.196 481.257 OFFCURVE",
"192.811 429.465 OFFCURVE",
"250 473.208 CURVE",
"173 473.208 OFFCURVE",
"173 317.832 OFFCURVE",
"250 317.832 CURVE",
"175 317.832 OFFCURVE",
"175 222.216 OFFCURVE",
"250 222.216 CURVE",
"187 222.216 OFFCURVE",
"187 74.808 OFFCURVE",
"250 74.808 CURVE"
);
}
);
width = 674;
},
{
associatedMasterId = "EC64484B-0978-4CB1-9EE9-C40A2D8C4059";
guideLines = (
{
position = "{0, 495}";
}
);
hints = (
{
horizontal = 1;
place = "{-2147483648, 0}";
type = Tag;
name = hr00;
}
);
layerId = "05765B2D-7C5C-4F0B-8F27-49EF4FBD45C7";
name = tempoutline;
paths = (
{
closed = 1;
nodes = (
"437 40 LINE SMOOTH",
"430 40 OFFCURVE",
"424 34 OFFCURVE",
"424 27 CURVE SMOOTH",
"424 525 LINE",
"630 525 LINE SMOOTH",
"623 525 OFFCURVE",
"617 519 OFFCURVE",
"617 512 CURVE SMOOTH",
"617 673 LINE SMOOTH",
"617 666 OFFCURVE",
"623 660 OFFCURVE",
"630 660 CURVE SMOOTH",
"44 660 LINE SMOOTH",
"51 660 OFFCURVE",
"57 666 OFFCURVE",
"57 673 CURVE SMOOTH",
"57 512 LINE SMOOTH",
"57 519 OFFCURVE",
"51 525 OFFCURVE",
"44 525 CURVE SMOOTH",
"250 525 LINE",
"250 27 LINE SMOOTH",
"250 34 OFFCURVE",
"244 40 OFFCURVE",
"237 40 CURVE SMOOTH"
);
}
);
width = 674;
}
);
leftKerningGroup = T;
rightKerningGroup = T;
unicode = 0054;
userData = {
com.typemytype.robofont.guides = (
{
angle = 0;
isGlobal = 0;
magnetic = 5;
x = 0;
y = 495;
},
{
angle = 0;
isGlobal = 0;
magnetic = 5;
x = 0;
y = 9;
},
{
angle = 0;
isGlobal = 0;
magnetic = 5;
x = 0;
y = 691;
},
{
angle = 0;
isGlobal = 0;
magnetic = 5;
x = 0;
y = 649;
},
{
angle = 90;
isGlobal = 0;
magnetic = 5;
x = 279;
y = 0;
},
{
angle = 90;
isGlobal = 0;
magnetic = 5;
x = 324;
y = 0;
},
{
angle = 90;
isGlobal = 0;
magnetic = 5;
x = 59;
y = 0;
},
{
angle = 90;
isGlobal = 0;
magnetic = 5;
x = 544;
y = 0;
}
);
};
},
{
color = 1;
glyphname = Tbar;
layers = (
{
guideLines = (
{
position = "{0, 320}";
},
{
angle = 90;
position = "{350, 0}";
}
);
hints = (
{
horizontal = 1;
place = "{-2147483648, 0}";
type = Tag;
name = hr00;
}
);
layerId = "EC64484B-0978-4CB1-9EE9-C40A2D8C4059";
paths = (
{
closed = 1;
nodes = (
"241 -34 OFFCURVE",
"345 -34 OFFCURVE",
"345 40 CURVE",
"333.085 -36.073 OFFCURVE",
"416.085 -49.073 OFFCURVE",
"428 27 CURVE",
"494 27 OFFCURVE",
"494 182.426 OFFCURVE",
"428 182.426 CURVE",
"493 182.426 OFFCURVE",
"493 282.059 OFFCURVE",
"428 282.059 CURVE",
"435.613 212.474 OFFCURVE",
"558.028 225.867 OFFCURVE",
"550.415 295.451 CURVE",
"615.866 322.969 OFFCURVE",
"595.875 370.518 OFFCURVE",
"530.424 343 CURVE",
"530.424 413 OFFCURVE",
"447.697 413 OFFCURVE",
"447.697 343 CURVE",
"508.571 373.305 OFFCURVE",
"488.874 412.87 OFFCURVE",
"428 382.565 CURVE",
"489 382.565 OFFCURVE",
"489 465.652 OFFCURVE",
"428 465.652 CURVE",
"500.838 460.79 OFFCURVE",
"504.799 520.138 OFFCURVE",
"431.962 525 CURVE",
"431.962 450 OFFCURVE",
"562.692 450 OFFCURVE",
"562.692 525 CURVE",
"552.731 459.756 OFFCURVE",
"611.703 450.752 OFFCURVE",
"621.665 515.996 CURVE",
"696.659 516.974 OFFCURVE",
"695.994 567.954 OFFCURVE",
"621 566.976 CURVE",
"695 566.976 OFFCURVE",
"695 661.22 OFFCURVE",
"621 661.22 CURVE",
"620.085 735.214 OFFCURVE",
"521.466 733.994 OFFCURVE",
"522.381 660 CURVE",
"522.381 739 OFFCURVE",
"454.612 739 OFFCURVE",
"454.612 660 CURVE",
"454.612 721 OFFCURVE",
"366.912 721 OFFCURVE",
"366.912 660 CURVE",
"366.912 731 OFFCURVE",
"223.401 731 OFFCURVE",
"223.401 660 CURVE",
"223.401 739 OFFCURVE",
"139.687 739 OFFCURVE",
"139.687 660 CURVE",
"144.609 733.836 OFFCURVE",
"63.373 739.251 OFFCURVE",
"58.451 665.415 CURVE",
"-5.512 663.238 OFFCURVE",
"-2.963 588.359 OFFCURVE",
"61 590.537 CURVE",
"-9.624 604.546 OFFCURVE",
"-22.624 539.009 OFFCURVE",
"48 525 CURVE",
"48 457 OFFCURVE",
"151 457 OFFCURVE",
"151 525 CURVE",
"151 446 OFFCURVE",
"210.423 446 OFFCURVE",
"210.423 525 CURVE",
"189.661 448.777 OFFCURVE",
"233.238 436.907 OFFCURVE",
"254 513.13 CURVE",
"191 513.13 OFFCURVE",
"191 473.565 OFFCURVE",
"254 473.565 CURVE",
"178.85 484.902 OFFCURVE",
"159.153 354.337 OFFCURVE",
"234.303 343 CURVE",
"234.303 409 OFFCURVE",
"183.091 409 OFFCURVE",
"183.091 343 CURVE",
"183.091 421 OFFCURVE",
"139.758 421 OFFCURVE",
"139.758 343 CURVE",
"64.316 362.813 OFFCURVE",
"52.498 317.813 OFFCURVE",
"127.939 298 CURVE",
"127.939 236 OFFCURVE",
"242.182 236 OFFCURVE",
"242.182 298 CURVE",
"171.467 291.645 OFFCURVE",
"183.285 160.131 OFFCURVE",
"254 166.485 CURVE",
"181 166.485 OFFCURVE",
"181 38.956 OFFCURVE",
"254 38.956 CURVE"
);
}
);
width = 682;
},
{
associatedMasterId = "EC64484B-0978-4CB1-9EE9-C40A2D8C4059";
guideLines = (
{
position = "{0, 320}";
},
{
angle = 90;
position = "{350, 0}";
}
);
hints = (
{
horizontal = 1;
place = "{-2147483648, 0}";
type = Tag;
name = hr00;
}
);
layerId = "0377A846-0F95-4A74-BBC5-31A1DD575EC3";
name = tempoutline;
paths = (
{
closed = 1;
nodes = (
"441 40 LINE SMOOTH",
"434 40 OFFCURVE",
"428 34 OFFCURVE",
"428 27 CURVE SMOOTH",
"428 298 LINE",
"558 298 LINE SMOOTH",
"551 298 OFFCURVE",
"545 292 OFFCURVE",
"545 285 CURVE SMOOTH",
"545 356 LINE SMOOTH",
"545 349 OFFCURVE",
"551 343 OFFCURVE",
"558 343 CURVE SMOOTH",
"428 343 LINE",
"428 525 LINE",
"634 525 LINE SMOOTH",
"627 525 OFFCURVE",
"621 519 OFFCURVE",
"621 512 CURVE SMOOTH",
"621 673 LINE SMOOTH",
"621 666 OFFCURVE",
"627 660 OFFCURVE",
"634 660 CURVE SMOOTH",
"48 660 LINE SMOOTH",
"55 660 OFFCURVE",
"61 666 OFFCURVE",
"61 673 CURVE SMOOTH",
"61 512 LINE SMOOTH",
"61 519 OFFCURVE",
"55 525 OFFCURVE",
"48 525 CURVE SMOOTH",
"254 525 LINE",
"254 343 LINE",
"124 343 LINE SMOOTH",
"131 343 OFFCURVE",
"137 349 OFFCURVE",
"137 356 CURVE SMOOTH",
"137 285 LINE SMOOTH",
"137 292 OFFCURVE",
"131 298 OFFCURVE",
"124 298 CURVE SMOOTH",
"254 298 LINE",
"254 27 LINE SMOOTH",
"254 34 OFFCURVE",
"248 40 OFFCURVE",
"241 40 CURVE SMOOTH"
);
}
);
width = 682;
}
);
leftKerningGroup = T;
rightKerningGroup = T;
unicode = 0166;
userData = {
com.typemytype.robofont.guides = (
{
angle = 0;
isGlobal = 0;
magnetic = 5;
x = 0;
y = 380;
},
{
angle = 90;
isGlobal = 0;
magnetic = 5;
x = 301;
y = 0;
},
{
angle = 90;
isGlobal = 0;
magnetic = 5;
x = 50;
y = 0;
}
);
};
},
{
color = 1;
glyphname = U;
layers = (
{
anchors = (
{
name = bottom;
position = "{373, 0}";
},
{
name = ogonek;
position = "{671, 10}";
},
{
name = top;
position = "{373, 700}";
},
{
name = topright;
position = "{726, 700}";
}
);
guideLines = (
{
position = "{0, -10}";
},
{
position = "{0, 268}";
},
{
angle = 90;
position = "{380, 0}";
}
);
layerId = "EC64484B-0978-4CB1-9EE9-C40A2D8C4059";
paths = (
{
closed = 1;
nodes = (
"382.094 -40.537 OFFCURVE",
"497.785 -27.262 OFFCURVE",
"489.691 43.275 CURVE",
"529.977 -23.516 OFFCURVE",
"651.94 50.048 OFFCURVE",
"611.654 116.839 CURVE",
"679.595 82.781 OFFCURVE",
"715.431 154.267 OFFCURVE",
"647.489 188.325 CURVE",
"714.35 184.004 OFFCURVE",
"723.86 331.154 OFFCURVE",
"657 335.476 CURVE",
"730 335.476 OFFCURVE",
"730 410.922 OFFCURVE",
"657 410.922 CURVE",
"736 410.922 OFFCURVE",
"736 482.398 OFFCURVE",
"657 482.398 CURVE",
"730 482.398 OFFCURVE",
"730 633.291 OFFCURVE",
"657 633.291 CURVE",
"701.305 678.08 OFFCURVE",
"674.305 704.789 OFFCURVE",
"630 660 CURVE",
"630 727 OFFCURVE",
"490 727 OFFCURVE",
"490 660 CURVE",
"424.137 664.244 OFFCURVE",
"421.137 617.685 OFFCURVE",
"487 613.441 CURVE",
"413 613.441 OFFCURVE",
"413 549.912 OFFCURVE",
"487 549.912 CURVE",
"415 549.912 OFFCURVE",
"415 446.676 OFFCURVE",
"487 446.676 CURVE",
"422 446.676 OFFCURVE",
"422 351.382 OFFCURVE",
"487 351.382 CURVE",
"422.015 352.77 OFFCURVE",
"419.636 241.386 OFFCURVE",
"484.622 239.998 CURVE",
"437.584 289.104 OFFCURVE",
"346.007 201.385 OFFCURVE",
"393.045 152.278 CURVE",
"409.636 228.493 OFFCURVE",
"317.604 248.528 OFFCURVE",
"301.012 172.313 CURVE",
"362.901 207.11 OFFCURVE",
"322.616 278.761 OFFCURVE",
"260.727 243.965 CURVE",
"325.713 245.307 OFFCURVE",
"323.986 328.901 OFFCURVE",
"259 327.559 CURVE",
"330 327.559 OFFCURVE",
"330 426.824 OFFCURVE",
"259 426.824 CURVE",
"322 426.824 OFFCURVE",
"322 534.029 OFFCURVE",
"259 534.029 CURVE",
"323 534.029 OFFCURVE",
"323 665.059 OFFCURVE",
"259 665.059 CURVE",
"247.726 734.145 OFFCURVE",
"216.726 729.086 OFFCURVE",
"228 660 CURVE",
"228 730 OFFCURVE",
"108 730 OFFCURVE",
"108 660 CURVE",
"34.142 677.915 OFFCURVE",
"15.142 599.585 OFFCURVE",
"89 581.67 CURVE",
"26 581.67 OFFCURVE",
"26 526.078 OFFCURVE",
"89 526.078 CURVE",
"21 526.078 OFFCURVE",
"21 422.835 OFFCURVE",
"89 422.835 CURVE",
"29 422.835 OFFCURVE",
"29 375.184 OFFCURVE",
"89 375.184 CURVE",
"25 375.135 OFFCURVE",
"25.092 255.942 OFFCURVE",
"89.092 255.992 CURVE",
"17.784 246.032 OFFCURVE",
"27.174 178.802 OFFCURVE",
"98.482 188.762 CURVE",
"38.706 150.45 OFFCURVE",
"102.453 50.987 OFFCURVE",
"162.23 89.299 CURVE",
"132.943 35.789 OFFCURVE",
"202.827 -2.46 OFFCURVE",
"232.114 51.05 CURVE",
"221.719 -10.073 OFFCURVE",
"343.589 -30.799 OFFCURVE",
"353.984 30.324 CURVE"
);
}
);
width = 746;
},
{
anchors = (
{
name = bottom;
position = "{373, 0}";
},
{
name = ogonek;
position = "{671, 10}";
},
{
name = top;
position = "{373, 700}";
},
{
name = topright;
position = "{726, 700}";
}
);
associatedMasterId = "EC64484B-0978-4CB1-9EE9-C40A2D8C4059";
guideLines = (
{
position = "{0, -10}";
},
{
position = "{0, 268}";
},
{
angle = 90;
position = "{380, 0}";
}
);
layerId = "54B7C3E0-E523-4DD5-A46A-B0E43E32BB86";
name = tempoutline;
paths = (
{
closed = 1;
nodes = (
"560 30 OFFCURVE",
"657 112 OFFCURVE",
"657 264 CURVE SMOOTH",
"657 673 LINE SMOOTH",
"657 666 OFFCURVE",
"663 660 OFFCURVE",
"670 660 CURVE SMOOTH",
"474 660 LINE SMOOTH",
"481 660 OFFCURVE",
"487 666 OFFCURVE",
"487 673 CURVE SMOOTH",
"487 268 LINE SMOOTH",
"487 196 OFFCURVE",
"444 151 OFFCURVE",
"373 151 CURVE SMOOTH",
"302 151 OFFCURVE",
"259 196 OFFCURVE",
"259 268 CURVE SMOOTH",
"259 673 LINE SMOOTH",
"259 666 OFFCURVE",
"265 660 OFFCURVE",
"272 660 CURVE SMOOTH",
"76 660 LINE SMOOTH",
"83 660 OFFCURVE",
"89 666 OFFCURVE",
"89 673 CURVE SMOOTH",
"89 264 LINE SMOOTH",
"89 112 OFFCURVE",
"187 30 OFFCURVE",
"374 30 CURVE SMOOTH"
);
}
);
width = 746;
}
);
leftKerningGroup = U;
rightKerningGroup = U;
unicode = 0055;
userData = {
com.typemytype.robofont.guides = (
{
angle = 0;
isGlobal = 0;
magnetic = 5;
x = 0;
y = 267;
},
{
angle = 90;
isGlobal = 0;
magnetic = 5;
x = 333;
y = 0;
},
{
angle = 90;
isGlobal = 0;
magnetic = 5;
x = 535;
y = 0;
},
{
angle = 90;
isGlobal = 0;
magnetic = 5;
x = 580;
y = 0;
},
{
angle = 90;
isGlobal = 0;
magnetic = 5;
x = 84;
y = 0;
},
{
angle = 90;
isGlobal = 0;
magnetic = 5;
x = 129;
y = 0;
}
);
};
},
{
color = 1;
glyphname = Uogonek;
layers = (
{
guideLines = (
{
position = "{0, -220}";
},
{
angle = 90;
position = "{378, 0}";
}
);
hints = (
{
horizontal = 1;
place = "{-2147483648, 0}";
type = Tag;
name = hr01;
},
{
horizontal = 1;
place = "{-2147483648, 0}";
type = Tag;
name = hr02;
}
);
layerId = "EC64484B-0978-4CB1-9EE9-C40A2D8C4059";
paths = (
{
closed = 1;
nodes = (
"522.985 -181.404 OFFCURVE",
"523.985 -134.404 OFFCURVE",
"458 -133 CURVE",
"490.861 -74.612 OFFCURVE",
"411.843 -30.141 OFFCURVE",
"378.983 -88.529 CURVE",
"445.426 -116.266 OFFCURVE",
"495.408 3.465 OFFCURVE",
"428.965 31.202 CURVE",
"455.052 -42.306 OFFCURVE",
"594.475 7.172 OFFCURVE",
"568.388 80.68 CURVE",
"625.117 36.343 OFFCURVE",
"700.416 132.687 OFFCURVE",
"643.687 177.024 CURVE",
"714.531 159.417 OFFCURVE",
"724.211 198.363 OFFCURVE",
"653.366 215.97 CURVE",
"728.345 214.169 OFFCURVE",
"731.978 365.442 OFFCURVE",
"657 367.243 CURVE",
"734 367.243 OFFCURVE",
"734 430.777 OFFCURVE",
"657 430.777 CURVE",
"730 430.777 OFFCURVE",
"730 514.165 OFFCURVE",
"657 514.165 CURVE",
"724 514.165 OFFCURVE",
"724 629.32 OFFCURVE",
"657 629.32 CURVE",
"734.971 616.613 OFFCURVE",
"740.387 649.841 OFFCURVE",
"662.415 662.549 CURVE",
"660.261 730.515 OFFCURVE",
"579.846 727.966 OFFCURVE",
"582 660 CURVE",
"590.406 721.428 OFFCURVE",
"495.406 734.428 OFFCURVE",
"487 673 CURVE",
"425 673 OFFCURVE",
"425 530.059 OFFCURVE",
"487 530.059 CURVE",
"415 530.059 OFFCURVE",
"415 434.765 OFFCURVE",
"487 434.765 CURVE",
"415 434.765 OFFCURVE",
"415 291.824 OFFCURVE",
"487 291.824 CURVE",
"424.53 305.735 OFFCURVE",
"402.332 206.058 OFFCURVE",
"464.802 192.146 CURVE",
"438.529 262.394 OFFCURVE",
"330.675 222.056 OFFCURVE",
"356.948 151.808 CURVE",
"405.32 212.997 OFFCURVE",
"313.522 285.567 OFFCURVE",
"265.15 224.378 CURVE",
"331.95 229.555 OFFCURVE",
"325.8 308.912 OFFCURVE",
"259 303.735 CURVE",
"327 303.735 OFFCURVE",
"327 458.588 OFFCURVE",
"259 458.588 CURVE",
"336 458.588 OFFCURVE",
"336 569.765 OFFCURVE",
"259 569.765 CURVE",
"329 569.765 OFFCURVE",
"329 661.088 OFFCURVE",
"259 661.088 CURVE",
"257.02 732.061 OFFCURVE",
"218.02 730.972 OFFCURVE",
"220 660 CURVE",
"220 725 OFFCURVE",
"96 725 OFFCURVE",
"96 660 CURVE",
"17.747 670.84 OFFCURVE",
"10.747 620.306 OFFCURVE",
"89 609.466 CURVE",
"23 609.466 OFFCURVE",
"23 466.515 OFFCURVE",
"89 466.515 CURVE",
"20 466.515 OFFCURVE",
"20 347.388 OFFCURVE",
"89 347.388 CURVE",
"17 347.388 OFFCURVE",
"17 283.854 OFFCURVE",
"89 283.854 CURVE",
"18.306 270.203 OFFCURVE",
"45.319 130.315 OFFCURVE",
"116.013 143.966 CURVE",
"61.915 87.775 OFFCURVE",
"141.614 11.045 OFFCURVE",
"195.712 67.236 CURVE",
"176.953 8.142 OFFCURVE",
"268.312 -20.86 OFFCURVE",
"287.071 38.234 CURVE",
"215.858 11.689 OFFCURVE",
"254.352 -91.583 OFFCURVE",
"325.566 -65.038 CURVE",
"259.266 -95.588 OFFCURVE",
"300.024 -184.043 OFFCURVE",
"366.324 -153.493 CURVE",
"345.779 -215.161 OFFCURVE",
"424.422 -241.361 OFFCURVE",
"444.967 -179.693 CURVE"
);
}
);
width = 746;
},
{
associatedMasterId = "EC64484B-0978-4CB1-9EE9-C40A2D8C4059";
guideLines = (
{
position = "{0, -220}";
},
{
angle = 90;
position = "{378, 0}";
}
);
hints = (
{
horizontal = 1;
place = "{-2147483648, 0}";
type = Tag;
name = hr01;
},
{
horizontal = 1;
place = "{-2147483648, 0}";
type = Tag;
name = hr02;
}
);
layerId = "6A208F62-5E82-4AFB-BB1F-F486737EFE15";
name = tempoutline;
paths = (
{
closed = 1;
nodes = (
"471 -180 LINE SMOOTH",
"464 -180 OFFCURVE",
"458 -186 OFFCURVE",
"458 -193 CURVE SMOOTH",
"458 -125 LINE SMOOTH",
"458 -132 OFFCURVE",
"464 -138 OFFCURVE",
"471 -138 CURVE SMOOTH",
"461 -138 LINE SMOOTH",
"408 -138 OFFCURVE",
"371 -102 OFFCURVE",
"371 -49 CURVE SMOOTH",
"371 -4 OFFCURVE",
"396 26 OFFCURVE",
"441 34 CURVE SMOOTH",
"587 60 OFFCURVE",
"657 135 OFFCURVE",
"657 264 CURVE SMOOTH",
"657 673 LINE SMOOTH",
"657 666 OFFCURVE",
"663 660 OFFCURVE",
"670 660 CURVE SMOOTH",
"474 660 LINE SMOOTH",
"481 660 OFFCURVE",
"487 666 OFFCURVE",
"487 673 CURVE SMOOTH",
"487 268 LINE SMOOTH",
"487 196 OFFCURVE",
"444 151 OFFCURVE",
"373 151 CURVE SMOOTH",
"302 151 OFFCURVE",
"259 196 OFFCURVE",
"259 268 CURVE SMOOTH",
"259 673 LINE SMOOTH",
"259 666 OFFCURVE",
"265 660 OFFCURVE",
"272 660 CURVE SMOOTH",
"76 660 LINE SMOOTH",
"83 660 OFFCURVE",
"89 666 OFFCURVE",
"89 673 CURVE SMOOTH",
"89 264 LINE SMOOTH",
"89 134 OFFCURVE",
"158 57 OFFCURVE",
"295 37 CURVE",
"328 -11 LINE",
"326 -22 OFFCURVE",
"325 -34 OFFCURVE",
"325 -49 CURVE SMOOTH",
"325 -135 OFFCURVE",
"371 -180 OFFCURVE",
"457 -180 CURVE SMOOTH"
);
}
);
width = 746;
}
);
leftKerningGroup = U;
rightKerningGroup = U;
unicode = 0172;
userData = {
com.typemytype.robofont.guides = (
{
angle = 0;
isGlobal = 0;
magnetic = 5;
x = 0;
y = "-187";
},
{
angle = 90;
isGlobal = 0;
magnetic = 5;
x = 332;
y = 0;
}
);
};
},
{
color = 1;
glyphname = V;
layers = (
{
hints = (
{
horizontal = 1;
place = "{-2147483648, 0}";
type = Tag;
name = hr00;
}
);
layerId = "EC64484B-0978-4CB1-9EE9-C40A2D8C4059";
paths = (
{
closed = 1;
nodes = (
"249 -28 OFFCURVE",
"405 -28 OFFCURVE",
"405 40 CURVE",
"434.967 -23.261 OFFCURVE",
"524.292 19.052 OFFCURVE",
"494.325 82.313 CURVE",
"553.782 64.738 OFFCURVE",
"580.963 156.69 OFFCURVE",
"521.506 174.265 CURVE",
"579.045 157.257 OFFCURVE",
"592.635 203.233 OFFCURVE",
"535.096 220.241 CURVE",
"593.594 202.949 OFFCURVE",
"617.377 283.407 OFFCURVE",
"558.88 300.699 CURVE",
"623.131 281.706 OFFCURVE",
"666.167 427.297 OFFCURVE",
"601.916 446.289 CURVE",
"670.962 425.879 OFFCURVE",
"700.408 525.494 OFFCURVE",
"631.361 545.904 CURVE",
"707.121 523.509 OFFCURVE",
"739.964 634.618 OFFCURVE",
"664.205 657.012 CURVE",
"666.757 716.958 OFFCURVE",
"596.573 719.946 OFFCURVE",
"594.021 660 CURVE",
"563.399 727.367 OFFCURVE",
"454.503 677.867 OFFCURVE",
"485.125 610.5 CURVE",
"410.519 629.553 OFFCURVE",
"375.884 493.928 OFFCURVE",
"450.49 474.875 CURVE",
"377.822 493.433 OFFCURVE",
"346.155 369.433 OFFCURVE",
"418.823 350.875 CURVE",
"385.877 405.744 OFFCURVE",
"289.075 347.619 OFFCURVE",
"322.021 292.75 CURVE",
"382.093 308.091 OFFCURVE",
"369.228 358.466 OFFCURVE",
"309.156 343.125 CURVE",
"369.228 358.466 OFFCURVE",
"356.364 408.841 OFFCURVE",
"296.292 393.5 CURVE",
"370.897 412.553 OFFCURVE",
"340.22 532.678 OFFCURVE",
"265.615 513.625 CURVE",
"337.314 531.935 OFFCURVE",
"318.511 605.56 OFFCURVE",
"246.813 587.25 CURVE",
"287.831 636.377 OFFCURVE",
"200.699 709.127 OFFCURVE",
"159.681 660 CURVE",
"159.681 739 OFFCURVE",
"64.702 739 OFFCURVE",
"64.702 660 CURVE",
"-5.139 647.224 OFFCURVE",
"1.014 613.586 OFFCURVE",
"70.855 626.361 CURVE",
"-0.109 605.385 OFFCURVE",
"30.469 501.939 OFFCURVE",
"101.434 522.916 CURVE",
"30.469 501.939 OFFCURVE",
"71.24 364.011 OFFCURVE",
"142.205 384.988 CURVE",
"79.871 366.562 OFFCURVE",
"109.317 266.948 OFFCURVE",
"171.651 285.373 CURVE",
"112.194 267.798 OFFCURVE",
"154.097 126.039 OFFCURVE",
"213.554 143.614 CURVE",
"153.138 125.756 OFFCURVE",
"167.861 75.948 OFFCURVE",
"228.277 93.807 CURVE",
"160.189 73.681 OFFCURVE",
"173.78 27.705 OFFCURVE",
"241.867 47.831 CURVE"
);
}
);
width = 726;
},
{
associatedMasterId = "EC64484B-0978-4CB1-9EE9-C40A2D8C4059";
hints = (
{
horizontal = 1;
place = "{-2147483648, 0}";
type = Tag;
name = hr00;
}
);
layerId = "4938F09B-A934-4474-9512-B7F81DE4D1D8";
name = tempoutline;
paths = (
{
closed = 1;
nodes = (
"477 40 LINE SMOOTH",
"480 40 OFFCURVE",
"483 40 OFFCURVE",
"483 44 CURVE",
"671 680 LINE",
"671 679 OFFCURVE",
"671 678 OFFCURVE",
"671 678 CURVE",
"671 667 OFFCURVE",
"680 660 OFFCURVE",
"689 660 CURVE SMOOTH",
"503 660 LINE SMOOTH",
"500 660 OFFCURVE",
"497 660 OFFCURVE",
"497 657 CURVE",
"402 285 LINE",
"324 285 LINE",
"229 657 LINE",
"229 660 OFFCURVE",
"226 660 OFFCURVE",
"223 660 CURVE SMOOTH",
"37 660 LINE SMOOTH",
"48 660 OFFCURVE",
"55 669 OFFCURVE",
"55 678 CURVE",
"55 678 OFFCURVE",
"55 679 OFFCURVE",
"55 680 CURVE",
"243 44 LINE",
"243 40 OFFCURVE",
"246 40 OFFCURVE",
"249 40 CURVE SMOOTH"
);
}
);
width = 726;
}
);
unicode = 0056;
userData = {
com.typemytype.robofont.guides = (
{
angle = 0;
isGlobal = 0;
magnetic = 5;
x = 0;
y = 24;
}
);
};
},
{
color = 1;
glyphname = W;
layers = (
{
anchors = (
{
name = bottom;
position = "{428, 0}";
},
{
name = top;
position = "{428, 700}";
}
);
guideLines = (
{
position = "{0, 545}";
}
);
layerId = "EC64484B-0978-4CB1-9EE9-C40A2D8C4059";
paths = (
{
closed = 1;
nodes = (
"162 -33 OFFCURVE",
"221.583 -33 OFFCURVE",
"221.583 40 CURVE",
"221.583 -36 OFFCURVE",
"293.083 -36 OFFCURVE",
"293.083 40 CURVE",
"359.73 1.435 OFFCURVE",
"409.437 87.336 OFFCURVE",
"342.79 125.901 CURVE",
"407.828 100.016 OFFCURVE",
"453.372 214.449 OFFCURVE",
"388.333 240.333 CURVE",
"448.726 216.297 OFFCURVE",
"481.047 297.507 OFFCURVE",
"420.654 321.543 CURVE",
"380.999 266.304 OFFCURVE",
"401.566 251.538 OFFCURVE",
"441.222 306.778 CURVE",
"373.397 279.784 OFFCURVE",
"416.002 172.734 OFFCURVE",
"483.827 199.728 CURVE",
"417.86 173.474 OFFCURVE",
"463.403 59.042 OFFCURVE",
"529.37 85.296 CURVE",
"480.212 27.335 OFFCURVE",
"533.62 -17.961 OFFCURVE",
"582.778 40 CURVE",
"582.778 -37 OFFCURVE",
"662.222 -37 OFFCURVE",
"662.222 40 CURVE",
"715.425 10.16 OFFCURVE",
"765.775 99.93 OFFCURVE",
"712.571 129.77 CURVE",
"782.838 119.59 OFFCURVE",
"802.266 253.689 OFFCURVE",
"732 263.87 CURVE",
"805.235 253.259 OFFCURVE",
"823.521 379.47 OFFCURVE",
"750.286 390.081 CURVE",
"825.5 379.183 OFFCURVE",
"844.358 509.339 OFFCURVE",
"769.143 520.236 CURVE",
"828.523 511.633 OFFCURVE",
"850.237 661.509 OFFCURVE",
"790.857 670.112 CURVE",
"747.625 605.189 OFFCURVE",
"762.811 595.077 OFFCURVE",
"806.043 660 CURVE",
"806.043 729 OFFCURVE",
"762.511 729 OFFCURVE",
"762.511 660 CURVE",
"764.523 727.97 OFFCURVE",
"622.794 732.167 OFFCURVE",
"620.781 664.196 CURVE",
"547.801 662.487 OFFCURVE",
"548.881 616.374 OFFCURVE",
"621.861 618.083 CURVE",
"552.364 626.462 OFFCURVE",
"545.281 567.712 OFFCURVE",
"614.778 559.333 CURVE",
"552.231 566.874 OFFCURVE",
"547.509 527.708 OFFCURVE",
"610.056 520.167 CURVE",
"532.616 529.503 OFFCURVE",
"519.866 423.753 OFFCURVE",
"597.306 414.417 CURVE",
"547.67 475.877 OFFCURVE",
"509.264 444.86 OFFCURVE",
"558.9 383.4 CURVE",
"618.604 430.426 OFFCURVE",
"542.158 527.481 OFFCURVE",
"482.455 480.455 CURVE",
"502.932 538.975 OFFCURVE",
"432.785 563.521 OFFCURVE",
"412.308 505 CURVE",
"353.804 555.064 OFFCURVE",
"303.86 496.7 OFFCURVE",
"362.364 446.636 CURVE",
"314.655 501.89 OFFCURVE",
"241.592 438.803 OFFCURVE",
"289.3 383.55 CURVE",
"349.27 423.395 OFFCURVE",
"316.303 473.012 OFFCURVE",
"256.333 433.167 CURVE",
"330.798 442.113 OFFCURVE",
"316.159 563.96 OFFCURVE",
"241.694 555.014 CURVE",
"306.199 573.128 OFFCURVE",
"276.718 678.114 OFFCURVE",
"212.213 660 CURVE",
"212.213 726 OFFCURVE",
"172.638 726 OFFCURVE",
"172.638 660 CURVE",
"172.638 730 OFFCURVE",
"49.957 730 OFFCURVE",
"49.957 660 CURVE",
"-7.297 633.716 OFFCURVE",
"17.031 580.722 OFFCURVE",
"74.286 607.006 CURVE",
"1.05 596.396 OFFCURVE",
"18.193 478.073 OFFCURVE",
"91.429 488.683 CURVE",
"14.235 477.499 OFFCURVE",
"35.949 327.623 OFFCURVE",
"113.143 338.807 CURVE",
"39.907 328.197 OFFCURVE",
"53.05 237.483 OFFCURVE",
"126.286 248.093 CURVE",
"58.988 238.343 OFFCURVE",
"77.274 112.132 OFFCURVE",
"144.571 121.882 CURVE",
"85.191 113.279 OFFCURVE",
"94.334 50.173 OFFCURVE",
"153.714 58.776 CURVE"
);
}
);
width = 856;
},
{
anchors = (
{
name = bottom;
position = "{428, 0}";
},
{
name = top;
position = "{428, 700}";
}
);
associatedMasterId = "EC64484B-0978-4CB1-9EE9-C40A2D8C4059";
guideLines = (
{
position = "{0, 545}";
}
);
layerId = "BFEAF7EF-9777-41C6-A98F-40942ABC1D8A";
name = tempoutline;
paths = (
{
closed = 1;
nodes = (
"305 40 LINE SMOOTH",
"309 40 OFFCURVE",
"307 36 OFFCURVE",
"309 41 CURVE SMOOTH",
"428 340 LINE",
"547 41 LINE SMOOTH",
"549 36 OFFCURVE",
"547 40 OFFCURVE",
"551 40 CURVE SMOOTH",
"694 40 LINE SMOOTH",
"696 40 OFFCURVE",
"700 42 OFFCURVE",
"700 43 CURVE SMOOTH",
"792 678 LINE",
"792 678 LINE",
"792 667 OFFCURVE",
"801 660 OFFCURVE",
"810 660 CURVE SMOOTH",
"624 660 LINE SMOOTH",
"611 660 OFFCURVE",
"628 669 OFFCURVE",
"628 669 CURVE",
"594 387 LINE",
"516 379 LINE",
"475 503 LINE SMOOTH",
"472 514 OFFCURVE",
"473 505 OFFCURVE",
"479 505 CURVE SMOOTH",
"377 505 LINE SMOOTH",
"383 505 OFFCURVE",
"384 514 OFFCURVE",
"381 503 CURVE SMOOTH",
"340 379 LINE",
"262 386 LINE",
"228 669 LINE",
"228 669 OFFCURVE",
"245 660 OFFCURVE",
"232 660 CURVE SMOOTH",
"46 660 LINE SMOOTH",
"57 660 OFFCURVE",
"64 669 OFFCURVE",
"64 678 CURVE",
"64 678 LINE",
"156 43 LINE SMOOTH",
"156 42 OFFCURVE",
"160 40 OFFCURVE",
"162 40 CURVE SMOOTH"
);
}
);
width = 856;
}
);
leftKerningGroup = W;
rightKerningGroup = W;
unicode = 0057;
userData = {
com.typemytype.robofont.guides = (
{
angle = 0;
isGlobal = 0;
magnetic = 5;
x = 0;
y = 545;
},
{
angle = 0;
isGlobal = 0;
magnetic = 5;
x = 0;
y = 670;
},
{
angle = 0;
isGlobal = 0;
magnetic = 5;
x = 0;
y = 24;
}
);
};
},
{
color = 1;
glyphname = X;
layers = (
{
guideLines = (
{
position = "{0, 359}";
},
{
angle = 90;
position = "{383, 0}";
}
);
hints = (
{
horizontal = 1;
place = "{-2147483648, 0}";
type = Tag;
name = hr00;
}
);
layerId = "EC64484B-0978-4CB1-9EE9-C40A2D8C4059";
paths = (
{
closed = 1;
nodes = (
"22 -39 OFFCURVE",
"121.091 -39 OFFCURVE",
"121.091 40 CURVE",
"121.091 -32 OFFCURVE",
"224.145 -32 OFFCURVE",
"224.145 40 CURVE",
"277.269 -5.584 OFFCURVE",
"349.838 78.987 OFFCURVE",
"296.714 124.571 CURVE",
"363.946 83.088 OFFCURVE",
"428.16 187.159 OFFCURVE",
"360.929 228.643 CURVE",
"309.979 193.314 OFFCURVE",
"376.261 97.724 OFFCURVE",
"427.211 133.053 CURVE",
"373.524 98.214 OFFCURVE",
"405.629 48.74 OFFCURVE",
"459.316 83.579 CURVE",
"425.641 33.92 OFFCURVE",
"489.904 -9.659 OFFCURVE",
"523.579 40 CURVE",
"523.579 -37 OFFCURVE",
"653.842 -37 OFFCURVE",
"653.842 40 CURVE",
"653.321 -32.998 OFFCURVE",
"712.464 -33.42 OFFCURVE",
"712.985 39.578 CURVE",
"753.919 83.446 OFFCURVE",
"681.478 151.043 OFFCURVE",
"640.544 107.175 CURVE",
"699.282 145.252 OFFCURVE",
"634.33 245.446 OFFCURVE",
"575.592 207.369 CURVE",
"629.295 242.182 OFFCURVE",
"544.858 372.435 OFFCURVE",
"491.155 337.621 CURVE",
"555.321 327.238 OFFCURVE",
"565.65 391.071 OFFCURVE",
"501.485 401.454 CURVE",
"554.789 367.873 OFFCURVE",
"607.882 452.152 OFFCURVE",
"554.577 485.732 CURVE",
"614.651 447.888 OFFCURVE",
"655.001 511.939 OFFCURVE",
"594.928 549.784 CURVE",
"649.925 515.137 OFFCURVE",
"679.657 562.333 OFFCURVE",
"624.66 596.979 CURVE",
"681.535 545.074 OFFCURVE",
"742.624 612.012 OFFCURVE",
"685.748 663.918 CURVE",
"683.333 742.881 OFFCURVE",
"555.258 738.963 OFFCURVE",
"557.673 660 CURVE",
"557.673 733 OFFCURVE",
"490 733 OFFCURVE",
"490 660 CURVE",
"427.724 703.563 OFFCURVE",
"386.215 644.224 OFFCURVE",
"448.491 600.66 CURVE",
"391.462 635.828 OFFCURVE",
"324.443 527.149 OFFCURVE",
"381.472 491.981 CURVE",
"440.75 539.542 OFFCURVE",
"368.279 629.869 OFFCURVE",
"309 582.308 CURVE",
"363.864 622.482 OFFCURVE",
"306.973 700.174 OFFCURVE",
"252.109 660 CURVE",
"252.109 720 OFFCURVE",
"188.982 720 OFFCURVE",
"188.982 660 CURVE",
"188.982 730 OFFCURVE",
"62.727 730 OFFCURVE",
"62.727 660 CURVE",
"122.007 669.268 OFFCURVE",
"119.82 683.259 OFFCURVE",
"60.54 673.99 CURVE",
"21.327 613.605 OFFCURVE",
"31.282 607.141 OFFCURVE",
"70.495 667.526 CURVE",
"13.304 632.624 OFFCURVE",
"90.355 506.366 OFFCURVE",
"147.546 541.268 CURVE",
"82.673 501.677 OFFCURVE",
"109.745 457.317 OFFCURVE",
"174.619 496.907 CURVE",
"121.695 464.61 OFFCURVE",
"188.335 355.414 OFFCURVE",
"241.258 387.711 CURVE",
"165.619 364.912 OFFCURVE",
"177.891 324.2 OFFCURVE",
"253.529 347 CURVE",
"197.278 383.398 OFFCURVE",
"139.043 293.398 OFFCURVE",
"195.294 257 CURVE",
"139.882 292.855 OFFCURVE",
"57.922 166.188 OFFCURVE",
"113.333 130.333 CURVE",
"52.045 169.991 OFFCURVE",
"6.751 99.991 OFFCURVE",
"68.039 60.333 CURVE"
);
}
);
width = 739;
},
{
associatedMasterId = "EC64484B-0978-4CB1-9EE9-C40A2D8C4059";
guideLines = (
{
position = "{0, 359}";
},
{
angle = 90;
position = "{383, 0}";
}
);
hints = (
{
horizontal = 1;
place = "{-2147483648, 0}";
type = Tag;
name = hr00;
}
);
layerId = "A72833F5-CA7A-4408-BAD3-FC544A003FC0";
name = tempoutline;
paths = (
{
closed = 1;
nodes = (
"240 40 LINE SMOOTH",
"243 40 OFFCURVE",
"245 41 OFFCURVE",
"247 44 CURVE SMOOTH",
"363 232 LINE",
"485 44 LINE SMOOTH",
"487 41 OFFCURVE",
"489 40 OFFCURVE",
"492 40 CURVE SMOOTH",
"717 40 LINE SMOOTH",
"706 40 OFFCURVE",
"699 31 OFFCURVE",
"699 22 CURVE SMOOTH",
"699 21 OFFCURVE",
"699 20 OFFCURVE",
"699 17 CURVE",
"476 361 LINE",
"682 688 LINE SMOOTH",
"679 683 OFFCURVE",
"679 673 OFFCURVE",
"679 678 CURVE SMOOTH",
"679 667 OFFCURVE",
"688 660 OFFCURVE",
"697 660 CURVE SMOOTH",
"490 660 LINE SMOOTH",
"487 660 OFFCURVE",
"485 660 OFFCURVE",
"482 655 CURVE SMOOTH",
"371 475 LINE",
"267 655 LINE",
"265 660 OFFCURVE",
"263 660 OFFCURVE",
"260 660 CURVE SMOOTH",
"43 660 LINE SMOOTH",
"54 660 OFFCURVE",
"61 669 OFFCURVE",
"61 678 CURVE SMOOTH",
"61 683 OFFCURVE",
"58 689 OFFCURVE",
"60 685 CURVE",
"58 688 LINE",
"260 357 LINE",
"40 17 LINE",
"40 20 OFFCURVE",
"40 21 OFFCURVE",
"40 22 CURVE SMOOTH",
"40 33 OFFCURVE",
"31 40 OFFCURVE",
"22 40 CURVE SMOOTH"
);
}
);
width = 739;
}
);
unicode = 0058;
userData = {
com.typemytype.robofont.guides = (
{
angle = 0;
isGlobal = 0;
magnetic = 5;
x = 0;
y = 350;
},
{
angle = 90;
isGlobal = 0;
magnetic = 5;
x = 28;
y = 0;
},
{
angle = 90;
isGlobal = 0;
magnetic = 5;
x = 580;
y = 0;
}
);
};
},
